<svg xmlns="http://www.w3.org/2000/svg" xmlns:xlink="http://www.w3.org/1999/xlink" width="3072" zoomAndPan="magnify" viewBox="0 0 2304 2304.00001" height="3072" preserveAspectRatio="xMidYMid meet" version="1.0"><defs><clipPath id="id1"><path d="M 163.148438 0 L 2140.789062 0 L 2140.789062 2303 L 163.148438 2303 Z M 163.148438 0 " clip-rule="nonzero"/></clipPath></defs><g clip-path="url(#id1)"><path fill="#ffd87c" d="M 1455.925781 715.714844 C 1498.574219 715.714844 1533.464844 750.609375 1533.464844 793.253906 C 1533.464844 835.902344 1498.574219 870.796875 1455.925781 870.796875 C 1413.277344 870.796875 1378.386719 835.902344 1378.386719 793.253906 C 1378.386719 750.609375 1412.503906 715.714844 1455.925781 715.714844 Z M 848.015625 715.714844 C 890.660156 715.714844 925.554688 750.609375 925.554688 793.253906 C 925.554688 835.902344 890.660156 870.796875 848.015625 870.796875 C 805.367188 870.796875 770.472656 835.902344 770.472656 793.253906 C 770.472656 750.609375 805.367188 715.714844 848.015625 715.714844 Z M 240.878906 715.714844 C 283.523438 715.714844 318.417969 750.609375 318.417969 793.253906 C 318.417969 835.902344 283.523438 870.796875 240.878906 870.796875 C 198.230469 870.796875 163.335938 835.902344 163.335938 793.253906 C 163.335938 750.609375 198.230469 715.714844 240.878906 715.714844 Z M 2063.0625 715.714844 C 2105.710938 715.714844 2140.601562 750.609375 2140.601562 793.253906 C 2140.601562 835.902344 2105.710938 870.796875 2063.0625 870.796875 C 2020.414062 870.796875 1985.523438 835.902344 1985.523438 793.253906 C 1985.523438 750.609375 2020.414062 715.714844 2063.0625 715.714844 Z M 1455.925781 1432.203125 C 1498.574219 1432.203125 1533.464844 1467.097656 1533.464844 1509.746094 C 1533.464844 1552.394531 1498.574219 1587.285156 1455.925781 1587.285156 C 1413.277344 1587.285156 1378.386719 1552.394531 1378.386719 1509.746094 C 1378.386719 1467.097656 1412.503906 1432.203125 1455.925781 1432.203125 Z M 848.015625 1432.203125 C 890.660156 1432.203125 925.554688 1467.097656 925.554688 1509.746094 C 925.554688 1552.394531 890.660156 1587.285156 848.015625 1587.285156 C 805.367188 1587.285156 770.472656 1552.394531 770.472656 1509.746094 C 770.472656 1467.097656 805.367188 1432.203125 848.015625 1432.203125 Z M 240.878906 1432.203125 C 283.523438 1432.203125 318.417969 1467.097656 318.417969 1509.746094 C 318.417969 1552.394531 283.523438 1587.285156 240.878906 1587.285156 C 198.230469 1587.285156 163.335938 1552.394531 163.335938 1509.746094 C 163.335938 1467.097656 198.230469 1432.203125 240.878906 1432.203125 Z M 2063.0625 1432.203125 C 2105.710938 1432.203125 2140.601562 1467.097656 2140.601562 1509.746094 C 2140.601562 1552.394531 2105.710938 1587.285156 2063.0625 1587.285156 C 2020.414062 1587.285156 1985.523438 1552.394531 1985.523438 1509.746094 C 1985.523438 1467.097656 2020.414062 1432.203125 2063.0625 1432.203125 Z M 1455.925781 0 C 1498.574219 0 1533.464844 34.894531 1533.464844 77.542969 C 1533.464844 120.191406 1498.574219 155.085938 1455.925781 155.085938 C 1413.277344 155.085938 1378.386719 120.191406 1378.386719 77.542969 C 1378.386719 34.894531 1412.503906 0 1455.925781 0 Z M 848.015625 0 C 890.660156 0 925.554688 34.894531 925.554688 77.542969 C 925.554688 120.191406 890.660156 155.085938 848.015625 155.085938 C 805.367188 155.085938 770.472656 120.191406 770.472656 77.542969 C 770.472656 34.894531 805.367188 0 848.015625 0 Z M 240.878906 0 C 283.523438 0 318.417969 34.894531 318.417969 77.542969 C 318.417969 120.191406 283.523438 155.085938 240.878906 155.085938 C 198.230469 155.085938 163.335938 120.191406 163.335938 77.542969 C 163.335938 34.894531 198.230469 0 240.878906 0 Z M 2063.0625 0 C 2105.710938 0 2140.601562 34.894531 2140.601562 77.542969 C 2140.601562 120.191406 2105.710938 155.085938 2063.0625 155.085938 C 2020.414062 155.085938 1985.523438 120.191406 1985.523438 77.542969 C 1985.523438 34.894531 2020.414062 0 2063.0625 0 Z M 1455.925781 2147.917969 C 1498.574219 2147.917969 1533.464844 2182.808594 1533.464844 2225.457031 C 1533.464844 2268.105469 1498.574219 2303 1455.925781 2303 C 1413.277344 2303 1378.386719 2268.105469 1378.386719 2225.457031 C 1378.386719 2182.808594 1412.503906 2147.917969 1455.925781 2147.917969 Z M 848.015625 2147.917969 C 890.660156 2147.917969 925.554688 2182.808594 925.554688 2225.457031 C 925.554688 2268.105469 890.660156 2303 848.015625 2303 C 805.367188 2303 770.472656 2268.105469 770.472656 2225.457031 C 770.472656 2182.808594 805.367188 2147.917969 848.015625 2147.917969 Z M 240.878906 2147.917969 C 283.523438 2147.917969 318.417969 2182.808594 318.417969 2225.457031 C 318.417969 2268.105469 283.523438 2303 240.878906 2303 C 198.230469 2303 163.335938 2268.105469 163.335938 2225.457031 C 163.335938 2182.808594 198.230469 2147.917969 240.878906 2147.917969 Z M 2063.0625 2147.917969 C 2105.710938 2147.917969 2140.601562 2182.808594 2140.601562 2225.457031 C 2140.601562 2268.105469 2105.710938 2303 2063.0625 2303 C 2020.414062 2303 1985.523438 2268.105469 1985.523438 2225.457031 C 1985.523438 2182.808594 2020.414062 2147.917969 2063.0625 2147.917969 Z M 2063.0625 2147.917969 " fill-opacity="1" fill-rule="nonzero"/></g></svg>