<svg xmlns="http://www.w3.org/2000/svg" xmlns:xlink="http://www.w3.org/1999/xlink" width="3072" zoomAndPan="magnify" viewBox="0 0 2304 2304.00001" height="3072" preserveAspectRatio="xMidYMid meet" version="1.0"><defs><clipPath id="id1"><path d="M 0.5 0 L 2007.777344 0 L 2007.777344 2135.363281 L 0.5 2135.363281 Z M 0.5 0 " clip-rule="nonzero"/></clipPath></defs><g clip-path="url(#id1)"><path fill="#ffd87c" d="M 1163.25 178.125 C 1215.835938 178.125 1258.867188 221.148438 1258.867188 273.738281 C 1258.867188 326.328125 1215.835938 369.355469 1163.25 369.355469 C 1110.660156 369.355469 1067.632812 326.328125 1067.632812 273.738281 C 1067.632812 221.148438 1109.703125 178.125 1163.25 178.125 Z M 413.613281 178.125 C 466.203125 178.125 509.230469 221.148438 509.230469 273.738281 C 509.230469 326.328125 466.203125 369.355469 413.613281 369.355469 C 361.023438 369.355469 317.996094 326.328125 317.996094 273.738281 C 317.996094 221.148438 361.023438 178.125 413.613281 178.125 Z M -335.066406 178.125 C -282.480469 178.125 -239.453125 221.148438 -239.453125 273.738281 C -239.453125 326.328125 -282.480469 369.355469 -335.066406 369.355469 C -387.65625 369.355469 -430.683594 326.328125 -430.683594 273.738281 C -430.683594 221.148438 -387.65625 178.125 -335.066406 178.125 Z M 1911.929688 178.125 C 1964.519531 178.125 2007.546875 221.148438 2007.546875 273.738281 C 2007.546875 326.328125 1964.519531 369.355469 1911.929688 369.355469 C 1859.339844 369.355469 1816.3125 326.328125 1816.3125 273.738281 C 1816.3125 221.148438 1859.339844 178.125 1911.929688 178.125 Z M 1163.25 1061.605469 C 1215.835938 1061.605469 1258.867188 1104.632812 1258.867188 1157.222656 C 1258.867188 1209.808594 1215.835938 1252.835938 1163.25 1252.835938 C 1110.660156 1252.835938 1067.632812 1209.808594 1067.632812 1157.222656 C 1067.632812 1104.632812 1109.703125 1061.605469 1163.25 1061.605469 Z M 413.613281 1061.605469 C 466.203125 1061.605469 509.230469 1104.632812 509.230469 1157.222656 C 509.230469 1209.808594 466.203125 1252.835938 413.613281 1252.835938 C 361.023438 1252.835938 317.996094 1209.808594 317.996094 1157.222656 C 317.996094 1104.632812 361.023438 1061.605469 413.613281 1061.605469 Z M -335.066406 1061.605469 C -282.480469 1061.605469 -239.453125 1104.632812 -239.453125 1157.222656 C -239.453125 1209.808594 -282.480469 1252.835938 -335.066406 1252.835938 C -387.65625 1252.835938 -430.683594 1209.808594 -430.683594 1157.222656 C -430.683594 1104.632812 -387.65625 1061.605469 -335.066406 1061.605469 Z M 1911.929688 1061.605469 C 1964.519531 1061.605469 2007.546875 1104.632812 2007.546875 1157.222656 C 2007.546875 1209.808594 1964.519531 1252.835938 1911.929688 1252.835938 C 1859.339844 1252.835938 1816.3125 1209.808594 1816.3125 1157.222656 C 1816.3125 1104.632812 1859.339844 1061.605469 1911.929688 1061.605469 Z M 1163.25 -704.402344 C 1215.835938 -704.402344 1258.867188 -661.375 1258.867188 -608.789062 C 1258.867188 -556.199219 1215.835938 -513.171875 1163.25 -513.171875 C 1110.660156 -513.171875 1067.632812 -556.199219 1067.632812 -608.789062 C 1067.632812 -661.375 1109.703125 -704.402344 1163.25 -704.402344 Z M 413.613281 -704.402344 C 466.203125 -704.402344 509.230469 -661.375 509.230469 -608.789062 C 509.230469 -556.199219 466.203125 -513.171875 413.613281 -513.171875 C 361.023438 -513.171875 317.996094 -556.199219 317.996094 -608.789062 C 317.996094 -661.375 361.023438 -704.402344 413.613281 -704.402344 Z M -335.066406 -704.402344 C -282.480469 -704.402344 -239.453125 -661.375 -239.453125 -608.789062 C -239.453125 -556.199219 -282.480469 -513.171875 -335.066406 -513.171875 C -387.65625 -513.171875 -430.683594 -556.199219 -430.683594 -608.789062 C -430.683594 -661.375 -387.65625 -704.402344 -335.066406 -704.402344 Z M 1911.929688 -704.402344 C 1964.519531 -704.402344 2007.546875 -661.375 2007.546875 -608.789062 C 2007.546875 -556.199219 1964.519531 -513.171875 1911.929688 -513.171875 C 1859.339844 -513.171875 1816.3125 -556.199219 1816.3125 -608.789062 C 1816.3125 -661.375 1859.339844 -704.402344 1911.929688 -704.402344 Z M 1163.25 1944.132812 C 1215.835938 1944.132812 1258.867188 1987.160156 1258.867188 2039.75 C 1258.867188 2092.335938 1215.835938 2135.363281 1163.25 2135.363281 C 1110.660156 2135.363281 1067.632812 2092.335938 1067.632812 2039.75 C 1067.632812 1987.160156 1109.703125 1944.132812 1163.25 1944.132812 Z M 413.613281 1944.132812 C 466.203125 1944.132812 509.230469 1987.160156 509.230469 2039.75 C 509.230469 2092.335938 466.203125 2135.363281 413.613281 2135.363281 C 361.023438 2135.363281 317.996094 2092.335938 317.996094 2039.75 C 317.996094 1987.160156 361.023438 1944.132812 413.613281 1944.132812 Z M -335.066406 1944.132812 C -282.480469 1944.132812 -239.453125 1987.160156 -239.453125 2039.75 C -239.453125 2092.335938 -282.480469 2135.363281 -335.066406 2135.363281 C -387.65625 2135.363281 -430.683594 2092.335938 -430.683594 2039.75 C -430.683594 1987.160156 -387.65625 1944.132812 -335.066406 1944.132812 Z M 1911.929688 1944.132812 C 1964.519531 1944.132812 2007.546875 1987.160156 2007.546875 2039.75 C 2007.546875 2092.335938 1964.519531 2135.363281 1911.929688 2135.363281 C 1859.339844 2135.363281 1816.3125 2092.335938 1816.3125 2039.75 C 1816.3125 1987.160156 1859.339844 1944.132812 1911.929688 1944.132812 Z M 1911.929688 1944.132812 " fill-opacity="1" fill-rule="nonzero"/></g></svg>