<svg xmlns="http://www.w3.org/2000/svg" xmlns:xlink="http://www.w3.org/1999/xlink" width="3072" zoomAndPan="magnify" viewBox="0 0 2304 2304.00001" height="3072" preserveAspectRatio="xMidYMid meet" version="1.0"><defs><clipPath id="id1"><path d="M 0.5 0 L 2303.5 0 L 2303.5 2303 L 0.5 2303 Z M 0.5 0 " clip-rule="nonzero"/></clipPath></defs><g clip-path="url(#id1)"><path fill="#ffd87c" d="M 1618.378906 482.800781 C 1683.820312 482.800781 1737.363281 536.34375 1737.363281 601.789062 C 1737.363281 667.230469 1683.820312 720.777344 1618.378906 720.777344 C 1552.9375 720.777344 1499.394531 667.230469 1499.394531 601.789062 C 1499.394531 536.34375 1551.746094 482.800781 1618.378906 482.800781 Z M 685.539062 482.800781 C 750.980469 482.800781 804.523438 536.34375 804.523438 601.789062 C 804.523438 667.230469 750.980469 720.777344 685.539062 720.777344 C 620.097656 720.777344 566.554688 667.230469 566.554688 601.789062 C 566.554688 536.34375 620.097656 482.800781 685.539062 482.800781 Z M -246.109375 482.800781 C -180.667969 482.800781 -127.125 536.34375 -127.125 601.789062 C -127.125 667.230469 -180.667969 720.777344 -246.109375 720.777344 C -311.550781 720.777344 -365.09375 667.230469 -365.09375 601.789062 C -365.09375 536.34375 -311.550781 482.800781 -246.109375 482.800781 Z M 2550.023438 482.800781 C 2615.464844 482.800781 2669.007812 536.34375 2669.007812 601.789062 C 2669.007812 667.230469 2615.464844 720.777344 2550.023438 720.777344 C 2484.582031 720.777344 2431.039062 667.230469 2431.039062 601.789062 C 2431.039062 536.34375 2484.582031 482.800781 2550.023438 482.800781 Z M 1618.378906 1582.253906 C 1683.820312 1582.253906 1737.363281 1635.800781 1737.363281 1701.246094 C 1737.363281 1766.6875 1683.820312 1820.234375 1618.378906 1820.234375 C 1552.9375 1820.234375 1499.394531 1766.6875 1499.394531 1701.246094 C 1499.394531 1635.800781 1551.746094 1582.253906 1618.378906 1582.253906 Z M 685.539062 1582.253906 C 750.980469 1582.253906 804.523438 1635.800781 804.523438 1701.246094 C 804.523438 1766.6875 750.980469 1820.234375 685.539062 1820.234375 C 620.097656 1820.234375 566.554688 1766.6875 566.554688 1701.246094 C 566.554688 1635.800781 620.097656 1582.253906 685.539062 1582.253906 Z M -246.109375 1582.253906 C -180.667969 1582.253906 -127.125 1635.800781 -127.125 1701.246094 C -127.125 1766.6875 -180.667969 1820.234375 -246.109375 1820.234375 C -311.550781 1820.234375 -365.09375 1766.6875 -365.09375 1701.246094 C -365.09375 1635.800781 -311.550781 1582.253906 -246.109375 1582.253906 Z M 2550.023438 1582.253906 C 2615.464844 1582.253906 2669.007812 1635.800781 2669.007812 1701.246094 C 2669.007812 1766.6875 2615.464844 1820.234375 2550.023438 1820.234375 C 2484.582031 1820.234375 2431.039062 1766.6875 2431.039062 1701.246094 C 2431.039062 1635.800781 2484.582031 1582.253906 2550.023438 1582.253906 Z M 1618.378906 -615.464844 C 1683.820312 -615.464844 1737.363281 -561.921875 1737.363281 -496.476562 C 1737.363281 -431.035156 1683.820312 -377.488281 1618.378906 -377.488281 C 1552.9375 -377.488281 1499.394531 -431.035156 1499.394531 -496.476562 C 1499.394531 -561.921875 1551.746094 -615.464844 1618.378906 -615.464844 Z M 685.539062 -615.464844 C 750.980469 -615.464844 804.523438 -561.921875 804.523438 -496.476562 C 804.523438 -431.035156 750.980469 -377.488281 685.539062 -377.488281 C 620.097656 -377.488281 566.554688 -431.035156 566.554688 -496.476562 C 566.554688 -561.921875 620.097656 -615.464844 685.539062 -615.464844 Z M -246.109375 -615.464844 C -180.667969 -615.464844 -127.125 -561.921875 -127.125 -496.476562 C -127.125 -431.035156 -180.667969 -377.488281 -246.109375 -377.488281 C -311.550781 -377.488281 -365.09375 -431.035156 -365.09375 -496.476562 C -365.09375 -561.921875 -311.550781 -615.464844 -246.109375 -615.464844 Z M 2550.023438 -615.464844 C 2615.464844 -615.464844 2669.007812 -561.921875 2669.007812 -496.476562 C 2669.007812 -431.035156 2615.464844 -377.488281 2550.023438 -377.488281 C 2484.582031 -377.488281 2431.039062 -431.035156 2431.039062 -496.476562 C 2431.039062 -561.921875 2484.582031 -615.464844 2550.023438 -615.464844 Z M 1618.378906 2680.523438 C 1683.820312 2680.523438 1737.363281 2734.066406 1737.363281 2799.511719 C 1737.363281 2864.953125 1683.820312 2918.5 1618.378906 2918.5 C 1552.9375 2918.5 1499.394531 2864.953125 1499.394531 2799.511719 C 1499.394531 2734.066406 1551.746094 2680.523438 1618.378906 2680.523438 Z M 685.539062 2680.523438 C 750.980469 2680.523438 804.523438 2734.066406 804.523438 2799.511719 C 804.523438 2864.953125 750.980469 2918.5 685.539062 2918.5 C 620.097656 2918.5 566.554688 2864.953125 566.554688 2799.511719 C 566.554688 2734.066406 620.097656 2680.523438 685.539062 2680.523438 Z M -246.109375 2680.523438 C -180.667969 2680.523438 -127.125 2734.066406 -127.125 2799.511719 C -127.125 2864.953125 -180.667969 2918.5 -246.109375 2918.5 C -311.550781 2918.5 -365.09375 2864.953125 -365.09375 2799.511719 C -365.09375 2734.066406 -311.550781 2680.523438 -246.109375 2680.523438 Z M 2550.023438 2680.523438 C 2615.464844 2680.523438 2669.007812 2734.066406 2669.007812 2799.511719 C 2669.007812 2864.953125 2615.464844 2918.5 2550.023438 2918.5 C 2484.582031 2918.5 2431.039062 2864.953125 2431.039062 2799.511719 C 2431.039062 2734.066406 2484.582031 2680.523438 2550.023438 2680.523438 Z M 2550.023438 2680.523438 " fill-opacity="1" fill-rule="nonzero"/></g></svg>