<?xml version="1.0" encoding="UTF-8"?><svg id="content" xmlns="http://www.w3.org/2000/svg" viewBox="0 0 575.41 238.92"><defs><style>.cls-1{fill:#eee5d3;}.cls-2{fill:#82d0f2;}.cls-3{fill:#f29383;}.cls-4{fill:#15100c;}.cls-5{fill:#92c0c0;}.cls-6{fill:#16110d;}.cls-7{fill:#3b325b;}.cls-8{fill:#91bfbf;}.cls-9{fill:#f9da93;}.cls-10{fill:#f3ba26;}</style></defs><rect id="background" class="cls-9" y="0" width="575.41" height="241.49"/><g id="illustration"><g id="illustration-2"><g><g><g><polygon class="cls-2" points="443.4 231.27 393.37 206.48 389.99 153.31 440.01 178.1 443.4 231.27"/><polygon class="cls-2" points="480.91 92.73 389.97 153.24 440.01 178.04 530.95 117.53 480.91 92.73"/><path class="cls-6" d="M389.95,152.92l-.29,.28,3.36,52.75,.05,.73,.24,3.74,6.71,3.32,2.96-2.16,32.5,16.1,1.68,4.45,6.18,3.06,.63-.11-.21-3.3-.05-.73-3.38-53.17-49.73-24.66-.64-.32Zm9.73,59.95l-5.76-2.86-.19-3.01,1.52,.75,5.4,2.68-.97,2.43Zm43.61,21.61l-5.63-2.79-1.35-3.58,6.79,3.36,.19,3.01Zm-.24-3.74l-.4-.2-9.36-4.64-.12-1.82-6.43-3.19,.12,1.82-16.98-8.42-.12-1.82-6.43-3.19,.12,1.82-9.76-4.84-3.34-52.44,49.37,24.46,3.34,52.44Z"/><path class="cls-1" d="M480.98,94.26l-89.83,59.8,49.41,24.44,89.82-59.77-49.39-24.47Zm-41.24,79.45l-42.81-20.74,84.21-56.07,42.67,21.14-84.07,55.67Z"/><path class="cls-7" d="M530.92,117.15l-91.09,60.61-.15,.1,3.38,53.17,.05,.73,.22,3.45,.27,.13,6.11-4.07,1.1-4.63,74.75-49.74,3.11,1.83,6.23-4.15-.24-3.74-.05-.73-3.36-52.79-.33-.17Zm-2.96,60.33l-1.79-.98,.91-.61,.08,.15,.8,1.44Z"/><g><polygon class="cls-1" points="408.34 145.95 411.04 144.14 452.54 164.46 449.86 166.25 408.34 145.95"/><polygon class="cls-1" points="401.62 150.51 404.32 148.71 445.82 169.03 443.14 170.82 401.62 150.51"/><polygon class="cls-1" points="415.39 141.31 418.09 139.51 459.59 159.83 456.91 161.62 415.39 141.31"/><polygon class="cls-1" points="422.28 136.57 424.98 134.77 466.48 155.09 463.79 156.88 422.28 136.57"/><polygon class="cls-1" points="429.04 131.96 431.74 130.16 473.24 150.47 470.56 152.26 429.04 131.96"/><polygon class="cls-1" points="436.09 127.32 438.79 125.52 480.3 145.84 477.61 147.63 436.09 127.32"/><polygon class="cls-1" points="442.98 122.59 445.68 120.78 487.18 141.1 484.5 142.89 442.98 122.59"/><polygon class="cls-1" points="450.08 118.07 452.78 116.27 494.29 136.59 491.6 138.38 450.08 118.07"/><polygon class="cls-1" points="456.97 113.34 459.67 111.53 501.18 131.85 498.49 133.64 456.97 113.34"/><polygon class="cls-1" points="464.19 108.69 466.89 106.89 508.39 127.21 505.7 129 464.19 108.69"/><polygon class="cls-1" points="471.24 104.06 473.94 102.25 515.44 122.57 512.75 124.36 471.24 104.06"/><polygon class="cls-1" points="478.13 99.32 480.83 97.52 522.33 117.83 519.64 119.62 478.13 99.32"/></g><path class="cls-6" d="M440.04,178.41l-.16-.08-50.18-24.86,.25-.54,90.93-60.56,.16,.08,50.2,24.88,.02,.37-91.24,60.71Zm-49.43-25.21l49.39,24.47,90.33-60.1-49.39-24.47-90.33,60.1Z"/><path class="cls-6" d="M523.8,118.04l-.49-.24h0l-42.17-20.9-.17-.08-14.05,9.38-.06-.03-3.92,2.62,.06,.03-3.08,2.06-.12-.06-3.92,2.62,.13,.06-3.07,2.05-.1-.05-3.92,2.62,.1,.05-16.97,11.34h-.02l-3.92,2.61h.02l-31.19,20.85,42.17,20.58,.58,.28h0l.16,.08,83.96-55.87Zm-123.68,35.75l1.78-3.05,40.75,20.54-2.86,1.91-39.67-19.39Zm31.96-23.55l41.62,20.37-2.69,1.79-41.63-20.36,2.7-1.8Zm20.89-13.96l41.66,20.4-2.69,1.79-41.67-20.38,2.7-1.8Zm2.28,.36l1.4-2.81h.01l41.69,20.38-3.1,2.06-.07-.03,.02-.04-39.95-19.56Zm4.72-5.03l41.68,20.4-2.69,1.79-41.69-20.39,2.7-1.8Zm2.35,.39l1.4-2.82,41.65,20.37-3.1,2.06h-.01l.02-.05-39.95-19.56Zm4.65-5.07l41.7,20.41-2.69,1.79-41.71-20.4,2.7-1.8Zm48.69,15.76l-2.69,1.79-41.69-20.39,2.7-1.8,41.68,20.4Zm-39.2-19.92l1.4-2.82,41.49,20.29-3.06,2.03-39.83-19.5Zm1.89-3.29l2.7-1.8,41.47,20.45-2.56,1.71-41.61-20.35Zm34,25.41l-3.06,2.03-39.91-19.54,1.4-2.82,41.57,20.33Zm-31.64,21.06l-2.69,1.79-41.6-20.34,2.7-1.8,41.59,20.36Zm-39.11-19.88l1.4-2.82,41.4,20.25-3.06,2.03-39.75-19.46Zm1.89-3.29l2.7-1.8,1.25,.61-.02,.04,40.24,19.7-2.65,1.76-41.52-20.31Zm4.8-1.48l1.38-2.79,41.66,20.37-3.02,2.01-40.02-19.59Zm29.12,26.85l-3.06,2.03-39.82-19.49,1.4-2.82,41.48,20.29Zm-71.26,1.46l39.63,19.59-2.52,1.68-40.85-20.59,2.19-1.44,1.55,.76Zm.62-.41l1.29-2.69,41.39,20.24-2.89,1.92-39.79-19.48Zm1.78-3.16l2.7-1.8,41.5,20.32-2.69,1.79-41.51-20.3Zm5.18-1.32l1.4-2.82,41.32,20.21-3.06,2.03-39.66-19.42Zm1.89-3.29l2.7-1.8,41.46,20.25-2.73,1.81-41.44-20.27Zm4.94-1.46l1.4-2.82,41.49,20.29-3.06,2.03-39.83-19.5Zm1.89-3.29l2.7-1.8,1.47,.72v.02l40.1,19.64-2.67,1.77-41.61-20.35Zm5.02-1.37l1.39-2.8,41.53,20.31-3.03,2.02-39.89-19.53Z"/><g><polygon class="cls-8" points="462.2 124.13 461.98 120.71 478.81 129.16 478.7 132.35 462.2 124.13"/><g><polygon class="cls-3" points="493.81 118.69 478.48 128.89 461.98 120.71 477.31 110.51 493.81 118.69"/><polygon class="cls-10" points="488.47 119.03 478.28 125.8 467.32 120.37 477.5 113.59 488.47 119.03"/><path class="cls-1" d="M477.38,111.62l-14.4,9.58,16.4,8.24,14.5-9.65-16.5-8.18Zm.9,14.18l-9.37-4.98,8.61-7.01,10.78,5.13-10.02,6.87Z"/><path class="cls-6" d="M494.11,118.48h0l-.33-.16-16.5-8.18-15.33,10.2h0l-.31,.2h0l.02,.37,.22,3.51,16.5,8.19,.33,.16h0l.31-.2,15.34-10.09-.23-3.63-.02-.37h0Zm-15.76,13.4l-15.84-7.86-.18-2.78,15.84,7.85,.18,2.79Zm.1-3.36l-15.84-7.85,14.72-9.79,15.84,7.85-14.72,9.79Z"/><path class="cls-6" d="M488.64,119.29l.46-.31-11.29-5.59-.33-.16-10.8,7.18,11.62,5.76,9.31-6.2,1.03-.68h0Zm-10.78-5.17l9.97,4.94-1.59,1.06-8.25-4-.13-2Zm-7.53,7.38l7.37-4.81,7.92,3.84-7.37,4.9-7.93-3.93Z"/></g></g><path class="cls-6" d="M438.71,224.22l-41.72-20.68-2.76-43.42,41.72,20.68,2.76,43.42Zm-41.11-21.09l40.4,20.03-2.67-41.96-40.4-20.03,2.67,41.96Z"/><rect class="cls-6" x="415.87" y="170.64" width=".64" height="42.78" transform="translate(-11.35 26.81) rotate(-3.64)"/><path class="cls-4" d="M410.74,197.54c-.6,.04-1.2-.06-1.68-.3l-9.37-4.64c-.57-.29-.92-.75-.96-1.27-.03-.52,.25-1.02,.79-1.38l1.28-.85c.29-.19,.69-.12,.88,.18h0c.19,.29,.12,.69-.18,.88l-1.28,.85c-.19,.12-.22,.22-.22,.24,0,.01,.05,.11,.25,.21l9.37,4.64c.58,.29,1.5,.23,2.04-.13l1.28-.85c.29-.19,.69-.12,.88,.18h0c.19,.29,.12,.69-.18,.88l-1.28,.85c-.45,.3-1.03,.47-1.63,.51Z"/><path class="cls-4" d="M431.41,207.15c-.6,.04-1.2-.06-1.68-.3l-9.37-4.64c-.57-.28-.92-.75-.96-1.27-.03-.52,.25-1.02,.79-1.38l1.28-.85c.29-.19,.69-.12,.88,.18h0c.19,.29,.12,.69-.18,.88l-1.28,.85c-.19,.12-.22,.22-.22,.24,0,.01,.05,.11,.25,.21l9.37,4.64c.58,.29,1.5,.23,2.04-.13l1.28-.85c.29-.19,.69-.12,.88,.18h0c.19,.29,.12,.69-.18,.88l-1.28,.85c-.45,.3-1.03,.47-1.63,.51Z"/><path class="cls-10" d="M447.4,224.46l-2.9-45.51,.11-.07,83.06-55.04,2.9,45.51-.11,.07-83.06,55.04Zm-2.42-45.27l2.83,44.44,82.28-54.52-2.83-44.44-82.28,54.52Z"/></g><g><polygon class="cls-5" points="393.64 155.06 389.88 153.24 389.53 148.66 393.29 150.48 393.64 155.06"/><g><polygon class="cls-5" points="389.53 148.66 392.99 146.4 396.74 148.13 393.29 150.48 389.53 148.66"/><polygon class="cls-1" points="389.61 149.8 393.07 147.54 396.83 149.27 393.37 151.62 389.61 149.8"/><path class="cls-4" d="M396.96,147.98l-3.99-1.84-3.68,2.4,.37,4.85,4,1.93,3.67-2.5-.37-4.85Zm-3.96-1.31l3.26,1.5-3,2.04-3.27-1.58,3.01-1.96Zm.37,8.01l-3.28-1.58-.31-4.04,3.28,1.58,.31,4.04Z"/></g></g><g><polygon class="cls-5" points="439.75 177.66 435.99 175.84 435.64 171.26 439.4 173.08 439.75 177.66"/><g><polygon class="cls-5" points="435.64 171.26 439.1 169 442.85 170.73 439.4 173.08 435.64 171.26"/><polygon class="cls-1" points="435.72 172.4 439.18 170.14 442.94 171.87 439.48 174.22 435.72 172.4"/><path class="cls-4" d="M443.07,170.58l-3.99-1.84-3.68,2.4,.37,4.85,4,1.93,3.67-2.5-.37-4.85Zm-3.96-1.31l3.26,1.5-3,2.04-3.27-1.58,3.01-1.96Zm.37,8.01l-3.28-1.58-.31-4.04,3.28,1.58,.31,4.04Z"/></g></g><g><polygon class="cls-5" points="481.34 96.9 477.58 95.08 477.23 90.5 480.99 92.32 481.34 96.9"/><g><polygon class="cls-5" points="477.23 90.5 480.69 88.25 484.44 89.97 480.99 92.32 477.23 90.5"/><polygon class="cls-1" points="477.31 91.64 480.77 89.38 484.52 91.11 481.07 93.46 477.31 91.64"/><path class="cls-4" d="M484.66,89.82l-3.99-1.84-3.68,2.4,.37,4.85,4,1.93,3.67-2.5-.37-4.85Zm-3.96-1.31l3.26,1.5-3,2.04-3.27-1.58,3.01-1.96Zm.37,8.01l-3.28-1.58-.31-4.04,3.28,1.58,.31,4.04Z"/></g></g><g><polygon class="cls-5" points="527.45 119.79 523.69 117.98 523.34 113.4 527.1 115.22 527.45 119.79"/><g><polygon class="cls-5" points="523.34 113.4 526.8 111.14 530.55 112.87 527.1 115.22 523.34 113.4"/><polygon class="cls-1" points="523.42 114.54 526.88 112.28 530.63 114.01 527.18 116.35 523.42 114.54"/><path class="cls-4" d="M530.77,112.72l-3.99-1.84-3.68,2.4,.37,4.85,4,1.93,3.67-2.5-.37-4.85Zm-3.96-1.31l3.26,1.5-3,2.04-3.27-1.58,3.01-1.96Zm.37,8.01l-3.28-1.58-.31-4.04,3.28,1.58,.31,4.04Z"/></g></g></g><g><g><g><g><path class="cls-6" d="M449.9,86.18l-5.92,3.38,5.84,15.24,5.7-3.26c.85-.39,1.34-1.41,1.34-2.8v-8.54l-6.96-4.02Z"/><g><path class="cls-5" d="M447.76,104.41l-.47-.27c-1.74-1-3.14-3.69-3.14-6.01v-8.42l6.76,3.9v8.42c0,2.32-1.41,3.38-3.14,2.38Z"/><path class="cls-6" d="M449.01,104.99c-.43,0-.89-.14-1.35-.4l-.47-.27c-1.79-1.03-3.25-3.81-3.25-6.19v-8.55l.21-.12,6.97,4.03v8.54c0,1.29-.43,2.29-1.19,2.72-.28,.16-.58,.24-.91,.24Zm-1.15-.76c.69,.4,1.34,.46,1.85,.17,.62-.36,.98-1.22,.98-2.36v-8.3l-6.34-3.66v8.06c0,2.25,1.36,4.86,3.04,5.83l.47,.27Z"/></g></g><g><polygon class="cls-5" points="450.91 93.61 456.66 90.32 449.9 86.42 444.15 89.7 450.91 93.61"/><polygon class="cls-1" points="450.7 94.61 450.7 93.49 455.53 90.84 449.71 87.48 444.36 90.54 444.35 91 450.7 94.61"/><path class="cls-6" d="M450.9,93.85l-6.96-4.02v-.25l5.96-3.4,6.96,4.02v.24l-5.96,3.4Zm-6.34-4.14l6.34,3.66,5.33-3.04-6.34-3.66-5.33,3.04Z"/></g><g><g><g><path class="cls-5" d="M461.57,46.14l-12.99-7.5c-.35-.2-.67-.23-.91-.13h0l-2.7,1.62,3.64,5.53,.8,3.39c.29,1.25,1.16,2.48,2.14,3.05l2.78,1.6,3.02,4.25,2.73-1.64h0c.28-.15,.49-.41,.61-.79l2.21-6.55c.26-.87-.4-2.28-1.32-2.81Z"/><path class="cls-1" d="M461.9,47.33l-12.99-7.5c-.35-.2-.67-.23-.91-.13h0l-2.7,1.62,3.64,5.53,.8,3.39c.29,1.25,1.16,2.48,2.14,3.04l2.78,1.6,1.66,2.1,2.63-1.22,.1-.43c.28-.14,.49-.41,.61-.79l2.93-4.03c.26-.87,.23-2.66-.69-3.19Z"/><path class="cls-6" d="M457.29,58.21l-3.11-4.37-2.74-1.58c-1.03-.59-1.93-1.87-2.24-3.18l-.79-3.35-3.74-5.68,2.99-1.79h.02c.29-.08,.64-.02,1,.19l12.99,7.5c1.01,.58,1.71,2.09,1.42,3.05l-2.21,6.56c-.12,.39-.34,.69-.65,.87l-.05,.03-2.89,1.74Zm-12.03-18.02l3.55,5.41,.8,3.39c.28,1.18,1.12,2.38,2.04,2.91l2.84,1.66,2.91,4.09,2.57-1.55c.24-.12,.41-.35,.5-.66l2.21-6.56c.23-.76-.4-2.09-1.23-2.57l-12.99-7.5c-.27-.16-.53-.2-.71-.12l-2.5,1.49Z"/></g><path class="cls-2" d="M455.74,57.79l-6.98-4.03c-.98-.56-1.84-1.8-2.14-3.04l-2.15-9.09c-.28-1.19,.38-1.85,1.32-1.31l12.99,7.5c.92,.53,1.59,1.94,1.32,2.81l-2.21,6.55c-.28,.94-1.16,1.19-2.15,.61Z"/></g><path class="cls-6" d="M462.94,48.96l-.13-1.35-2.67,1.56c-.26-.63-.71-1.22-1.25-1.54l-12.99-7.5c-.47-.27-.94-.29-1.27-.04-.39,.29-.52,.88-.36,1.59l2.15,9.09c.31,1.31,1.21,2.58,2.24,3.18l6.98,4.03c.38,.22,.76,.33,1.11,.33,.18,0,.36-.03,.52-.1,.29-.11,.52-.33,.68-.61l2.46-1.53,2.53-7.11Zm-5.82,8.87c-.34,.14-.79,.06-1.27-.21l-6.98-4.03c-.92-.53-1.76-1.73-2.04-2.91l-2.15-9.09c-.12-.53-.05-.97,.2-1.16,.08-.06,.19-.09,.3-.09,.15,0,.32,.05,.51,.16l12.99,7.5c.83,.48,1.46,1.8,1.23,2.57l-2.21,6.56c-.11,.35-.31,.6-.58,.7Z"/><g><g><path class="cls-5" d="M452.55,75.02c-.41-.56-.96-.77-1.26-.49-.22,.21-.48,.37-.77,.48-.33,.13-.85-.2-1.13-.71l-.22-.41c-.38-.69-.38-1.41,0-1.67l.5-.35c.73-.51,1.13-1.45,1.13-2.66v-2.76l-1.84-1.06-1.33,.87,.53,3.5-.35,.25c-.74,.51-.93,1.7-.59,3.03l-.34,.75,1.94,3.13,2.23,.93,1.01-.69c.25-.13,.49-.29,.7-.48,.32-.3,.24-1.05-.2-1.65Z"/><path class="cls-6" d="M451.06,78.07l-2.4-1-2.03-3.28,.36-.78c-.35-1.42-.09-2.64,.69-3.18l.25-.17-.53-3.5,1.55-1.02,2.05,1.19v2.88c0,1.28-.43,2.28-1.22,2.83l-.5,.35c-.24,.17-.29,.75,.07,1.4l.22,.41c.24,.45,.67,.7,.87,.62,.27-.1,.51-.25,.71-.44,.14-.13,.33-.2,.54-.17,.35,.03,.73,.29,1.03,.7h0c.5,.7,.58,1.54,.17,1.92-.2,.19-.44,.35-.75,.51l-1.08,.74Zm-2.11-1.33l2.06,.86,.92-.63c.3-.16,.5-.3,.68-.46,.22-.2,.17-.83-.22-1.37-.22-.3-.5-.51-.73-.53-.09-.01-.16,.01-.22,.06-.24,.23-.52,.4-.84,.53-.43,.17-1.05-.2-1.38-.81l-.22-.41c-.44-.8-.41-1.61,.06-1.94l.5-.35c.67-.47,1.04-1.35,1.04-2.49v-2.64l-1.62-.94-1.12,.73,.53,3.49-.46,.32c-.64,.45-.84,1.52-.51,2.81l.02,.07-.33,.71,1.85,2.98Z"/></g><g><path class="cls-5" d="M449.18,75.88c-.33,.13-.85-.2-1.13-.71l-.22-.41c-.38-.69-.38-1.41,0-1.67l.5-.35c.73-.51,1.13-1.45,1.13-2.66v-2.76l-1.84-1.06v2.76c0,.68-.23,1.22-.66,1.51l-.5,.35c-1.01,.7-1,2.67,.01,4.54l.22,.41c.51,.93,1.22,1.67,1.94,2.09,.61,.35,1.22,.47,1.72,.28,.4-.15,.75-.37,1.05-.65,.32-.3,.24-1.05-.2-1.65h0c-.41-.56-.96-.77-1.26-.49-.22,.21-.48,.37-.77,.48Z"/><path class="cls-6" d="M449.85,78.49c-.41,0-.86-.13-1.31-.4-.78-.45-1.52-1.24-2.02-2.17l-.22-.41c-1.08-1.97-1.05-4.04,.05-4.81l.5-.35c.37-.26,.57-.73,.57-1.34v-3.12l2.26,1.3v2.88c0,1.28-.43,2.28-1.22,2.83l-.5,.35c-.24,.17-.29,.75,.07,1.4l.22,.41c.24,.45,.67,.7,.87,.62h0c.27-.1,.5-.25,.71-.44,.14-.13,.33-.2,.54-.17,.35,.03,.73,.29,1.03,.7,.5,.7,.58,1.54,.17,1.92-.32,.3-.7,.53-1.11,.7-.18,.07-.38,.11-.58,.11Zm-2.03-11.87v2.4c0,.75-.27,1.35-.75,1.68l-.5,.35c-.91,.64-.88,2.51,.08,4.27l.22,.41c.47,.86,1.15,1.6,1.87,2.01,.58,.33,1.12,.43,1.54,.26,.37-.14,.7-.35,.98-.61,.22-.2,.17-.83-.22-1.37-.22-.3-.5-.51-.73-.53-.09-.01-.16,.01-.22,.06-.24,.23-.52,.4-.84,.53h0c-.43,.17-1.05-.2-1.38-.81l-.22-.41c-.44-.8-.41-1.61,.06-1.94l.5-.35c.67-.47,1.04-1.35,1.04-2.49v-2.64l-1.42-.82Z"/></g></g><g><path class="cls-6" d="M452.67,74.9c-.29-.4-.68-.66-1.03-.7-.21-.02-.4,.04-.54,.17-.2,.19-.44,.34-.71,.44-.2,.08-.63-.18-.87-.62l-.22-.41c-.35-.65-.31-1.23-.07-1.4l.5-.35c.79-.55,1.22-1.56,1.22-2.83v-2.88l-2.05-1.19-1.55,1.02,.53,3.5-.25,.17c-.78,.54-1.04,1.75-.69,3.18l-.36,.78,2.03,3.28,2.4,1,1.08-.74c.31-.16,.54-.33,.75-.51,.41-.38,.33-1.22-.17-1.92Zm-3.75-9.27l1.62,.94v1.19l-1.13,.7-1.58-1.89-.03-.21,1.12-.73Z"/><g><path class="cls-5" d="M449.13,75.88c-.33,.13-.85-.2-1.13-.71l-.22-.41c-.38-.69-.38-1.41,0-1.67l.5-.35c.73-.51,1.13-1.45,1.13-2.66v-2.76l-1.84-1.06v2.76c0,.68-.23,1.22-.66,1.51l-.5,.35c-1.01,.7-1,2.67,.01,4.54l.22,.41c.51,.93,1.22,1.67,1.94,2.09,.61,.35,1.22,.47,1.72,.28,.4-.15,.75-.37,1.05-.65,.32-.3,.24-1.05-.2-1.65h0c-.41-.56-.96-.77-1.26-.49-.22,.21-.48,.37-.77,.48Z"/><path class="cls-6" d="M449.8,78.49c-.41,0-.86-.13-1.31-.4-.78-.45-1.52-1.24-2.02-2.17l-.22-.41c-1.08-1.97-1.05-4.04,.05-4.81l.5-.35c.37-.26,.57-.73,.57-1.34v-3.12l2.26,1.3v2.88c0,1.28-.43,2.28-1.22,2.83l-.5,.35c-.24,.17-.29,.75,.07,1.4l.22,.41c.24,.45,.67,.7,.87,.62h0c.27-.1,.5-.25,.71-.44,.14-.13,.33-.2,.54-.17,.35,.03,.73,.29,1.03,.7,.5,.7,.58,1.54,.17,1.92-.32,.3-.7,.53-1.11,.7-.18,.07-.38,.11-.58,.11Zm-2.03-11.87v2.4c0,.75-.26,1.35-.75,1.68l-.5,.35c-.91,.64-.88,2.51,.08,4.27l.22,.41c.47,.86,1.15,1.6,1.87,2.01,.58,.33,1.12,.43,1.54,.26,.37-.14,.7-.35,.98-.61,.22-.2,.17-.83-.22-1.37-.22-.3-.5-.51-.73-.53-.09-.01-.16,.01-.22,.06-.24,.23-.52,.4-.84,.53h0c-.43,.17-1.05-.2-1.38-.81l-.22-.41c-.44-.8-.41-1.61,.06-1.94l.5-.35c.67-.47,1.04-1.35,1.04-2.49v-2.64l-1.42-.82Z"/></g></g><g><path class="cls-6" d="M448.48,53.46l-4.81,2.75,4.73,12.11,4.56-2.6c.69-.32,1.09-1.14,1.09-2.25v-6.79l-5.56-3.21Z"/><g><path class="cls-5" d="M446.78,67.94l-.37-.21c-1.38-.79-2.49-2.92-2.49-4.76v-6.67l5.35,3.09v6.67c0,1.83-1.12,2.68-2.49,1.88Z"/><path class="cls-6" d="M447.77,68.45c-.35,0-.72-.11-1.09-.33l-.37-.21c-1.43-.83-2.59-3.04-2.59-4.94v-7.03l5.77,3.33v6.79c0,1.04-.35,1.84-.96,2.19-.23,.13-.48,.2-.74,.2Zm-3.64-11.79v6.31c0,1.77,1.07,3.82,2.39,4.58l.37,.21c.53,.31,1.04,.35,1.42,.13,.48-.28,.76-.95,.76-1.83v-6.55l-4.94-2.85Z"/></g></g><polygon class="cls-6" points="443.64 45.18 443.09 45.18 443 -2.86 443.55 -2.86 443.64 45.18"/><g><g><path class="cls-5" d="M449.32,41.95c-1.71-.99-3.26-1.11-4.41-.51h0s-.4,.24-.57,.38l-1.28,.86,.38,.33c-.35,.71-.54,1.61-.54,2.66,0,4.1,2.88,9.09,6.43,11.14,3.55,2.05,6.43,.39,6.43-3.71s-2.88-9.09-6.43-11.14Z"/><path class="cls-1" d="M446.11,54.85l8.57-5.09c-1.07-3.02-3.23-5.91-5.72-7.35-1.71-.99-3.26-1.11-4.41-.51h0s-.4,.24-.57,.38l-1.28,.86,.38,.33c-.35,.71-.54,1.61-.54,2.66,0,2.92,1.46,6.29,3.59,8.73Z"/><path class="cls-6" d="M452.2,57.89c-.92,0-1.93-.3-2.98-.91-3.6-2.08-6.54-7.16-6.54-11.32,0-1,.17-1.87,.5-2.61l-.46-.4,1.5-1.01c.16-.13,.56-.38,.58-.39l.09-.06h.02c1.26-.59,2.85-.39,4.52,.57,3.6,2.08,6.54,7.16,6.54,11.32,0,2.06-.71,3.6-1.99,4.34-.53,.31-1.13,.46-1.78,.46Zm-8.8-15.2l.29,.26-.07,.14c-.35,.71-.52,1.58-.52,2.57,0,4.03,2.84,8.95,6.33,10.96,1.65,.95,3.19,1.11,4.34,.45,1.15-.66,1.78-2.08,1.78-3.98,0-4.03-2.84-8.95-6.33-10.96-1.58-.91-3.08-1.09-4.22-.51l-.08,.04c-.14,.09-.35,.22-.45,.31l-1.07,.72Z"/></g><g><g><path class="cls-8" d="M454.08,54.23c0,4.1-2.88,5.76-6.43,3.71-3.55-2.05-6.43-7.04-6.43-11.14s2.88-5.76,6.43-3.71c3.55,2.05,6.43,7.04,6.43,11.14Z"/><path class="cls-6" d="M450.52,59.03c-.92,0-1.93-.3-2.98-.91-3.6-2.08-6.54-7.16-6.54-11.32,0-2.06,.71-3.6,1.99-4.34,1.28-.74,2.97-.58,4.76,.45,3.6,2.08,6.54,7.16,6.54,11.32,0,2.06-.71,3.6-1.99,4.34-.53,.31-1.13,.46-1.78,.46Zm-5.74-16.61c-.58,0-1.11,.13-1.57,.4-1.15,.66-1.78,2.08-1.78,3.98,0,4.03,2.84,8.95,6.33,10.96,1.65,.95,3.19,1.11,4.34,.45,1.15-.66,1.78-2.08,1.78-3.98,0-4.03-2.84-8.95-6.33-10.96-.98-.57-1.92-.85-2.77-.85Z"/></g><path class="cls-6" d="M449,54.63c-.45,0-.94-.15-1.45-.44-1.72-.99-3.13-3.42-3.13-5.41,0-1.01,.35-1.77,.99-2.14,.64-.37,1.47-.29,2.35,.21,1.72,1,3.13,3.42,3.13,5.41,0,1.01-.35,1.77-.99,2.14-.27,.15-.57,.23-.89,.23Zm-2.7-7.81c-.25,0-.48,.06-.68,.17-.5,.29-.78,.92-.78,1.78,0,1.86,1.31,4.13,2.92,5.05,.74,.43,1.42,.5,1.93,.21,.5-.29,.78-.92,.78-1.78,0-1.86-1.31-4.12-2.92-5.05-.44-.26-.87-.39-1.24-.39Z"/><path class="cls-1" d="M450.01,52.25c0,1.5-1.06,2.11-2.36,1.36-1.3-.75-2.36-2.58-2.36-4.09s1.06-2.11,2.36-1.36c1.3,.75,2.36,2.58,2.36,4.09Z"/></g></g><path class="cls-6" d="M452.57,58.49l-.32-.45,1.34-.94c1-.7,1.12-3.28,1.08-4.22l-.09-54.44h.55l.09,54.43c0,.14,.13,3.66-1.32,4.68l-1.34,.94Z"/><g><g><path class="cls-5" d="M451.81,52.12l-12.99-7.5c-.35-.2-.67-.23-.91-.13h0l-2.7,1.62,3.64,5.53,.8,3.39c.3,1.25,1.16,2.48,2.14,3.04l2.78,1.6,3.02,4.25,2.73-1.64h0c.28-.15,.49-.41,.61-.79l2.21-6.55c.26-.87-.4-2.28-1.32-2.81Z"/><path class="cls-1" d="M451.86,53.34l-12.99-7.5c-.35-.2-.67-.23-.91-.13h0l-2.7,1.62,3.64,5.53,.8,3.39c.29,1.25,1.16,2.48,2.14,3.04l2.78,1.6,2.38,1.3,2.73-1.64h0c.28-.14,.5-.41,.61-.79l2.57-3.61c.26-.87-.11-2.27-1.03-2.8Z"/><path class="cls-6" d="M447.53,64.2l-3.11-4.37-2.74-1.58c-1.03-.59-1.93-1.87-2.24-3.18l-.79-3.35-3.74-5.68,2.99-1.79h.02c.29-.08,.64-.02,1,.19l12.99,7.5c1.01,.58,1.71,2.09,1.42,3.05l-2.21,6.56c-.12,.39-.34,.69-.65,.87l-.05,.03-2.89,1.74Zm-12.03-18.02l3.55,5.41,.8,3.39c.28,1.18,1.12,2.38,2.04,2.91l2.84,1.66,2.91,4.09,2.57-1.55c.24-.13,.41-.35,.5-.66l2.21-6.56c.23-.76-.4-2.09-1.23-2.57l-12.99-7.5c-.27-.16-.53-.2-.71-.12l-2.5,1.49Z"/></g><g><path class="cls-2" d="M445.98,63.78l-6.98-4.03c-.98-.57-1.84-1.8-2.14-3.05l-2.15-9.09c-.28-1.19,.38-1.85,1.32-1.31l12.99,7.5c.92,.53,1.59,1.94,1.32,2.81l-2.21,6.55c-.28,.94-1.16,1.19-2.15,.61Z"/><path class="cls-2" d="M438.16,57.93l1.26-1.27-1.26,1.27Z"/><path class="cls-2" d="M445.63,62.24l1.26-1.27-1.26,1.27Z"/></g></g><g><path class="cls-5" d="M452.53,73.82l.58-.75-1.33-.62s-.01-.01-.02-.01c-.02-.01-.23-.09-.23-.09-.48-.17-1.07-.08-1.7,.28-1.5,.87-2.71,2.98-2.71,4.71v14.14l1.53,.83,.72-14.19,.63-2.91,.96-.99c.16,.17,.25,.43,.25,.77v14.02l1.53,.68,.41-6.76,.3-8.32-.89-.4c0-.14-.02-.26-.03-.38Z"/><path class="cls-1" d="M452.85,74.49l.58-.75-1.33-.62s-.01-.01-.02-.01c-.02-.01-.23-.09-.23-.09-.48-.17-1.07-.08-1.7,.28-1.5,.87-2.71,2.98-2.71,4.71v.85l1.64,.83,.61-.9,.63-2.91,.96-.99c.16,.17,.25,.43,.25,.77l.11,.73,1.53,.68,.3,6.53,.3-8.32-.89-.4c0-.14-.02-.26-.03-.38Z"/><path class="cls-6" d="M448.85,92.65l-1.93-1.1v-14.2c0-1.79,1.26-3.99,2.82-4.89,.66-.39,1.31-.49,1.87-.3,0,0,.24,.09,.27,.1l.03,.02,1.53,.72-.69,.89c0,.06,.02,.12,.02,.18l.9,.41-.31,8.46-.36,6.77-.24,.21-1.75-.78v-14.15c0-.17-.03-.32-.08-.43l-.74,.76-.62,2.85-.73,14.48Zm-1.51-1.29l1.13,.61,.7-13.86,.65-3,1.16-1.19,.15,.16c.2,.21,.31,.53,.31,.91v13.88l1.13,.51,.39-6.46,.3-8.17-.89-.4v-.13c0-.1-.01-.19-.02-.29l-.02-.15,.47-.61-1.13-.53c-.06-.02-.19-.07-.19-.07-.44-.15-.97-.06-1.52,.27-1.44,.84-2.61,2.87-2.61,4.53v14.01Z"/></g><path class="cls-6" d="M453.4,72.94c-.59-.34-1.35-.27-2.14,.2-1.55,.9-2.82,3.09-2.82,4.89v14.02c0,.21,.23,.35,.42,.24l1.35-.78v-14.09c0-.78,.3-1.54,.88-2.07,.45-.41,.88-.55,1.16-.39,.19,.11,.3,.36,.3,.71v14.15l.22,.1,1.54-.89v-14.14c0-.92-.32-1.61-.9-1.94Z"/><g><path class="cls-6" d="M452.71,74.91c-.29-.4-.68-.66-1.03-.7-.21-.02-.4,.04-.54,.18-.2,.19-.44,.34-.71,.44-.02,0-.04,.01-.07,.01h-.12l-.06,.11c-.26,.47-.39,1.91-.39,2.32v.3l1.26,.53,1.08-.74c.31-.16,.55-.33,.75-.51,.41-.38,.33-1.22-.17-1.92Z"/><g><path class="cls-5" d="M450.28,75.29c-.17,.56-.27,1.62-.27,1.97v1.02c.12-.01,.25-.04,.36-.08,.4-.15,.75-.37,1.05-.65,.32-.3,.24-1.05-.2-1.65-.29-.39-.64-.61-.93-.61Z"/><path class="cls-6" d="M449.79,78.51v-1.25c0-.39,.11-1.45,.28-2.03l.04-.15h.16c.37,0,.79,.26,1.1,.7,.5,.7,.58,1.54,.17,1.92-.32,.3-.7,.53-1.11,.7-.12,.05-.26,.08-.41,.09l-.23,.02Zm.63-2.99c-.14,.57-.22,1.45-.22,1.74v.77s.05-.02,.08-.03c.37-.14,.7-.35,.98-.61,.22-.2,.17-.83-.22-1.37-.18-.25-.41-.44-.61-.5Z"/></g></g><g><path class="cls-6" d="M438.94,55.94c-.35-.2-.7-.23-.97-.08-.27,.16-.42,.47-.42,.88,0,.76,.52,1.66,1.18,2.04,.2,.12,.4,.18,.58,.18,.14,0,.27-.03,.38-.1,.27-.16,.42-.47,.42-.88,0-.76-.52-1.66-1.18-2.04Zm-.76,.28c.05-.03,.11-.04,.18-.04,.11,0,.24,.04,.38,.12,.15,.08,.28,.21,.41,.35l-.94,.94c-.14-.28-.24-.58-.24-.85,0-.25,.08-.44,.21-.52Zm1.31,2.27c-.14,.08-.34,.05-.55-.08-.18-.11-.36-.27-.51-.47l.96-.96c.19,.32,.31,.68,.31,.99,0,.25-.08,.44-.21,.52Z"/><path class="cls-6" d="M446.41,60.25c-.35-.2-.7-.23-.97-.08-.27,.16-.42,.47-.42,.88,0,.76,.52,1.66,1.18,2.04,.2,.12,.4,.18,.58,.18,.14,0,.27-.03,.38-.1,.27-.16,.42-.47,.42-.88,0-.76-.52-1.66-1.18-2.04Zm-.76,.28s.11-.04,.18-.04c.11,0,.24,.04,.38,.12,.15,.08,.28,.21,.41,.35l-.94,.94c-.14-.28-.24-.58-.24-.85,0-.25,.08-.44,.21-.52Zm1.31,2.27c-.13,.08-.33,.05-.55-.08-.18-.11-.36-.27-.51-.47l.96-.96c.19,.32,.31,.67,.31,.99,0,.25-.08,.44-.21,.52Z"/><path class="cls-6" d="M453.14,54.94l-.13-1.35-2.64,1.55c-.26-.62-.71-1.21-1.25-1.52l-12.99-7.5c-.47-.27-.94-.29-1.27-.04-.39,.29-.52,.88-.36,1.59l2.15,9.09c.31,1.31,1.21,2.58,2.24,3.18l6.98,4.03c.38,.22,.76,.33,1.11,.33,.18,0,.36-.03,.52-.1,.3-.12,.54-.35,.7-.65l2.4-1.49,2.53-7.11Zm-2.99,1.61l-.58,1.71-1.82-1.05,2.04-2.31c.33,.55,.5,1.19,.36,1.66Zm-12.18-4.99l2.28-2.58,1.77,1.02-2.28,2.58-1.77-1.02Zm7.17,.24l1.77,1.02-2.28,2.58-1.77-1.02,2.28-2.58Zm-10.02-5.38c.2-.14,.48-.12,.81,.07l1.2,.69-1.81,2.09-.4-1.69c-.12-.53-.05-.97,.2-1.16Zm12.24,17.4c-.34,.14-.79,.06-1.27-.21l-6.98-4.03c-.92-.53-1.76-1.73-2.04-2.91l-1.41-5.95,13.78,7.96-1.5,4.45c-.11,.35-.31,.6-.58,.7Z"/></g><path class="cls-5" d="M449.36,63.34l-.17-.38c.5-.22,1.35-.68,1.5-1,.24-.48,1.29-3.6,1.3-3.63l.39,.13c-.04,.13-1.07,3.17-1.32,3.68-.27,.55-1.56,1.13-1.71,1.19Z"/><path class="cls-5" d="M452.32,76.72l.29,.31c.24-.14,.2-.14,.37-.3,.41-.38,.33-1.22-.17-1.92-.29-.4-.68-.66-1.03-.7-.21-.02-.4,.04-.54,.18-.17,.16-.37,.29-.59,.39l.02,.45h.01c.32-.13,.6-.3,.84-.53h0c.06-.05,.13-.07,.22-.06,.23,.02,.51,.22,.73,.53,.39,.54,.44,1.17,.22,1.37-.16,.15-.11,.15-.38,.29Z"/></g><polygon class="cls-5" points="451.01 95.61 451.01 95.17 456.55 92.04 456.55 92.49 451.01 95.61"/></g><path class="cls-4" d="M448.9,101.82c0,.87-.61,1.23-1.37,.79-.76-.44-1.37-1.5-1.37-2.38s.61-1.23,1.37-.79c.76,.44,1.37,1.5,1.37,2.38Z"/></g><polygon class="cls-6" points="439.59 171.53 438.9 171.45 447.08 101.89 393.36 148.7 392.91 148.18 447.98 100.18 439.59 171.53"/><polygon class="cls-6" points="526.87 113.94 453.85 98.56 480.81 90.17 481.02 90.84 456.61 98.43 527.01 113.25 526.87 113.94"/></g></g><g><g><g><polygon class="cls-2" points="310.57 224.51 265.06 192.16 270.08 139.12 315.59 171.47 310.57 224.51"/><polygon class="cls-2" points="369.4 93.59 270.08 139.04 315.6 171.4 414.92 125.95 369.4 93.59"/><path class="cls-6" d="M270.11,138.72l-.33,.23-4.98,52.63-.07,.73-.35,3.73,6.1,4.34,3.26-1.67,29.56,21.02,.96,4.66,5.62,4h.64l.31-3.31,.07-.73,5.02-53.04-45.24-32.18-.58-.41Zm.18,60.74l-5.24-3.73,.28-3,1.38,.98,4.91,3.49-1.34,2.25Zm39.67,28.2l-5.12-3.64-.77-3.75,6.18,4.39-.28,3Zm.35-3.73l-.37-.26-8.51-6.05,.17-1.82-5.85-4.16-.17,1.82-15.45-10.98,.17-1.82-5.85-4.16-.17,1.82-8.88-6.31,4.95-52.31,44.91,31.92-4.95,52.31Z"/><path class="cls-1" d="M369.23,95.11l-98.12,44.93,44.95,31.9,98.1-44.9-44.92-31.94Zm-53.22,71.98l-39.01-27.22,91.97-42.13,38.81,27.59-91.77,41.76Z"/><path class="cls-7" d="M414.95,125.57l-99.49,45.53-.17,.08-5.02,53.04-.07,.73-.33,3.44,.24,.17,6.68-3.05,1.81-4.4,81.64-37.36,2.78,2.3,6.81-3.12,.35-3.73,.07-.73,4.99-52.66-.3-.22Zm-12.41,59.11l-1.62-1.25,1-.46,.06,.16,.56,1.55Z"/><g><polygon class="cls-1" points="289.37 134.73 292.31 133.37 330.11 159.96 327.17 161.31 289.37 134.73"/><polygon class="cls-1" points="282.01 138.18 284.96 136.82 322.75 163.42 319.82 164.76 282.01 138.18"/><polygon class="cls-1" points="297.06 131.26 300.01 129.91 337.8 156.5 334.86 157.84 297.06 131.26"/><polygon class="cls-1" points="304.61 127.66 307.55 126.31 345.35 152.9 342.41 154.24 304.61 127.66"/><polygon class="cls-1" points="312.01 124.17 314.96 122.81 352.75 149.41 349.81 150.75 312.01 124.17"/><polygon class="cls-1" points="319.7 120.7 322.65 119.35 360.44 145.94 357.51 147.28 319.7 120.7"/><polygon class="cls-1" points="327.25 117.1 330.2 115.75 367.99 142.34 365.05 143.68 327.25 117.1"/><polygon class="cls-1" points="334.97 113.77 337.92 112.41 375.71 139 372.78 140.35 334.97 113.77"/><polygon class="cls-1" points="342.52 110.17 345.47 108.82 383.26 135.41 380.33 136.75 342.52 110.17"/><polygon class="cls-1" points="350.38 106.72 353.33 105.36 391.12 131.96 388.18 133.3 350.38 106.72"/><polygon class="cls-1" points="358.07 103.25 361.02 101.9 398.81 128.49 395.88 129.83 358.07 103.25"/><polygon class="cls-1" points="365.62 99.65 368.57 98.3 406.36 124.89 403.42 126.23 365.62 99.65"/></g><path class="cls-6" d="M315.56,171.77l-.15-.11-45.64-32.44,.33-.5,99.33-45.5,.15,.11,45.67,32.46-.03,.37-99.65,45.61Zm-44.86-32.67l44.92,31.94,98.65-45.15-44.92-31.94-98.65,45.15Z"/><path class="cls-6" d="M407.78,125.32l-.45-.32h0l-38.36-27.27-.15-.11-15.35,7.06-.05-.04-4.29,1.97,.05,.04-3.36,1.55-.11-.08-4.29,1.97,.11,.08-3.36,1.55-.09-.06-4.29,1.97,.09,.07-18.54,8.53h-.02l-4.29,1.96,.02,.02-34.08,15.67,38.41,26.95,.53,.37h0l.15,.1,91.7-41.97Zm-127.76,15.85l2.24-2.73,37.02,26.69-3.13,1.43-36.13-25.39Zm35.27-18.23l37.89,26.66-2.94,1.34-37.91-26.65,2.95-1.36Zm22.83-10.5l37.94,26.69-2.94,1.34-37.95-26.68,2.95-1.36Zm2.19,.71l1.82-2.56h.01l37.96,26.69-3.38,1.55-.06-.04,.03-.04-36.38-25.6Zm5.45-4.23l37.95,26.7-2.94,1.34-37.97-26.69,2.95-1.36Zm2.26,.75l1.83-2.57,37.92,26.66-3.39,1.55h-.01l.03-.05-36.38-25.6Zm5.39-4.27l37.97,26.72-2.94,1.34-37.98-26.7,2.95-1.36Zm45.61,23.22l-2.94,1.34-37.96-26.69,2.95-1.36,37.95,26.7Zm-35.58-25.84l1.83-2.57,37.78,26.56-3.34,1.53-36.27-25.52Zm2.39-2.95l2.95-1.35,37.74,26.71-2.8,1.28-37.89-26.64Zm29.59,30.44l-3.34,1.53-36.34-25.57,1.83-2.57,37.85,26.61Zm-34.56,15.82l-2.94,1.34-37.88-26.63,2.95-1.36,37.87,26.64Zm-35.5-25.78l1.83-2.57,37.7,26.51-3.34,1.53-36.19-25.46Zm2.39-2.95l2.95-1.36,1.13,.8-.02,.03,36.64,25.78-2.89,1.32-37.81-26.58Zm4.97-.71l1.8-2.54,37.93,26.67-3.29,1.51-36.44-25.64Zm24.53,31.09l-3.34,1.53-36.26-25.51,1.83-2.57,37.77,26.56Zm-70.6-9.76l36.05,25.58-2.76,1.26-37.11-26.75,2.39-1.08,1.41,1Zm.67-.3l1.69-2.45,37.69,26.5-3.16,1.44-36.23-25.49Zm2.25-2.84l2.95-1.36,37.79,26.59-2.94,1.34-37.8-26.58Zm5.32-.49l1.83-2.57,37.62,26.45-3.34,1.53-36.11-25.41Zm2.39-2.95l2.95-1.36,37.76,26.52-2.98,1.36-37.73-26.53Zm5.11-.66l1.83-2.57,37.78,26.56-3.34,1.53-36.27-25.52Zm2.39-2.95l2.95-1.36,1.34,.94v.02l36.51,25.7-2.91,1.33-37.89-26.64Zm5.18-.57l1.81-2.55,37.82,26.59-3.31,1.52-36.32-25.55Z"/><g><polygon class="cls-8" points="345.98 121.65 346.3 118.24 361.6 129.23 360.98 132.37 345.98 121.65"/><g><polygon class="cls-3" points="378.06 121.25 361.31 128.91 346.3 118.24 363.05 110.58 378.06 121.25"/><polygon class="cls-10" points="372.73 120.74 361.6 125.83 351.63 118.75 362.76 113.66 372.73 120.74"/><path class="cls-1" d="M362.94,111.69l-15.73,7.2,14.9,10.72,15.84-7.25-15.01-10.67Zm-1.34,14.15l-8.47-6.39,9.61-5.57,9.84,6.76-10.97,5.2Z"/><path class="cls-6" d="M378.39,121.09h0l-.3-.21-15.01-10.67-16.74,7.66h0l-.33,.15h0l-.03,.37-.33,3.5,15.01,10.68,.3,.21h0l.33-.15,16.73-7.56,.34-3.62,.03-.37h0Zm-17.67,10.75l-14.41-10.26,.26-2.77,14.41,10.24-.26,2.78Zm.63-3.3l-14.41-10.24,16.08-7.36,14.41,10.24-16.08,7.36Z"/><path class="cls-6" d="M372.86,121.03l.5-.23-10.27-7.3-.3-.21-11.79,5.4,10.57,7.51,10.17-4.65,1.12-.51h0Zm-9.84-6.8l9.07,6.45-1.74,.8-7.52-5.25,.19-2Zm-8.6,6.11l8.04-3.59,7.22,5.03-8.05,3.68-7.21-5.13Z"/></g></g><path class="cls-6" d="M307.05,216.8l-37.95-26.99,4.1-43.32,37.95,26.99-4.1,43.32Zm-37.28-27.29l36.75,26.14,3.96-41.85-36.75-26.14-3.96,41.85Z"/><rect class="cls-6" x="268.48" y="181.16" width="42.78" height=".64" transform="translate(81.88 452.94) rotate(-84.59)"/><path class="cls-4" d="M283.62,186.06c-.59-.06-1.17-.25-1.61-.56l-8.52-6.06c-.52-.37-.79-.88-.74-1.4,.05-.52,.41-.97,.99-1.24l1.4-.64c.32-.15,.7,0,.84,.31h0c.15,.32,0,.7-.31,.84l-1.4,.64c-.2,.09-.26,.19-.26,.2,0,.01,.03,.11,.22,.24l8.52,6.06c.53,.38,1.45,.46,2.04,.19l1.4-.64c.32-.15,.7,0,.84,.31h0c.15,.32,0,.7-.31,.84l-1.4,.64c-.49,.22-1.09,.3-1.69,.24Z"/><path class="cls-4" d="M302.52,198.8c-.59-.06-1.17-.25-1.61-.56l-8.52-6.06c-.52-.37-.79-.88-.74-1.4,.05-.52,.41-.97,.99-1.24l1.4-.64c.32-.15,.7,0,.84,.31h0c.15,.32,0,.7-.31,.84l-1.4,.64c-.2,.09-.26,.19-.26,.2,0,.01,.03,.11,.22,.24l8.52,6.06c.53,.38,1.44,.46,2.04,.19l1.4-.64c.32-.15,.7,0,.84,.31h0c.15,.32,0,.7-.31,.84l-1.4,.64c-.49,.22-1.09,.3-1.69,.24Z"/><path class="cls-10" d="M315.59,218.41l4.3-45.4,.12-.06,90.68-41.3-4.3,45.4-.12,.06-90.68,41.29Zm4.73-45.09l-4.2,44.33,89.83-40.9,4.2-44.34-89.83,40.91Z"/></g><g><polygon class="cls-5" points="273.37 141.39 270.01 138.9 270.52 134.34 273.88 136.83 273.37 141.39"/><g><polygon class="cls-5" points="270.52 134.34 274.35 132.77 277.71 135.17 273.88 136.83 270.52 134.34"/><polygon class="cls-1" points="270.39 135.48 274.21 133.9 277.58 136.3 273.75 137.96 270.39 135.48"/><path class="cls-4" d="M277.96,135.06l-3.58-2.55-4.07,1.67-.54,4.83,3.57,2.65,4.08-1.77,.54-4.83Zm-3.64-2.03l2.93,2.09-3.33,1.44-2.92-2.16,3.32-1.37Zm-1.13,7.93l-2.92-2.17,.45-4.03,2.92,2.17-.45,4.03Z"/></g></g><g><polygon class="cls-5" points="315.45 171.14 312.09 168.65 312.6 164.09 315.96 166.58 315.45 171.14"/><g><polygon class="cls-5" points="312.6 164.09 316.42 162.52 319.79 164.91 315.96 166.58 312.6 164.09"/><polygon class="cls-1" points="312.47 165.22 316.29 163.65 319.66 166.05 315.83 167.71 312.47 165.22"/><path class="cls-4" d="M320.03,164.8l-3.58-2.55-4.07,1.67-.54,4.83,3.57,2.65,4.08-1.77,.54-4.83Zm-3.64-2.03l2.93,2.09-3.33,1.44-2.92-2.16,3.32-1.37Zm-1.13,7.93l-2.92-2.17,.45-4.03,2.92,2.17-.45,4.03Z"/></g></g><g><polygon class="cls-5" points="411.16 127.28 407.81 124.79 408.32 120.23 411.67 122.71 411.16 127.28"/><g><polygon class="cls-5" points="408.32 120.23 412.14 118.65 415.5 121.05 411.67 122.71 408.32 120.23"/><polygon class="cls-1" points="408.19 121.36 412.01 119.79 415.37 122.19 411.54 123.85 408.19 121.36"/><path class="cls-4" d="M415.75,120.94l-3.58-2.55-4.07,1.67-.54,4.83,3.57,2.65,4.08-1.77,.54-4.83Zm-3.64-2.03l2.93,2.09-3.33,1.44-2.92-2.16,3.32-1.37Zm-1.13,7.93l-2.92-2.17,.45-4.03,2.92,2.17-.45,4.03Z"/></g></g><g><polygon class="cls-5" points="369.19 97.8 365.84 95.31 366.35 90.75 369.7 93.23 369.19 97.8"/><g><polygon class="cls-5" points="366.35 90.75 370.17 89.17 373.53 91.57 369.7 93.23 366.35 90.75"/><polygon class="cls-1" points="366.22 91.88 370.04 90.31 373.4 92.71 369.57 94.37 366.22 91.88"/><path class="cls-4" d="M373.78,91.46l-3.58-2.55-4.07,1.67-.54,4.83,3.57,2.65,4.08-1.77,.54-4.83Zm-3.64-2.03l2.93,2.09-3.33,1.44-2.92-2.16,3.32-1.37Zm-1.13,7.93l-2.92-2.17,.45-4.03,2.92,2.17-.45,4.03Z"/></g></g></g><g><g><g><g><path class="cls-6" d="M345.22,56.29l-5.92,3.38,5.84,15.24,5.7-3.26c.85-.39,1.34-1.41,1.34-2.8v-8.54l-6.96-4.02Z"/><g><path class="cls-5" d="M343.09,74.52l-.47-.27c-1.74-1-3.14-3.69-3.14-6.01v-8.42l6.76,3.9v8.42c0,2.32-1.41,3.38-3.14,2.38Z"/><path class="cls-6" d="M344.34,75.1c-.43,0-.89-.14-1.35-.4l-.47-.27c-1.79-1.03-3.25-3.81-3.25-6.19v-8.55l.21-.12,6.97,4.03v8.54c0,1.29-.43,2.29-1.19,2.72-.28,.16-.58,.24-.91,.24Zm-1.15-.76c.69,.4,1.34,.46,1.85,.17,.62-.36,.98-1.22,.98-2.36v-8.3l-6.34-3.66v8.06c0,2.25,1.36,4.86,3.04,5.83l.47,.27Z"/></g></g><g><polygon class="cls-5" points="346.23 63.72 351.98 60.43 345.22 56.53 339.47 59.81 346.23 63.72"/><polygon class="cls-1" points="346.02 64.72 346.02 63.61 350.85 60.95 345.03 57.59 339.68 60.65 339.68 61.11 346.02 64.72"/><path class="cls-6" d="M346.23,63.96l-6.97-4.02v-.25l5.96-3.4,6.96,4.02v.24l-5.96,3.4Zm-6.34-4.14l6.34,3.66,5.33-3.04-6.34-3.66-5.33,3.04Z"/></g><g><g><g><path class="cls-5" d="M356.9,16.25l-12.99-7.5c-.35-.2-.67-.23-.91-.13h0l-2.7,1.62,3.64,5.53,.8,3.39c.3,1.25,1.16,2.48,2.14,3.04l2.78,1.6,3.02,4.25,2.73-1.64h0c.28-.15,.49-.41,.61-.79l2.21-6.55c.26-.87-.4-2.28-1.32-2.81Z"/><path class="cls-1" d="M357.23,17.44l-12.99-7.5c-.35-.2-.67-.23-.91-.13h0l-2.7,1.62,3.64,5.53,.8,3.39c.29,1.25,1.16,2.48,2.14,3.05l2.78,1.6,1.66,2.1,2.63-1.22,.1-.43c.28-.14,.49-.41,.61-.79l2.93-4.03c.26-.87,.23-2.66-.69-3.19Z"/><path class="cls-6" d="M352.62,28.33l-3.11-4.37-2.74-1.58c-1.03-.59-1.93-1.87-2.24-3.18l-.79-3.35-3.74-5.68,2.99-1.79h.02c.29-.08,.64-.02,1,.19l12.99,7.5c1.01,.58,1.71,2.09,1.42,3.05l-2.21,6.56c-.12,.39-.34,.69-.65,.87l-.05,.03-2.89,1.74Zm-12.03-18.02l3.55,5.41,.8,3.39c.28,1.18,1.12,2.38,2.04,2.91l2.84,1.66,2.91,4.09,2.57-1.55c.24-.13,.41-.35,.5-.66l2.21-6.56c.23-.76-.4-2.09-1.23-2.57l-12.99-7.5c-.27-.16-.53-.2-.71-.12l-2.5,1.49Z"/></g><path class="cls-2" d="M351.07,27.9l-6.98-4.03c-.98-.57-1.84-1.8-2.14-3.05l-2.15-9.09c-.28-1.19,.38-1.85,1.32-1.31l12.99,7.5c.92,.53,1.59,1.94,1.32,2.81l-2.21,6.55c-.28,.94-1.16,1.19-2.15,.61Z"/></g><path class="cls-6" d="M358.26,19.07l-.13-1.35-2.67,1.56c-.26-.63-.71-1.22-1.25-1.54l-12.99-7.5c-.47-.27-.94-.29-1.27-.04-.39,.29-.52,.88-.36,1.59l2.15,9.09c.31,1.31,1.21,2.58,2.24,3.18l6.98,4.03c.38,.22,.76,.33,1.11,.33,.18,0,.36-.03,.52-.1,.29-.11,.52-.33,.68-.61l2.46-1.53,2.53-7.11Zm-5.82,8.87c-.34,.14-.79,.06-1.27-.21l-6.98-4.03c-.92-.53-1.76-1.73-2.04-2.91l-2.15-9.09c-.12-.53-.05-.97,.2-1.16,.08-.06,.19-.09,.3-.09,.15,0,.32,.05,.51,.16l12.99,7.5c.83,.48,1.46,1.8,1.23,2.57l-2.21,6.56c-.11,.35-.31,.6-.58,.7Z"/><g><g><path class="cls-5" d="M347.87,45.13c-.41-.56-.96-.77-1.26-.49-.22,.21-.48,.37-.77,.48-.33,.13-.85-.2-1.13-.71l-.22-.41c-.38-.69-.38-1.41,0-1.67l.5-.35c.73-.51,1.13-1.45,1.13-2.66v-2.76l-1.84-1.06-1.33,.87,.53,3.5-.35,.25c-.74,.51-.93,1.7-.59,3.03l-.34,.75,1.94,3.13,2.23,.93,1.01-.69c.25-.13,.49-.29,.7-.48,.32-.3,.24-1.05-.2-1.65Z"/><path class="cls-6" d="M346.38,48.18l-2.4-1-2.03-3.28,.36-.78c-.35-1.42-.09-2.64,.69-3.18l.25-.17-.53-3.5,1.55-1.02,2.05,1.19v2.88c0,1.28-.43,2.28-1.22,2.83l-.5,.35c-.24,.17-.29,.75,.07,1.4l.22,.41c.24,.45,.67,.7,.87,.62,.27-.1,.51-.25,.71-.44,.14-.13,.33-.2,.54-.17,.35,.03,.73,.29,1.03,.7h0c.5,.7,.58,1.54,.17,1.92-.2,.19-.44,.35-.75,.51l-1.08,.74Zm-2.11-1.33l2.06,.86,.92-.63c.3-.16,.5-.3,.68-.46,.22-.2,.17-.83-.22-1.37-.22-.3-.5-.51-.73-.53-.09-.01-.16,.01-.22,.06-.24,.23-.52,.4-.84,.53-.43,.17-1.05-.2-1.38-.81l-.22-.41c-.44-.8-.41-1.61,.06-1.94l.5-.35c.67-.47,1.04-1.35,1.04-2.49v-2.64l-1.62-.94-1.12,.73,.53,3.49-.46,.32c-.64,.45-.84,1.52-.51,2.81l.02,.07-.33,.71,1.85,2.98Z"/></g><g><path class="cls-5" d="M344.51,45.99c-.33,.13-.85-.2-1.13-.71l-.22-.41c-.38-.69-.38-1.41,0-1.67l.5-.35c.73-.51,1.13-1.45,1.13-2.66v-2.76l-1.84-1.06v2.76c0,.68-.23,1.22-.66,1.51l-.5,.35c-1.01,.7-1,2.67,.01,4.54l.22,.41c.51,.93,1.22,1.67,1.94,2.09,.61,.35,1.22,.47,1.72,.28,.4-.15,.75-.37,1.05-.65,.32-.3,.24-1.05-.2-1.65h0c-.41-.56-.96-.77-1.26-.49-.22,.21-.48,.37-.77,.48Z"/><path class="cls-6" d="M345.18,48.6c-.41,0-.86-.13-1.31-.4-.78-.45-1.52-1.24-2.02-2.17l-.22-.41c-1.08-1.97-1.05-4.04,.05-4.81l.5-.35c.37-.26,.57-.73,.57-1.34v-3.12l2.26,1.3v2.88c0,1.28-.43,2.28-1.22,2.83l-.5,.35c-.24,.17-.29,.75,.07,1.4l.22,.41c.24,.45,.67,.7,.87,.62h0c.27-.1,.5-.25,.71-.44,.14-.13,.33-.2,.54-.17,.35,.03,.73,.29,1.03,.7,.5,.7,.58,1.54,.17,1.92-.32,.3-.7,.53-1.11,.7-.18,.07-.38,.11-.58,.11Zm-2.03-11.87v2.4c0,.75-.27,1.35-.75,1.68l-.5,.35c-.91,.64-.88,2.51,.08,4.27l.22,.41c.47,.86,1.15,1.6,1.87,2.01,.58,.33,1.12,.43,1.54,.26,.37-.14,.7-.35,.98-.61,.22-.2,.17-.83-.22-1.37-.22-.3-.5-.51-.73-.53-.09-.01-.16,.01-.22,.06-.24,.23-.52,.4-.84,.53h0c-.43,.17-1.05-.2-1.38-.81l-.22-.41c-.44-.8-.41-1.62,.06-1.94l.5-.35c.67-.47,1.04-1.35,1.04-2.49v-2.64l-1.42-.82Z"/></g></g><g><path class="cls-6" d="M347.99,45.01c-.29-.4-.68-.66-1.03-.7-.21-.02-.4,.04-.54,.17-.2,.19-.44,.34-.71,.44-.2,.08-.63-.18-.87-.62l-.22-.41c-.35-.65-.31-1.23-.07-1.4l.5-.35c.79-.55,1.22-1.56,1.22-2.83v-2.88l-2.05-1.19-1.55,1.02,.53,3.5-.25,.17c-.78,.54-1.04,1.75-.69,3.18l-.36,.78,2.03,3.28,2.4,1,1.08-.74c.31-.16,.54-.33,.75-.51,.41-.38,.33-1.22-.17-1.92Zm-3.76-9.27l1.62,.94v1.19l-1.13,.7-1.58-1.89-.03-.21,1.12-.73Z"/><g><path class="cls-5" d="M344.46,45.99c-.33,.13-.85-.2-1.13-.71l-.22-.41c-.38-.69-.38-1.41,0-1.67l.5-.35c.73-.51,1.13-1.45,1.13-2.66v-2.76l-1.84-1.06v2.76c0,.68-.23,1.22-.66,1.51l-.5,.35c-1.01,.7-1,2.67,.01,4.54l.22,.41c.51,.93,1.22,1.67,1.94,2.09,.61,.35,1.22,.47,1.72,.28,.4-.15,.75-.37,1.05-.65,.32-.3,.24-1.05-.2-1.65h0c-.41-.56-.96-.77-1.26-.49-.22,.21-.48,.37-.77,.48Z"/><path class="cls-6" d="M345.13,48.6c-.41,0-.86-.13-1.31-.4-.78-.45-1.52-1.24-2.02-2.17l-.22-.41c-1.08-1.97-1.05-4.04,.05-4.81l.5-.35c.37-.26,.57-.73,.57-1.34v-3.12l2.26,1.3v2.88c0,1.28-.43,2.28-1.22,2.83l-.5,.35c-.24,.17-.29,.75,.07,1.4l.22,.41c.24,.45,.67,.7,.87,.62h0c.27-.1,.5-.25,.71-.44,.14-.13,.33-.2,.54-.17,.35,.03,.73,.29,1.03,.7,.5,.7,.58,1.54,.17,1.92-.32,.3-.7,.53-1.11,.7-.18,.07-.38,.11-.58,.11Zm-2.03-11.87v2.4c0,.75-.26,1.35-.75,1.68l-.5,.35c-.91,.64-.88,2.51,.08,4.27l.22,.41c.47,.86,1.15,1.6,1.87,2.01,.58,.33,1.12,.43,1.54,.26,.37-.14,.7-.35,.98-.61,.22-.2,.17-.83-.22-1.37-.22-.3-.5-.51-.73-.53-.09-.01-.16,.01-.22,.06-.24,.23-.52,.4-.84,.53h0c-.43,.17-1.05-.2-1.38-.81l-.22-.41c-.44-.8-.41-1.62,.06-1.94l.5-.35c.67-.47,1.04-1.35,1.04-2.49v-2.64l-1.42-.82Z"/></g></g><g><path class="cls-6" d="M343.8,23.57l-4.81,2.75,4.73,12.11,4.56-2.6c.69-.32,1.09-1.14,1.09-2.25v-6.79l-5.56-3.21Z"/><g><path class="cls-5" d="M342.11,38.06l-.37-.21c-1.38-.79-2.49-2.92-2.49-4.76v-6.67l5.35,3.09v6.67c0,1.83-1.12,2.68-2.49,1.88Z"/><path class="cls-6" d="M343.1,38.56c-.35,0-.72-.11-1.09-.33l-.37-.21c-1.43-.83-2.59-3.04-2.59-4.94v-7.03l5.77,3.33v6.79c0,1.04-.35,1.84-.96,2.19-.23,.13-.48,.2-.74,.2Zm-3.64-11.79v6.31c0,1.77,1.07,3.82,2.39,4.58l.37,.21c.53,.31,1.04,.35,1.42,.13,.48-.28,.76-.95,.76-1.83v-6.55l-4.94-2.85Z"/></g></g><rect class="cls-6" x="338.42" y="-2.14" width=".55" height="17.43"/><g><g><path class="cls-5" d="M344.65,12.06c-1.71-.99-3.26-1.11-4.41-.51h0s-.4,.24-.57,.38l-1.28,.86,.38,.33c-.35,.71-.54,1.61-.54,2.66,0,4.1,2.88,9.09,6.43,11.14,3.55,2.05,6.43,.39,6.43-3.71s-2.88-9.09-6.43-11.14Z"/><path class="cls-1" d="M341.43,24.96l8.57-5.09c-1.07-3.02-3.23-5.91-5.72-7.35-1.71-.99-3.26-1.11-4.41-.51h0s-.4,.24-.57,.38l-1.28,.86,.38,.33c-.35,.71-.54,1.61-.54,2.66,0,2.92,1.46,6.29,3.59,8.73Z"/><path class="cls-6" d="M347.52,28.01c-.92,0-1.93-.31-2.98-.91-3.6-2.08-6.54-7.16-6.54-11.32,0-1,.17-1.87,.5-2.61l-.46-.4,1.5-1.01c.16-.13,.56-.38,.58-.39l.09-.06h.02c1.26-.59,2.85-.39,4.52,.57,3.6,2.08,6.54,7.16,6.54,11.32,0,2.06-.71,3.6-1.99,4.34-.53,.31-1.13,.46-1.78,.46Zm-8.8-15.2l.29,.26-.07,.14c-.35,.71-.52,1.58-.52,2.57,0,4.03,2.84,8.95,6.33,10.96,1.65,.95,3.19,1.11,4.34,.45,1.15-.66,1.78-2.08,1.78-3.98,0-4.03-2.84-8.95-6.33-10.96-1.58-.91-3.08-1.09-4.22-.51l-.08,.04c-.14,.09-.35,.22-.45,.31l-1.07,.72Z"/></g><g><g><path class="cls-8" d="M349.41,24.34c0,4.1-2.88,5.76-6.43,3.71-3.55-2.05-6.43-7.04-6.43-11.14s2.88-5.76,6.43-3.71c3.55,2.05,6.43,7.04,6.43,11.14Z"/><path class="cls-6" d="M345.85,29.15c-.92,0-1.93-.31-2.98-.91-3.6-2.08-6.54-7.16-6.54-11.32,0-2.06,.71-3.6,1.99-4.34,1.28-.74,2.97-.58,4.76,.45,3.6,2.08,6.54,7.16,6.54,11.32,0,2.06-.71,3.6-1.99,4.34-.53,.31-1.13,.46-1.78,.46Zm-5.74-16.61c-.58,0-1.11,.13-1.57,.4-1.15,.66-1.78,2.08-1.78,3.98,0,4.03,2.84,8.95,6.33,10.96,1.65,.95,3.19,1.11,4.34,.45,1.15-.66,1.78-2.08,1.78-3.98,0-4.03-2.84-8.95-6.33-10.96-.98-.57-1.92-.85-2.77-.85Z"/></g><path class="cls-6" d="M344.33,24.74c-.45,0-.94-.15-1.45-.44-1.72-.99-3.13-3.42-3.13-5.41,0-1.01,.35-1.77,.99-2.14,.64-.37,1.47-.29,2.35,.21,1.72,1,3.13,3.42,3.13,5.41,0,1.01-.35,1.77-.99,2.14-.27,.15-.57,.23-.89,.23Zm-2.7-7.81c-.25,0-.48,.06-.68,.17-.5,.29-.78,.92-.78,1.78,0,1.86,1.31,4.13,2.92,5.05,.74,.43,1.42,.5,1.93,.21,.5-.29,.78-.92,.78-1.78,0-1.86-1.31-4.12-2.92-5.05-.44-.26-.87-.39-1.24-.39Z"/><path class="cls-1" d="M345.34,22.36c0,1.5-1.06,2.11-2.36,1.36-1.3-.75-2.36-2.58-2.36-4.09s1.06-2.11,2.36-1.36c1.3,.75,2.36,2.58,2.36,4.09Z"/></g></g><path class="cls-6" d="M347.9,28.6l-.32-.45,1.34-.94c1-.7,1.12-3.28,1.08-4.22V-1.77h.56V22.97c0,.14,.12,3.66-1.32,4.68l-1.34,.94Z"/><g><g><path class="cls-5" d="M347.14,22.24l-12.99-7.5c-.35-.2-.67-.23-.91-.13h0l-2.7,1.62,3.64,5.53,.8,3.39c.3,1.25,1.16,2.48,2.14,3.04l2.78,1.6,3.02,4.25,2.73-1.64h0c.28-.15,.49-.41,.61-.79l2.21-6.55c.26-.87-.4-2.28-1.32-2.81Z"/><path class="cls-1" d="M347.18,23.45l-12.99-7.5c-.35-.2-.67-.23-.91-.13h0l-2.7,1.62,3.64,5.53,.8,3.39c.29,1.25,1.16,2.48,2.14,3.04l2.78,1.6,2.38,1.3,2.73-1.64h0c.28-.14,.5-.41,.61-.79l2.57-3.61c.26-.87-.11-2.27-1.03-2.8Z"/><path class="cls-6" d="M342.86,34.31l-3.11-4.37-2.74-1.58c-1.03-.59-1.93-1.87-2.24-3.18l-.79-3.35-3.74-5.68,2.99-1.79h.02c.29-.08,.64-.02,1,.19l12.99,7.5c1.01,.58,1.71,2.09,1.42,3.05l-2.21,6.56c-.12,.39-.34,.69-.65,.87l-.05,.03-2.89,1.74Zm-12.03-18.02l3.55,5.41,.8,3.39c.28,1.18,1.12,2.38,2.04,2.91l2.84,1.66,2.91,4.09,2.57-1.55c.24-.12,.41-.35,.5-.66l2.21-6.56c.23-.76-.4-2.09-1.23-2.57l-12.99-7.5c-.27-.16-.53-.2-.71-.12l-2.5,1.49Z"/></g><g><path class="cls-2" d="M341.31,33.89l-6.98-4.03c-.98-.57-1.84-1.8-2.14-3.04l-2.15-9.09c-.28-1.19,.38-1.85,1.32-1.31l12.99,7.5c.92,.53,1.59,1.94,1.32,2.81l-2.21,6.55c-.28,.94-1.16,1.19-2.15,.61Z"/><path class="cls-2" d="M333.49,28.05l1.26-1.27-1.26,1.27Z"/><path class="cls-2" d="M340.95,32.35l1.26-1.27-1.26,1.27Z"/></g></g><g><path class="cls-5" d="M347.86,43.93l.58-.75-1.33-.62s-.01-.01-.02-.01c-.02-.01-.23-.09-.23-.09-.48-.17-1.07-.08-1.7,.28-1.5,.87-2.71,2.98-2.71,4.71v14.14l1.53,.83,.72-14.19,.63-2.91,.96-.99c.16,.17,.25,.43,.25,.77v14.02l1.53,.68,.41-6.76,.3-8.32-.89-.4c0-.14-.02-.26-.03-.38Z"/><path class="cls-1" d="M348.18,44.6l.58-.75-1.33-.62s-.01-.01-.02-.01c-.02-.01-.23-.09-.23-.09-.48-.17-1.07-.08-1.7,.28-1.5,.87-2.71,2.98-2.71,4.71v.85l1.64,.83,.61-.9,.63-2.91,.96-.99c.16,.17,.25,.43,.25,.77l.11,.73,1.53,.68,.3,6.53,.3-8.32-.89-.4c0-.14-.02-.26-.03-.38Z"/><path class="cls-6" d="M344.17,62.76l-1.93-1.1v-14.2c0-1.79,1.26-3.99,2.82-4.89,.66-.39,1.31-.49,1.87-.3,0,0,.24,.09,.27,.1l.03,.02,1.53,.72-.69,.89c0,.06,.02,.12,.02,.18l.9,.41-.31,8.46-.36,6.77-.24,.21-1.75-.78v-14.15c0-.17-.03-.32-.08-.43l-.74,.76-.62,2.85-.73,14.48Zm-1.51-1.29l1.13,.61,.7-13.86,.65-3,1.16-1.19,.15,.16c.2,.21,.31,.53,.31,.91v13.88l1.13,.51,.39-6.46,.3-8.17-.89-.4v-.13c0-.1-.01-.19-.02-.29l-.02-.15,.47-.61-1.13-.53c-.06-.02-.19-.07-.19-.07-.44-.15-.97-.06-1.52,.27-1.44,.84-2.61,2.87-2.61,4.53v14.01Z"/></g><path class="cls-6" d="M348.73,43.05c-.59-.34-1.35-.27-2.14,.2-1.55,.9-2.82,3.09-2.82,4.89v14.02c0,.21,.23,.35,.42,.24l1.35-.78v-14.09c0-.78,.3-1.54,.88-2.07,.45-.41,.88-.55,1.16-.39,.19,.11,.3,.36,.3,.71v14.15l.22,.1,1.54-.89v-14.14c0-.92-.32-1.61-.9-1.94Z"/><g><path class="cls-6" d="M348.04,45.02c-.29-.4-.68-.66-1.03-.7-.21-.02-.4,.04-.54,.18-.2,.19-.44,.34-.71,.44-.02,0-.04,.01-.07,.01h-.12l-.06,.11c-.26,.47-.39,1.91-.39,2.32v.3l1.26,.53,1.08-.74c.31-.16,.55-.33,.75-.51,.41-.38,.33-1.22-.17-1.92Z"/><g><path class="cls-5" d="M345.6,45.4c-.17,.56-.27,1.62-.27,1.97v1.02c.12-.01,.25-.04,.36-.08,.4-.15,.75-.37,1.05-.65,.32-.3,.24-1.05-.2-1.65-.29-.39-.64-.61-.93-.61Z"/><path class="cls-6" d="M345.12,48.62v-1.25c0-.39,.11-1.45,.28-2.03l.04-.15h.16c.37,0,.79,.26,1.1,.7,.5,.7,.58,1.54,.17,1.92-.32,.3-.7,.53-1.11,.7-.12,.05-.26,.08-.41,.09l-.23,.02Zm.63-2.99c-.14,.57-.22,1.45-.22,1.74v.77s.05-.02,.08-.03c.37-.14,.7-.35,.98-.61,.22-.2,.17-.83-.22-1.37-.18-.25-.41-.44-.61-.5Z"/></g></g><g><path class="cls-6" d="M334.27,26.05c-.35-.2-.7-.23-.97-.08-.27,.16-.42,.47-.42,.88,0,.76,.52,1.66,1.18,2.04,.2,.12,.4,.18,.58,.18,.14,0,.27-.03,.38-.1,.27-.16,.42-.47,.42-.88,0-.76-.52-1.66-1.18-2.04Zm-.76,.28c.05-.03,.11-.04,.18-.04,.11,0,.24,.04,.38,.12,.15,.08,.28,.21,.41,.35l-.94,.94c-.14-.28-.24-.58-.24-.85,0-.25,.08-.44,.21-.52Zm1.31,2.27c-.14,.08-.34,.05-.55-.08-.18-.11-.36-.27-.51-.47l.96-.97c.19,.32,.31,.68,.31,.99,0,.25-.08,.44-.21,.52Z"/><path class="cls-6" d="M341.73,30.36c-.35-.2-.7-.23-.97-.08-.27,.16-.42,.47-.42,.88,0,.76,.52,1.66,1.18,2.04,.2,.12,.4,.18,.58,.18,.14,0,.27-.03,.38-.1,.27-.16,.42-.47,.42-.88,0-.76-.52-1.66-1.18-2.04Zm-.76,.28s.11-.04,.18-.04c.11,0,.24,.04,.38,.12,.15,.08,.28,.21,.41,.35l-.94,.94c-.14-.28-.24-.58-.24-.85,0-.25,.08-.44,.21-.52Zm1.31,2.27c-.13,.08-.33,.05-.55-.08-.18-.11-.36-.27-.51-.47l.96-.96c.19,.32,.31,.67,.31,.99,0,.25-.08,.44-.21,.52Z"/><path class="cls-6" d="M348.46,25.05l-.13-1.35-2.64,1.55c-.26-.62-.71-1.21-1.25-1.52l-12.99-7.5c-.47-.27-.94-.29-1.27-.04-.39,.29-.52,.88-.36,1.59l2.15,9.09c.31,1.31,1.21,2.58,2.24,3.18l6.98,4.03c.38,.22,.76,.33,1.11,.33,.18,0,.36-.03,.52-.1,.3-.12,.54-.35,.7-.65l2.4-1.49,2.53-7.11Zm-2.99,1.61l-.58,1.71-1.82-1.05,2.04-2.31c.33,.55,.5,1.19,.36,1.66Zm-12.18-4.99l2.28-2.58,1.77,1.02-2.28,2.58-1.77-1.02Zm7.17,.24l1.77,1.02-2.28,2.58-1.77-1.02,2.28-2.58Zm-10.02-5.38c.2-.14,.48-.12,.81,.07l1.2,.69-1.81,2.09-.4-1.69c-.12-.53-.05-.97,.2-1.16Zm12.24,17.4c-.34,.14-.79,.06-1.27-.21l-6.98-4.03c-.92-.53-1.76-1.73-2.04-2.91l-1.41-5.95,13.78,7.96-1.5,4.45c-.11,.35-.31,.6-.58,.7Z"/></g><path class="cls-5" d="M344.68,33.45l-.17-.38c.5-.22,1.35-.68,1.5-1,.24-.48,1.29-3.6,1.3-3.63l.39,.13c-.04,.13-1.07,3.17-1.32,3.68-.27,.55-1.56,1.13-1.71,1.19Z"/><path class="cls-5" d="M347.65,46.83l.29,.31c.24-.14,.2-.14,.37-.3,.41-.38,.33-1.22-.17-1.92-.29-.4-.68-.66-1.03-.7-.21-.02-.4,.04-.54,.18-.17,.16-.37,.29-.59,.39l.02,.45h.01c.32-.13,.6-.3,.84-.53h0c.06-.05,.13-.07,.22-.06,.23,.02,.51,.22,.73,.53,.39,.54,.44,1.17,.22,1.37-.16,.15-.11,.15-.38,.29Z"/></g><polygon class="cls-5" points="346.33 65.72 346.33 65.28 351.88 62.15 351.88 62.6 346.33 65.72"/></g><path class="cls-4" d="M344.22,71.86c0,.87-.61,1.23-1.37,.79-.76-.44-1.37-1.5-1.37-2.38s.61-1.23,1.37-.79c.76,.44,1.37,1.5,1.37,2.38Z"/></g><g><polygon class="cls-6" points="316.53 164.64 315.86 164.45 341.83 72.16 273.87 135.12 273.4 134.61 343.17 69.97 316.53 164.64"/><polygon class="cls-6" points="411.68 121.05 353.82 71.36 370.21 91.29 369.67 91.73 350.73 68.7 351.23 68.22 412.14 120.52 411.68 121.05"/></g></g></g></g></g></svg>