<?xml version="1.0" encoding="UTF-8"?><svg id="content" xmlns="http://www.w3.org/2000/svg" viewBox="0 0 572.94 237.07"><defs><style>.cls-1{fill:#82d1f3;}.cls-2{fill:#fff;}.cls-3{fill:#82d0f2;}.cls-4{fill:#f2b92c;}.cls-5{fill:#f8e7cc;}.cls-6{fill:#a3a3a3;}.cls-7{fill:#219dc8;}.cls-8{fill:#d5d5d5;}.cls-9{fill:none;}.cls-10{fill:#3b325b;}.cls-11{fill:#178dc0;}.cls-12{fill:#414242;}.cls-13{fill:#f3ba26;}.cls-14{fill:#f2f2f2;}.cls-15{fill:#dfdfdf;}</style></defs><g><polygon class="cls-14" points="109.66 302.05 573.43 36.49 573.43 302.05 109.66 302.05"/><path class="cls-12" d="M573.94,302.56H107.76l1.65-.94L573.94,35.62V302.56Zm-462.38-1.01h461.37V37.36L111.56,301.55Z"/></g><g><path class="cls-8" d="M297.4,211.93l-7.94,4.59c-1.87,1.08-4.17,1.08-6.04,0l-7.94-4.59c-1.12-.65-1.12-2.26,0-2.91l10.12-5.84c.52-.3,1.16-.3,1.68,0l10.12,5.84c1.12,.65,1.12,2.26,0,2.91Z"/><g id="_"><g><polygon class="cls-1" points="295.49 196.04 284.96 189.96 274.44 196.04 274.44 196.04 274.44 208.19 284.96 214.26 284.96 202.14 295.49 196.04"/><polygon class="cls-11" points="274.44 208.15 284.96 214.22 284.96 202.1 274.44 196 274.44 196 274.44 208.15"/><path class="cls-12" d="M295.7,195.91l-10.73-6.2-10.7,6.18-.03,.02h0v.24h0v12.15l10.52,6.08h0l.21,.12,.21-.12h0l10.42-6.01,.11-.06v-12.15h0v-.24Zm-10.74-5.71l4.95,2.86-10.1,5.83-4.95-2.86,10.1-5.83Zm-.21,23.7l-10.1-5.83v-11.67l10.1,5.83v11.67Zm4.49-14.5l-4.28,2.47-4.95-2.86,10.1-5.83,4.95,2.86-5.82,3.36Z"/><path class="cls-12" d="M280.78,202.13l-1.95-1.13c-.22-.12-.43-.14-.62-.03-.2,.12-.32,.37-.32,.68,0,.53,.32,1.13,.72,1.36l1.95,1.13c.12,.07,.24,.1,.35,.1,.09,0,.18-.02,.26-.07,.2-.12,.32-.37,.32-.68,0-.53-.32-1.13-.72-1.36Zm.19,1.68c-.06,.03-.15,0-.19-.03l-1.95-1.13c-.28-.16-.51-.62-.51-1,0-.19,.06-.29,.11-.32,.06-.04,.15,0,.19,.03l.13,.08c.05,.46,.32,.94,.66,1.13l1.67,.96c0,.16-.06,.25-.1,.27Z"/><path class="cls-1" d="M293.96,204.64c-.1-.06-.22-.05-.34,.02l-1.55,.9c-.23,.13-.41,.47-.41,.78v1.67c0,.18,.06,.32,.18,.38,.04,.03,.09,.04,.14,.04,.06,0,.13-.02,.2-.06l1.55-.9h0c.23-.13,.41-.47,.41-.78v-1.67c0-.18-.06-.32-.18-.38Z"/></g></g></g><g><path class="cls-8" d="M316.99,216.72l-7.94,4.59c-1.87,1.08-4.17,1.08-6.04,0l-7.94-4.59c-1.12-.65-1.12-2.26,0-2.91l10.12-5.84c.52-.3,1.16-.3,1.68,0l10.12,5.84c1.12,.65,1.12,2.26,0,2.91Z"/><g id="_-2"><g><polygon class="cls-5" points="314.85 201.21 304.33 195.13 293.8 201.21 293.8 201.21 293.8 213.36 304.32 219.44 304.32 207.31 314.85 201.21"/><polygon class="cls-4" points="293.8 213.32 304.33 219.4 304.33 207.28 293.8 201.17 293.8 201.17 293.8 213.32"/><path class="cls-12" d="M315.06,201.09l-10.73-6.2-10.7,6.18-.03,.02h0v.24h0v12.15l10.52,6.08h0l.21,.12,.21-.12h0l10.42-6.01,.11-.06v-12.15h0v-.24Zm-10.74-5.71l4.95,2.86-10.1,5.83-4.95-2.86,10.1-5.83Zm-.21,23.7l-10.1-5.83v-11.67l10.1,5.83v11.67Zm4.49-14.5l-4.28,2.47-4.95-2.86,10.1-5.83,4.95,2.86-5.82,3.36Z"/><path class="cls-12" d="M300.14,207.3l-1.95-1.13c-.22-.12-.43-.14-.62-.03-.2,.12-.32,.37-.32,.68,0,.53,.32,1.13,.72,1.37l1.95,1.13c.12,.07,.24,.1,.35,.1,.09,0,.18-.02,.26-.07,.2-.12,.32-.37,.32-.68,0-.53-.32-1.13-.72-1.36Zm.19,1.68c-.06,.03-.15,0-.19-.03l-1.95-1.13c-.28-.16-.51-.62-.51-1,0-.19,.06-.29,.11-.32,.06-.04,.15,0,.19,.03l.13,.08c.05,.46,.32,.94,.66,1.13l1.67,.96c0,.16-.06,.25-.1,.27Z"/><path class="cls-5" d="M313.33,209.81c-.1-.06-.22-.05-.34,.02l-1.55,.9c-.23,.13-.41,.47-.41,.78v1.67c0,.18,.06,.32,.18,.38,.04,.03,.09,.04,.14,.04,.06,0,.13-.02,.2-.06l1.55-.9h0c.23-.13,.41-.47,.41-.78v-1.67c0-.18-.06-.32-.18-.38Z"/></g></g></g><g><path class="cls-8" d="M492.6,215.3l-9.87,5.7c-2.32,1.34-5.18,1.34-7.5,0l-9.87-5.7c-1.39-.8-1.39-2.81,0-3.61l12.58-7.26c.65-.37,1.44-.37,2.09,0l12.58,7.26c1.39,.8,1.39,2.81,0,3.61Z"/><g id="_-3"><g><path class="cls-4" d="M488.02,211.8c.35-.21,.31-.57-.11-.81l-5.78-3.34c-.42-.24-1.05-.27-1.42-.06l-8.52,4.92c-.18,.1-.24,.24-.24,.38v.75c.02,.15,.13,.3,.34,.43l5.78,3.34c.42,.24,1.05,.27,1.42,.06l8.52-4.92c.33-.19,.32-.51,0-.74Z"/><path class="cls-12" d="M488.47,211.45c0-.24-.17-.48-.45-.64l-5.78-3.34c-.49-.28-1.2-.31-1.63-.06l-8.52,4.92c-.22,.13-.34,.32-.35,.55h0v.79c.03,.23,.19,.43,.45,.59l5.78,3.34c.26,.15,.59,.23,.91,.23,.27,0,.53-.06,.72-.17l8.52-4.92c.21-.12,.34-.3,.35-.5,0-.14-.04-.28-.14-.41,.09-.11,.14-.23,.14-.37Zm-16.31,1.45h0c0-.05,.01-.13,.14-.2l8.52-4.92c.3-.17,.85-.15,1.21,.06l5.78,3.34c.18,.1,.24,.21,.24,.28,0,.08-.08,.14-.13,.17l-.27,.16,.09,.07-8.3,4.79c-.33,.19-.93,.16-1.31-.06l-5.78-3.34c-.08-.04-.14-.1-.19-.15v-.2Zm15.75-.53l-8.52,4.92c-.3,.17-.85,.15-1.21-.06l-5.78-3.34c-.14-.08-.23-.18-.24-.25v-.27s.05,.04,.08,.06l5.78,3.34c.25,.14,.56,.22,.85,.22,.25,0,.49-.05,.67-.16l8.37-4.83c.09,.07,.14,.15,.13,.21,0,.08-.09,.13-.14,.16Z"/></g><g><g><path class="cls-4" d="M481.29,207.45h0c-.27,0-.49-.22-.49-.49v-15.72c0-2.16,1.14-4.17,3-5.28l3.38-2.01c.23-.14,.54-.06,.68,.17h0c.14,.23,.06,.54-.17,.68l-3.38,2.01c-1.56,.93-2.52,2.61-2.52,4.43v15.72c0,.27-.22,.49-.49,.49Z"/><path class="cls-12" d="M481.29,207.66c-.39,0-.71-.32-.71-.71v-15.72c0-2.23,1.19-4.32,3.1-5.46l3.38-2.01c.33-.2,.77-.09,.97,.24,.1,.16,.12,.35,.08,.53s-.16,.34-.32,.43l-3.38,2.01c-1.49,.89-2.41,2.51-2.41,4.25v15.72c0,.39-.32,.71-.71,.71Zm6.13-23.57s-.1,.01-.14,.04l-3.38,2.01c-1.79,1.06-2.9,3.02-2.9,5.1v15.72c0,.16,.13,.28,.28,.28s.28-.13,.28-.28v-15.72c0-1.88,1-3.65,2.62-4.61l3.38-2.01c.07-.04,.11-.1,.13-.17,.02-.07,0-.15-.03-.21-.05-.09-.15-.14-.24-.14Z"/></g><g><path class="cls-4" d="M487.96,210.98h0c-.27,0-.49-.22-.49-.49v-15.72c0-2.16,1.14-4.17,3-5.28l3.38-2.01c.23-.14,.54-.06,.68,.17h0c.14,.23,.06,.54-.17,.68l-3.38,2.01c-1.56,.93-2.52,2.61-2.52,4.43v15.72c0,.27-.22,.49-.49,.49Z"/><path class="cls-12" d="M487.96,211.19c-.39,0-.71-.32-.71-.71v-15.72c0-2.23,1.19-4.32,3.1-5.46l3.38-2.01c.16-.1,.35-.12,.53-.08,.18,.05,.34,.16,.43,.32,.1,.16,.12,.35,.08,.53-.05,.18-.16,.34-.32,.43l-3.38,2.01c-1.49,.89-2.41,2.51-2.41,4.25v15.72c0,.39-.32,.71-.71,.71Zm6.13-23.57c-.05,0-.1,.01-.15,.04l-3.38,2.01c-1.79,1.06-2.9,3.02-2.9,5.1v15.72c0,.16,.13,.28,.28,.28s.28-.13,.28-.28v-15.72c0-1.88,1-3.65,2.62-4.61l3.38-2.01c.07-.04,.11-.1,.13-.17,.02-.07,0-.15-.03-.21-.04-.07-.1-.11-.17-.13-.02,0-.05,0-.07,0Z"/></g><g><path class="cls-4" d="M487,202.47c-.21,0-.44-.06-.65-.19l-4.16-2.4c-.71-.41-1.26-1.45-1.26-2.36v-.24c0-.57,.22-1.03,.6-1.25,.34-.2,.76-.18,1.16,.05l4.16,2.4c.71,.41,1.26,1.45,1.26,2.36v.24c0,.57-.22,1.03-.6,1.25-.15,.09-.33,.13-.51,.13Zm-.16-1.04c.11,.06,.16,.06,.17,.05,.02-.01,.1-.12,.1-.39v-.24c0-.57-.36-1.27-.77-1.51l-4.16-2.4c-.1-.06-.16-.06-.17-.05-.02,.01-.1,.12-.1,.39v.24c0,.57,.36,1.27,.77,1.51l4.16,2.4Z"/><path class="cls-12" d="M487,202.68c-.25,0-.51-.07-.76-.22l-4.16-2.4c-.77-.44-1.37-1.56-1.37-2.55v-.24c0-.65,.26-1.17,.7-1.43,.41-.23,.9-.21,1.37,.05l4.16,2.4c.77,.44,1.37,1.56,1.37,2.55v.24c0,.65-.26,1.17-.7,1.43-.19,.11-.39,.16-.61,.16Zm-4.97-6.58c-.14,0-.28,.03-.4,.1-.31,.18-.49,.57-.49,1.07v.24c0,.84,.52,1.81,1.16,2.18l4.16,2.4c.33,.19,.68,.21,.95,.05,.31-.18,.49-.57,.49-1.07v-.24c0-.84-.52-1.81-1.16-2.18l-4.16-2.4c-.18-.11-.37-.16-.55-.16Zm4.97,5.59c-.1,0-.2-.05-.26-.08h0l-4.16-2.4c-.47-.27-.87-1.05-.87-1.69v-.24c0-.28,.08-.5,.21-.57,.12-.07,.27,0,.38,.05l4.16,2.4c.47,.27,.87,1.05,.87,1.69v.24c0,.27-.07,.47-.18,.56-.04,.03-.09,.05-.14,.05Zm-4.86-4.54s0,.07,0,.12v.24c0,.49,.31,1.13,.66,1.32l4.11,2.37s0-.07,0-.12v-.24c0-.49-.31-1.13-.66-1.33l-4.11-2.37Z"/></g></g><g><polygon class="cls-1" points="484.57 199.57 474.04 193.5 463.52 199.57 463.52 199.57 463.52 211.72 474.04 217.8 474.04 205.68 484.57 199.57"/><polygon class="cls-11" points="463.52 211.68 474.04 217.76 474.04 205.64 463.52 199.53 463.52 199.53 463.52 211.68"/><path class="cls-12" d="M484.78,199.45l-10.73-6.2-10.7,6.18-.03,.02h0v.24h0v12.15l10.52,6.08h0l.21,.12,.21-.12h0l10.42-6.01,.11-.06v-12.15h0v-.24Zm-10.73-5.71l4.95,2.86-10.1,5.83-4.95-2.86,10.1-5.83Zm-.21,23.7l-10.1-5.83v-11.67l10.1,5.83v11.67Zm4.49-14.5l-4.28,2.47-4.95-2.86,10.1-5.83,4.95,2.86-5.82,3.36Z"/><path class="cls-12" d="M469.86,205.66l-1.95-1.13c-.22-.12-.43-.14-.62-.03-.2,.12-.32,.37-.32,.68,0,.53,.32,1.13,.72,1.37l1.95,1.13c.12,.07,.24,.1,.35,.1,.09,0,.18-.02,.26-.07,.2-.12,.32-.37,.32-.68,0-.53-.32-1.13-.72-1.36Zm.19,1.68c-.06,.03-.15,0-.19-.03l-1.95-1.13c-.28-.16-.51-.62-.51-1,0-.19,.06-.29,.11-.32,.06-.04,.15,0,.19,.03l.13,.08c.05,.46,.32,.94,.66,1.13l1.67,.96c0,.16-.06,.25-.1,.27Z"/><path class="cls-1" d="M483.05,208.17c-.1-.06-.22-.05-.34,.02l-1.55,.9c-.23,.13-.41,.47-.41,.78v1.67c0,.18,.06,.32,.18,.38,.04,.03,.09,.04,.14,.04,.06,0,.13-.02,.2-.06l1.55-.9h0c.23-.13,.41-.47,.41-.78v-1.67c0-.18-.06-.32-.18-.38Z"/></g><g><path class="cls-4" d="M489.14,209.43l-1.45-.81h0c-.18-.1-.37-.17-.57-.2-1.43-.24-2.94,1.24-3.32,3.25-.3,1.59,.21,2.98,1.15,3.52h0l1.38,.76,.3-.68c.98-.4,1.86-1.5,2.19-2.9,.18-.77,.17-1.51,0-2.15l.34-.78Z"/><path class="cls-12" d="M490.11,210.03c-.19-.29-.43-.52-.7-.69h0l-1.84-1.03h0c-.14-.04-.28-.08-.42-.11-1.56-.26-3.16,1.27-3.57,3.41-.31,1.64,.19,3.14,1.26,3.75l1.41,.78c.27,.18,.56,.29,.88,.33,.08,0,.15,.01,.23,.01,1.37,0,2.74-1.36,3.18-3.22,.28-1.2,.12-2.4-.42-3.22Zm-6.11,1.66c.33-1.76,1.58-3.1,2.8-3.1,.09,0,.19,0,.28,.02,.17,.03,.34,.09,.5,.18l.44,.25c-1.34,.18-2.57,1.57-2.92,3.42-.19,1.02-.07,1.99,.32,2.73l-.38-.21c-.89-.51-1.32-1.86-1.05-3.3Z"/><path class="cls-4" d="M487.63,215.28s-.1,0-.15,0c-.35-.04-.65-.23-.87-.54-.36-.49-.48-1.25-.33-2.03,.27-1.35,1.26-2.32,2.2-2.18,.34,.05,.64,.25,.86,.58,.35,.52,.45,1.3,.28,2.08h0c-.28,1.21-1.13,2.1-1.99,2.1Zm.66-4.56c-.77,0-1.58,.88-1.8,2.02-.14,.72-.03,1.42,.29,1.86,.19,.26,.44,.42,.73,.45,.79,.1,1.64-.77,1.9-1.93,.17-.73,.07-1.44-.25-1.92-.18-.27-.43-.44-.72-.49-.05,0-.1-.01-.16-.01Z"/><path class="cls-4" d="M488.55,213.04c-.15,.67-.65,1.17-1.11,1.11-.47-.06-.75-.66-.61-1.35,.14-.71,.66-1.23,1.15-1.16,.48,.08,.74,.71,.58,1.4Z"/><path class="cls-5" d="M488.91,213.26c-.15,.67-.65,1.17-1.11,1.11-.47-.06-.75-.66-.61-1.35,.14-.71,.66-1.23,1.15-1.16,.48,.08,.74,.71,.58,1.4Z"/></g></g></g><g><path class="cls-8" d="M568.46,138.57l-7.94,4.59c-1.87,1.08-4.17,1.08-6.04,0l-7.94-4.59c-1.12-.65-1.12-2.26,0-2.91l10.12-5.84c.52-.3,1.16-.3,1.68,0l10.12,5.84c1.12,.65,1.12,2.26,0,2.91Z"/><path class="cls-8" d="M560.02,143.44l-7.94,4.59c-1.87,1.08-4.17,1.08-6.04,0l-7.94-4.59c-1.12-.65-1.12-2.26,0-2.91l10.12-5.84c.52-.3,1.16-.3,1.68,0l10.12,5.84c1.12,.65,1.12,2.26,0,2.91Z"/><g><g><polygon class="cls-8" points="567.53 121.02 557 114.95 546.48 121.02 546.48 121.02 546.48 133.18 557 139.25 557 127.13 567.53 121.02"/><path class="cls-12" d="M567.74,120.9l-10.73-6.2-10.7,6.18-.03,.02h0v.24h0v12.15l10.52,6.08h0l.21,.12,.21-.12h0l10.42-6.01,.11-.06v-12.15h0v-.24Zm-10.73-5.71l4.95,2.86-10.1,5.83-4.95-2.86,10.1-5.83Zm-.21,23.7l-10.1-5.83v-11.67l10.1,5.83v11.67Zm4.49-14.5l-4.28,2.47-4.95-2.86,10.1-5.83,4.95,2.86-5.82,3.36Z"/><path class="cls-12" d="M552.82,127.11l-1.95-1.13c-.22-.12-.43-.14-.62-.03-.2,.12-.32,.37-.32,.68,0,.53,.32,1.13,.72,1.36l1.95,1.13c.12,.07,.24,.1,.35,.1,.09,0,.18-.02,.26-.07,.2-.12,.32-.37,.32-.68,0-.53-.32-1.13-.72-1.36Zm.19,1.68c-.06,.03-.15,0-.19-.03l-1.95-1.13c-.28-.16-.51-.62-.51-1,0-.19,.06-.29,.11-.32,.06-.04,.15,0,.19,.03l.13,.08c.05,.46,.32,.94,.66,1.13l1.67,.96c0,.16-.06,.25-.1,.27Zm.08-.53l-1.53-.89c-.24-.14-.45-.47-.53-.81l1.58,.91c.23,.13,.42,.46,.48,.79Z"/><path class="cls-8" d="M566.01,129.62c-.1-.06-.22-.05-.34,.02l-1.55,.9c-.23,.13-.41,.47-.41,.78v1.67c0,.18,.06,.32,.18,.38,.04,.03,.09,.04,.14,.04,.06,0,.13-.02,.2-.06l1.55-.9h0c.23-.13,.41-.47,.41-.78v-1.67c0-.18-.06-.32-.18-.38Z"/></g><g><polygon class="cls-5" points="557 127.11 546.48 121.04 535.95 127.11 535.95 127.11 535.95 139.27 546.48 145.34 546.48 133.22 557 127.11"/><polygon class="cls-13" points="535.95 139.31 546.48 145.39 546.48 133.27 535.95 127.16 535.95 127.16 535.95 139.31"/><path class="cls-12" d="M557.21,126.99l-10.73-6.2-10.7,6.18-.03,.02h0v.24h0v12.15l10.52,6.08h0l.21,.12,.21-.12h0l10.42-6.01,.11-.06v-12.15h0v-.24Zm-10.74-5.71l4.95,2.86-10.1,5.83-4.95-2.86,10.1-5.83Zm-.21,23.7l-10.1-5.83v-11.67l10.1,5.83v11.67Zm4.49-14.5l-4.28,2.47-4.95-2.86,10.1-5.83,4.95,2.86-5.82,3.36Z"/><path class="cls-12" d="M542.3,133.21l-1.95-1.13c-.22-.12-.43-.14-.62-.03-.2,.12-.32,.37-.32,.68,0,.53,.32,1.13,.72,1.36l1.95,1.13c.12,.07,.24,.1,.35,.1,.09,0,.18-.02,.26-.07,.2-.12,.32-.37,.32-.68,0-.53-.32-1.13-.72-1.36Zm.19,1.68c-.06,.03-.15,0-.19-.03l-1.95-1.13c-.28-.16-.51-.62-.51-1,0-.19,.06-.29,.11-.32,.06-.04,.15,0,.19,.03l.13,.08c.05,.46,.32,.94,.66,1.13l1.67,.96c0,.16-.06,.25-.1,.27Z"/><path class="cls-5" d="M555.48,135.72c-.1-.06-.22-.05-.34,.02l-1.55,.9c-.23,.13-.41,.47-.41,.78v1.67c0,.18,.06,.32,.18,.38,.04,.03,.09,.04,.14,.04,.06,0,.13-.02,.2-.06l1.55-.9h0c.23-.13,.41-.47,.41-.78v-1.67c0-.18-.06-.32-.18-.38Z"/></g><g><polygon class="cls-1" points="567.53 108.72 557 102.64 546.48 108.72 546.48 108.72 546.48 120.87 557 126.95 557 114.83 567.53 108.72"/><polygon class="cls-11" points="546.48 120.87 557 126.95 557 114.83 546.48 108.72 546.48 108.72 546.48 120.87"/><path class="cls-12" d="M567.74,108.6l-10.73-6.2-10.7,6.18-.03,.02h0v.24h0v12.15l10.52,6.08h0l.21,.12,.21-.12h0l10.42-6.01,.11-.06v-12.15h0v-.24Zm-10.74-5.71l4.95,2.86-10.1,5.83-4.95-2.86,10.1-5.83Zm-.21,23.7l-10.1-5.83v-11.67l10.1,5.83v11.67Zm4.49-14.5l-4.28,2.47-4.95-2.86,10.1-5.83,4.95,2.86-5.82,3.36Z"/><path class="cls-12" d="M552.82,114.81l-1.95-1.13c-.22-.12-.43-.14-.62-.03-.2,.12-.32,.37-.32,.68,0,.53,.32,1.13,.72,1.37l1.95,1.13c.12,.07,.24,.1,.35,.1,.09,0,.18-.02,.26-.07,.2-.12,.32-.37,.32-.68,0-.53-.32-1.13-.72-1.36Zm.19,1.68c-.06,.03-.15,0-.19-.03l-1.95-1.13c-.28-.16-.51-.62-.51-1,0-.19,.06-.29,.11-.32,.06-.04,.15,0,.19,.03l.13,.08c.05,.46,.32,.94,.66,1.13l1.67,.96c0,.16-.06,.25-.1,.27Z"/><path class="cls-8" d="M566,117.32c-.1-.06-.22-.05-.34,.02l-1.55,.9c-.23,.13-.41,.47-.41,.78v1.67c0,.18,.06,.32,.18,.38,.04,.03,.09,.04,.14,.04,.06,0,.13-.02,.2-.06l1.55-.9h0c.23-.13,.41-.47,.41-.78v-1.67c0-.18-.06-.32-.18-.38Z"/></g><polygon class="cls-1" points="557.32 139.31 557.11 139.45 557.11 126.93 557.16 126.9 567.74 120.79 567.74 121.04 557.32 127.05 557.32 139.31"/></g></g><g><path class="cls-8" d="M551.81,197.06l-14.46,8.19c-1.95,1.11-4.34,1.09-6.28-.03l-21.24-12.33c-.96-.56-.95-1.94,.01-2.49l17.61-9.98,24.37,14.15c.96,.56,.95,1.94-.01,2.49Z"/><g id="_-4"><g><g><g><polygon class="cls-8" points="519.5 180.9 519.5 182.19 542.85 195.63 542.85 194.38 519.5 180.9"/><g><polygon class="cls-8" points="542.85 194.38 519.5 180.9 522.3 179.29 545.64 192.76 542.85 194.38"/><polygon class="cls-14" points="542.85 194.38 519.97 181.17 522.3 179.82 545.23 193.07 542.85 194.38"/><path class="cls-12" d="M545.81,192.86v-.2h0l-.17-.1-23.26-13.43-.09-.05-2.79,1.61h0l-.17,.1h0v1.49l23.34,13.44,.17,.1h0l.17-.1,2.79-1.61v-1.26Zm-.51-.1l-.67,.39-1.78,1.03-8.29-4.78-14.71-8.49,2.45-1.41,23,13.28Zm-25.62-10.67v-.9l23,13.28v.86l-23-13.24Z"/></g></g><g><polygon class="cls-8" points="515.69 182.94 515.69 184.24 539.03 197.67 539.03 196.42 515.69 182.94"/><g><polygon class="cls-8" points="539.03 196.42 515.69 182.94 518.48 181.33 541.83 194.81 539.03 196.42"/><polygon class="cls-14" points="539.03 196.42 516.16 183.21 518.48 181.87 541.42 195.11 539.03 196.42"/><path class="cls-12" d="M542,194.91v-.2h0l-.17-.1-23.26-13.43-.09-.05-2.79,1.61h0l-.17,.1h0v1.49l23.34,13.44,.17,.1h0l.17-.1,2.79-1.61v-1.26Zm-.51-.1l-.67,.39-1.78,1.03-8.29-4.78-14.71-8.49,2.45-1.41,23,13.28Zm-25.62-10.67v-.9l23,13.28v.86l-23-13.24Z"/></g></g><g><polygon class="cls-8" points="511.88 185.15 511.88 186.44 535.22 199.88 535.22 198.62 511.88 185.15"/><g><polygon class="cls-8" points="535.22 198.62 511.88 185.15 514.67 183.54 538.01 197.01 535.22 198.62"/><polygon class="cls-14" points="535.22 198.62 512.35 185.42 514.67 184.07 537.61 197.32 535.22 198.62"/><path class="cls-12" d="M538.19,197.11v-.2h0l-.17-.1-23.26-13.43-.09-.05-2.79,1.61h0l-.17,.1h0v1.49l23.34,13.44,.17,.1h0l.17-.1,2.79-1.61v-1.26Zm-.51-.1l-.67,.39-1.78,1.03-8.29-4.78-14.71-8.49,2.45-1.41,23,13.28Zm-25.62-10.67v-.9l23,13.28v.86l-23-13.24Z"/></g></g><g><polygon class="cls-8" points="508.07 187.36 508.07 188.65 531.41 202.09 531.41 200.83 508.07 187.36"/><g><polygon class="cls-8" points="531.41 200.83 508.07 187.36 510.86 185.75 534.2 199.22 531.41 200.83"/><polygon class="cls-14" points="531.41 200.83 508.53 187.63 510.86 186.28 533.8 199.53 531.41 200.83"/><path class="cls-12" d="M534.37,199.32v-.2h0l-.17-.1-23.26-13.43-.09-.05-2.79,1.61h0l-.17,.1h0v1.49l23.34,13.44,.17,.1h0l.17-.1,2.79-1.61v-1.26Zm-.51-.1l-.67,.39-1.78,1.03-8.29-4.78-14.71-8.49,2.45-1.41,23,13.28Zm-25.62-10.67v-.9l23,13.28v.86l-23-13.24Z"/></g></g></g><g><g><polygon class="cls-8" points="519.5 176.83 519.5 178.13 542.85 191.56 542.85 190.31 519.5 176.83"/><g><polygon class="cls-8" points="542.85 190.31 519.5 176.83 522.3 175.22 545.64 188.7 542.85 190.31"/><polygon class="cls-14" points="542.85 190.31 519.97 177.1 522.3 175.76 545.23 189 542.85 190.31"/><path class="cls-12" d="M545.81,188.79v-.2h0l-.17-.1-23.26-13.43-.09-.05-2.79,1.61h0l-.17,.1h0v1.49l23.34,13.44,.17,.1h0l.17-.1,2.79-1.61v-1.26Zm-.51-.1l-.67,.39-1.78,1.03-8.29-4.78-14.71-8.49,2.45-1.41,23,13.28Zm-25.62-10.67v-.9l23,13.28v.86l-23-13.24Z"/></g></g><g><polygon class="cls-8" points="515.69 178.88 515.69 180.17 539.03 193.61 539.03 192.35 515.69 178.88"/><g><polygon class="cls-8" points="539.03 192.35 515.69 178.88 518.48 177.26 541.83 190.74 539.03 192.35"/><polygon class="cls-14" points="539.03 192.35 516.16 179.14 518.48 177.8 541.42 191.04 539.03 192.35"/><path class="cls-12" d="M542,190.84v-.2h0l-.17-.1-23.26-13.43-.09-.05-2.79,1.61h0l-.17,.1h0v1.49l23.34,13.44,.17,.1h0l.17-.1,2.79-1.61v-1.26Zm-.51-.1l-.67,.39-1.78,1.03-8.29-4.78-14.71-8.49,2.45-1.41,23,13.28Zm-25.62-10.67v-.9l23,13.28v.86l-23-13.24Z"/></g></g><g><polygon class="cls-8" points="511.88 181.08 511.88 182.37 535.22 195.81 535.22 194.56 511.88 181.08"/><g><polygon class="cls-8" points="535.22 194.56 511.88 181.08 514.67 179.47 538.01 192.94 535.22 194.56"/><polygon class="cls-14" points="535.22 194.56 512.35 181.35 514.67 180 537.61 193.25 535.22 194.56"/><path class="cls-12" d="M538.19,193.04v-.2h0l-.17-.1-23.26-13.43-.09-.05-2.79,1.61h0l-.17,.1h0v1.49l23.34,13.44,.17,.1h0l.17-.1,2.79-1.61v-1.26Zm-.51-.1l-.67,.39-1.78,1.03-8.29-4.78-14.71-8.49,2.45-1.41,23,13.28Zm-25.62-10.67v-.9l23,13.28v.86l-23-13.24Z"/></g></g><g><polygon class="cls-8" points="508.07 183.29 508.07 184.58 531.41 198.02 531.41 196.77 508.07 183.29"/><g><polygon class="cls-8" points="531.41 196.77 508.07 183.29 510.86 181.68 534.2 195.15 531.41 196.77"/><polygon class="cls-14" points="531.41 196.77 508.53 183.56 510.86 182.22 533.8 195.46 531.41 196.77"/><path class="cls-12" d="M534.37,195.25v-.2h0l-.17-.1-23.26-13.43-.09-.05-2.79,1.61h0l-.17,.1h0v1.49l23.34,13.44,.17,.1h0l.17-.1,2.79-1.61v-1.26Zm-.51-.1l-.67,.39-1.78,1.03-8.29-4.78-14.71-8.49,2.45-1.41,23,13.28Zm-25.62-10.67v-.9l23,13.28v.86l-23-13.24Z"/></g></g></g><g><polygon class="cls-8" points="525.09 197.21 525.09 194.38 528.63 196.42 528.63 199.23 525.09 197.21"/><path class="cls-12" d="M531.07,197.82l-2.27-1.31v-.2l-3.88-2.24v3.23l3.88,2.22v-.39l2.27-1.31Zm-2.61,1.11l-3.19-1.82v-2.44l3.19,1.85v2.42Z"/><polygon class="cls-8" points="510.55 188.77 510.55 186.01 514.08 188.08 514.08 190.83 510.55 188.77"/><path class="cls-12" d="M516.52,189.42l-2.27-1.31v-.14l-3.88-2.26v3.16l3.88,2.26v-.4l2.27-1.31Zm-2.61,1.11l-3.19-1.86v-2.36l3.19,1.87v2.36Z"/><polygon class="cls-8" points="517.65 192.86 517.65 190.11 521.18 192.17 521.18 194.92 517.65 192.86"/><path class="cls-12" d="M523.62,193.52l-2.27-1.31v-.14l-3.88-2.26v3.16l3.88,2.26v-.4l2.27-1.31Zm-2.61,1.11l-3.19-1.86v-2.36l3.19,1.86v2.36Z"/></g></g><g><polygon class="cls-1" points="536.78 173.93 526.26 167.85 515.73 173.93 515.73 173.93 515.73 186.08 526.26 192.16 526.26 180.04 536.78 173.93"/><polygon class="cls-11" points="515.73 186.04 526.26 192.12 526.26 180 515.73 173.89 515.73 173.89 515.73 186.04"/><path class="cls-12" d="M536.99,173.81l-10.73-6.2-10.7,6.18-.03,.02h0v.24h0v12.15l10.52,6.08h0l.21,.12,.21-.12h0l10.42-6.01,.11-.06v-12.15h0v-.24Zm-10.74-5.71l4.95,2.86-10.1,5.83-4.95-2.86,10.1-5.83Zm-.21,23.7l-10.1-5.83v-11.67l10.1,5.83v11.67Zm4.49-14.5l-4.28,2.47-4.95-2.86,10.1-5.83,4.95,2.86-5.82,3.36Z"/><path class="cls-12" d="M522.08,180.02l-1.95-1.13c-.22-.12-.43-.14-.62-.03-.2,.12-.32,.37-.32,.68,0,.53,.32,1.13,.72,1.37l1.95,1.13c.12,.07,.24,.1,.35,.1,.09,0,.18-.02,.26-.07,.2-.12,.32-.37,.32-.68,0-.53-.32-1.13-.72-1.36Zm.19,1.68c-.06,.03-.15,0-.19-.03l-1.95-1.13c-.28-.16-.51-.62-.51-1,0-.19,.06-.29,.11-.32,.06-.04,.15,0,.19,.03l.13,.08c.05,.46,.32,.94,.66,1.13l1.67,.96c0,.16-.06,.25-.1,.27Z"/><path class="cls-1" d="M535.26,182.53c-.1-.06-.22-.05-.34,.02l-1.55,.9c-.23,.13-.41,.47-.41,.78v1.67c0,.18,.06,.32,.18,.38,.04,.03,.09,.04,.14,.04,.06,0,.13-.02,.2-.06l1.55-.9h0c.23-.13,.41-.47,.41-.78v-1.67c0-.18-.06-.32-.18-.38Z"/></g></g></g><g><path class="cls-8" d="M516.64,155.44l-62.91,36.4c-1.58,.92-3.54,.92-5.12,0l-29.09-16.81c-1.21-.7-1.21-2.45,0-3.15l64.56-37.36c.56-.33,1.26-.33,1.82,0l30.74,17.77c1.21,.7,1.21,2.45,0,3.15Z"/><g><g><polygon class="cls-8" points="447.07 185.25 417.49 168.17 417.49 135.58 447.07 152.66 447.07 185.25"/><polygon class="cls-8" points="475.36 102.13 417.49 135.54 447.08 152.62 504.95 119.21 475.36 102.13"/><path class="cls-12" d="M417.49,135.34l-.19,.16v35.08l3.97,2.29,1.89-1.2,19.22,11.09,.85,2.78,3.66,2.11,.39-.05v-35.06l-29.41-16.99-.38-.22Zm3.61,36.98l-3.41-1.97v-1.84l.9,.52,3.19,1.84-.68,1.45Zm25.78,14.89l-3.33-1.92-.68-2.24,4.01,2.32v1.84Zm0-2.29l-.24-.14-5.53-3.2v-1.12l-3.8-2.2v1.12l-10.04-5.8v-1.12l-3.8-2.2v1.12l-5.77-3.33v-32.14l29.19,16.85v32.14Z"/><path class="cls-14" d="M475.34,103.06l-57.17,33.02,29.21,16.84,57.16-33-29.2-16.86Zm-28.26,46.9l-25.33-14.33,53.59-30.96,25.23,14.57-53.49,30.72Z"/><path class="cls-10" d="M504.94,118.98l-57.97,33.47-.1,.06v35.16l.16,.09,3.89-2.25,.85-2.78,47.57-27.46,1.83,1.24,3.97-2.29v-35.1l-.2-.12Zm-4.15,36.72l-1.06-.67,.58-.34,.04,.09,.43,.91Z"/><path class="cls-8" d="M450.02,153.38l-.1,.06v27.57l2.96-1.7,.1-.06h0l2.01-1.15,.07-.04h0l2.52-1.45,.15-.08h0l2.08-1.2h0l2.5-1.44,.17-.08h0l2.08-1.21h0l2.48-1.43,.19-.08h0l2.08-1.22h0l2.46-1.42,.21-.08h0l2.08-1.23h0l2.54-1.46,.14-.08h0l.23-.13,1.85-1.04v-.02l2.48-1.43,.19-.08h0l2.08-1.22h0l2.46-1.42,.21-.08h0l2.08-1.23h0l2.44-1.4,.23-.08h0l2.08-1.24h0l2.43-1.39,.24-.08h0l2.08-1.25h0l2.64-1.52h.04v-.02l1.98-1.14,.1-.06v-27.57l-52.54,30.2Zm26.73,11.76h-.02v-26.66l1.69-.97v26.67l-1.67,.96Zm-23.77-13.01l1.69-.97v26.67l-1.69,.95v-26.65Zm2.08-1.19l2.28-1.31v26.6l-2.28,.02v-25.3Zm2.67,25.14v-26.67l1.69-.97v26.67l-1.69,.97Zm2.07-27.86l2.29-1.32v26.61l-2.28,.02v-25.31h-.01Zm2.68,25.13v-26.67l1.69-.97v26.67l-1.69,.97Zm2.05-27.85l2.31-1.33v26.62l-2.28,.02v-25.31h-.03Zm2.7,25.12v-26.67l1.69-.97v26.67l-1.69,.97Zm2.03-27.84l2.33-1.34v26.63l-2.28,.02v-25.31h-.05Zm2.72,25.11v-26.67l1.69-.97v26.67l-1.69,.97Zm2.01-27.83l2.35-1.35v26.59l-2.28,.02v-25.26h-.07Zm4.82-2.77l2.28-1.31v26.62l-2.28,.02v-25.33Zm2.67,25.14v-26.67l1.69-.97v26.67l-1.69,.97Zm2.03-27.84l2.33-1.34v26.63l-2.28,.02v-25.31h-.05Zm2.72,25.11v-26.67l1.69-.97v26.67l-1.69,.97Zm2.08-27.87l2.28-1.31v26.64l-2.28,.02v-25.35Zm2.67,25.14v-26.67l1.69-.97v26.67l-1.69,.97Zm2.08-27.87l2.28-1.31v26.65l-2.28,.02v-25.36Zm2.67,25.14v-26.67l1.69-.97v26.67l-1.69,.97Zm2.08-27.87l2.28-1.31v26.53l-2.28,.02v-25.24Zm2.67,25.08v-26.62l1.69-.97v26.64l-1.69,.95Zm-47.88,.91v26.57l-2.28,.02v-25.27l2.28-1.31Z"/><g><polygon class="cls-14" points="428.99 131.8 430.7 130.8 455.25 144.82 453.54 145.81 428.99 131.8"/><polygon class="cls-14" points="424.71 134.32 426.42 133.33 450.97 147.35 449.26 148.33 424.71 134.32"/><polygon class="cls-14" points="433.47 129.24 435.19 128.25 459.74 142.26 458.03 143.25 433.47 129.24"/><polygon class="cls-14" points="437.86 126.62 439.58 125.62 464.13 139.64 462.42 140.63 437.86 126.62"/><polygon class="cls-14" points="442.17 124.06 443.89 123.07 468.43 137.08 466.72 138.07 442.17 124.06"/><polygon class="cls-14" points="446.65 121.51 448.37 120.51 472.92 134.53 471.21 135.51 446.65 121.51"/><polygon class="cls-14" points="451.04 118.88 452.76 117.89 477.31 131.9 475.6 132.89 451.04 118.88"/><polygon class="cls-14" points="455.55 116.4 457.27 115.41 481.82 129.42 480.11 130.41 455.55 116.4"/><polygon class="cls-14" points="459.94 113.78 461.66 112.78 486.21 126.8 484.5 127.79 459.94 113.78"/><polygon class="cls-14" points="464.53 111.22 466.25 110.23 490.8 124.24 489.09 125.23 464.53 111.22"/><polygon class="cls-14" points="469.01 108.67 470.73 107.67 495.28 121.69 493.57 122.67 469.01 108.67"/><polygon class="cls-14" points="473.4 106.04 475.12 105.05 499.67 119.06 497.96 120.05 473.4 106.04"/></g><path class="cls-12" d="M447.08,152.85l-.1-.06-29.67-17.13,.17-.32,57.87-33.44,.1,.06,29.68,17.14v.23l-58.06,33.52Zm-29.2-17.31l29.2,16.86,57.48-33.19-29.2-16.86-57.48,33.19Z"/><path class="cls-12" d="M500.56,119.24l-.29-.17h0l-24.93-14.4-.1-.06-8.94,5.18-.03-.02-2.5,1.45,.03,.02-1.96,1.14-.07-.04-2.5,1.45,.07,.04-1.96,1.13-.06-.03-2.5,1.45,.06,.03-10.8,6.26h-.01l-2.5,1.44h.01l-19.85,11.52,24.95,14.2,.34,.19h0l.1,.06,53.43-30.85Zm-76.9,17.02l1.21-1.79,24.08,14.12-1.82,1.05-23.47-13.38Zm20.43-13.13l24.62,14.05-1.71,.99-24.62-14.05,1.72-1Zm13.3-7.71l24.65,14.07-1.71,.99-24.65-14.06,1.72-1Zm1.38,.31l.96-1.66h0l24.66,14.06-1.97,1.14-.04-.02v-.02l-23.62-13.49Zm3.08-2.89l24.65,14.08-1.71,.99-24.66-14.07,1.72-1Zm1.42,.33l.96-1.67,24.63,14.05-1.97,1.14h0l.02-.03-23.63-13.49Zm3.03-2.91l24.66,14.08-1.71,.99-24.67-14.07,1.72-1Zm29.11,11.51l-1.71,.99-24.66-14.07,1.72-1,24.65,14.07Zm-23.16-13.69l.96-1.67,24.54,14-1.94,1.12-23.56-13.45Zm1.28-1.94l1.72-1,24.53,14.09-1.63,.94-24.61-14.04Zm19.77,16.83l-1.94,1.12-23.61-13.48,.96-1.67,24.59,14.03Zm-20.14,11.63l-1.71,.99-24.61-14.04,1.72-1,24.6,14.04Zm-23.11-13.66l.96-1.67,24.49,13.97-1.94,1.12-23.51-13.42Zm1.28-1.94l1.72-1,.74,.42v.02l23.79,13.59-1.69,.97-24.56-14.01Zm2.99-.72l.95-1.65,24.64,14.06-1.92,1.11-23.67-13.52Zm16.73,17.52l-1.94,1.12-23.56-13.45,.96-1.67,24.54,14Zm-43.56-1.88l23.43,13.5-1.61,.93-24.14-14.15,1.39-.79,.92,.52Zm.39-.22l.89-1.59,24.48,13.97-1.84,1.06-23.53-13.44Zm1.21-1.86l1.72-1,24.55,14.02-1.71,.99-24.56-14.01Zm3.21-.61l.96-1.67,24.44,13.94-1.94,1.12-23.46-13.39Zm1.28-1.94l1.72-1,24.53,13.98-1.73,1-24.51-13.98Zm3.07-.7l.96-1.67,24.54,14-1.94,1.12-23.56-13.45Zm1.28-1.94l1.72-1,.87,.5h0l23.73,13.56-1.7,.98-24.61-14.04Zm3.12-.64l.96-1.66,24.57,14.01-1.93,1.11-23.59-13.47Z"/><path class="cls-12" d="M445.14,181.78l-25.72-14.85v-28.13l25.72,14.85v28.13Zm-25.24-15.13l24.75,14.29v-27.01l-24.75-14.29v27.01Z"/><polygon class="cls-12" points="432.09 173.97 431.61 173.97 431.67 146.43 432.15 146.44 432.09 173.97"/><path class="cls-12" d="M426.6,159.75l-.04-.02c.13,.19,.22,.42,.22,.62,0,.35-.25,.5-.55,.32l-1.28-.74c-.31-.18-.55-.61-.55-.96,0-.2,.09-.33,.22-.37l-.04-.02c-.49-.28-.88-.05-.88,.51s.39,1.25,.88,1.53l2.03,1.17c.49,.28,.88,.05,.88-.51s-.39-1.25-.88-1.53Z"/><path class="cls-12" d="M439.6,167.25l-.04-.02c.13,.19,.22,.42,.22,.62,0,.35-.25,.5-.55,.32l-1.28-.74c-.31-.18-.55-.61-.55-.96,0-.2,.09-.33,.22-.37l-.04-.02c-.49-.28-.88-.05-.88,.51s.39,1.25,.88,1.53l2.03,1.17c.49,.28,.88,.05,.88-.51s-.39-1.25-.88-1.53Z"/></g><g><polygon class="cls-11" points="462.65 120.72 462.65 118.63 472.6 124.44 472.4 126.39 462.65 120.72"/><g><polygon class="cls-11" points="482.16 118.63 472.4 124.26 462.65 118.63 472.4 113 482.16 118.63"/><polygon class="cls-11" points="478.88 118.63 472.4 122.37 465.92 118.63 472.4 114.89 478.88 118.63"/><path class="cls-1" d="M472.4,113.68l-9.17,5.29,9.69,5.67,9.23-5.33-9.76-5.63Zm0,8.69l-5.53-3.4,5.53-3.95,6.38,3.55-6.38,3.8Z"/><path class="cls-12" d="M482.35,118.52h0l-.19-.11-9.76-5.63-9.76,5.63h0l-.19,.11h0v2.38l9.76,5.64,.19,.11h0l.2-.11,9.76-5.57v-2.45h0Zm-10.14,7.57l-9.37-5.42v-1.7l9.37,5.41v1.71Zm.19-2.05l-9.37-5.41,9.37-5.41,9.37,5.41-9.37,5.41Z"/><path class="cls-12" d="M478.98,118.8l.29-.17-6.68-3.85-.19-.11-6.87,3.97,6.87,3.97,5.93-3.42,.65-.38h0Zm-6.38-3.57l5.9,3.4-1.01,.58-4.88-2.76v-1.23Zm-4.88,4.22l4.69-2.65,4.69,2.65-4.69,2.71-4.69-2.71Z"/></g></g></g></g><g><path class="cls-8" d="M439.41,201l-62.91,36.4c-1.58,.92-3.54,.92-5.12,0l-29.09-16.81c-1.21-.7-1.21-2.45,0-3.15l64.56-37.36c.56-.33,1.26-.33,1.82,0l30.74,17.77c1.21,.7,1.21,2.45,0,3.15Z"/><polygon class="cls-8" points="369.24 230.12 339.66 213.04 339.66 180.45 369.24 197.53 369.24 230.12"/><polygon class="cls-8" points="397.52 146.99 339.65 180.4 369.24 197.49 427.11 164.08 397.52 146.99"/><path class="cls-12" d="M339.65,180.21l-.19,.16v35.08l3.97,2.29,1.89-1.2,19.22,11.09,.85,2.78,3.66,2.11,.39-.05v-35.06l-29.41-16.99-.38-.22Zm3.61,36.98l-3.41-1.97v-1.84l.9,.52,3.19,1.84-.68,1.45Zm25.78,14.89l-3.33-1.92-.68-2.24,4.01,2.32v1.84Zm0-2.29l-.24-.14-5.53-3.2v-1.12l-3.8-2.2v1.12l-10.04-5.8v-1.12l-3.8-2.2v1.12l-5.77-3.33v-32.14l29.19,16.85v32.14Z"/><path class="cls-14" d="M397.5,147.93l-57.17,33.02,29.21,16.84,57.16-33-29.2-16.86Zm-28.26,46.9l-25.33-14.33,53.59-30.96,25.23,14.57-53.49,30.72Z"/><path class="cls-10" d="M427.11,163.84l-57.97,33.47-.1,.06v35.16l.16,.09,3.89-2.25,.85-2.78,47.57-27.46,1.83,1.24,3.97-2.29v-35.1l-.2-.12Zm-4.15,36.72l-1.06-.67,.58-.34,.04,.09,.43,.91Z"/><path class="cls-8" d="M372.19,198.25l-.1,.06v27.57l2.96-1.7,.1-.06h0l2.01-1.15,.07-.04h0l2.52-1.45,.15-.08h0l2.08-1.2h0l2.5-1.44,.17-.08h0l2.08-1.21h0l2.48-1.43,.19-.08h0l2.08-1.22h0l2.46-1.42,.21-.08h0l2.08-1.23h0l2.54-1.46,.14-.08h0l.23-.13,1.85-1.04v-.02l2.48-1.43,.19-.08h0l2.08-1.22h0l2.46-1.42,.21-.08h0l2.08-1.23h0l2.44-1.4,.23-.08h0l2.08-1.24h0l2.43-1.39,.24-.08h0l2.08-1.25h0l2.64-1.52h.04v-.02l1.98-1.14,.1-.06v-27.57l-52.54,30.2Zm26.73,11.76h-.02v-26.66l1.69-.97v26.67l-1.67,.96Zm-23.77-13.01l1.69-.97v26.67l-1.69,.95v-26.65Zm2.08-1.19l2.28-1.31v26.6l-2.28,.02v-25.3Zm2.67,25.14v-26.67l1.69-.97v26.67l-1.69,.97Zm2.07-27.86l2.29-1.32v26.61l-2.28,.02v-25.31h-.01Zm2.68,25.13v-26.67l1.69-.97v26.67l-1.69,.97Zm2.05-27.85l2.31-1.33v26.62l-2.28,.02v-25.31h-.03Zm2.7,25.12v-26.67l1.69-.97v26.67l-1.69,.97Zm2.03-27.84l2.33-1.34v26.63l-2.28,.02v-25.31h-.05Zm2.72,25.11v-26.67l1.69-.97v26.67l-1.69,.97Zm2.01-27.83l2.35-1.35v26.59l-2.28,.02v-25.26h-.07Zm4.82-2.77l2.28-1.31v26.62l-2.28,.02v-25.33Zm2.67,25.14v-26.67l1.69-.97v26.67l-1.69,.97Zm2.03-27.84l2.33-1.34v26.63l-2.28,.02v-25.31h-.05Zm2.72,25.11v-26.67l1.69-.97v26.67l-1.69,.97Zm2.08-27.87l2.28-1.31v26.64l-2.28,.02v-25.35Zm2.67,25.14v-26.67l1.69-.97v26.67l-1.69,.97Zm2.08-27.87l2.28-1.31v26.65l-2.28,.02v-25.36Zm2.67,25.14v-26.67l1.69-.97v26.67l-1.69,.97Zm2.08-27.87l2.28-1.31v26.53l-2.28,.02v-25.24Zm2.67,25.08v-26.62l1.69-.97v26.64l-1.69,.95Zm-47.88,.91v26.57l-2.28,.02v-25.27l2.28-1.31Z"/><g><polygon class="cls-14" points="351.15 176.66 352.87 175.67 377.42 189.68 375.71 190.67 351.15 176.66"/><polygon class="cls-14" points="346.87 179.19 348.59 178.19 373.14 192.21 371.43 193.2 346.87 179.19"/><polygon class="cls-14" points="355.63 174.11 357.35 173.11 381.9 187.13 380.19 188.11 355.63 174.11"/><polygon class="cls-14" points="360.02 171.48 361.74 170.49 386.29 184.5 384.58 185.49 360.02 171.48"/><polygon class="cls-14" points="364.33 168.93 366.05 167.93 390.6 181.95 388.89 182.93 364.33 168.93"/><polygon class="cls-14" points="368.82 166.37 370.53 165.38 395.08 179.39 393.37 180.38 368.82 166.37"/><polygon class="cls-14" points="373.2 163.75 374.92 162.75 399.47 176.77 397.76 177.75 373.2 163.75"/><polygon class="cls-14" points="377.72 161.27 379.43 160.27 403.98 174.29 402.27 175.28 377.72 161.27"/><polygon class="cls-14" points="382.11 158.64 383.82 157.65 408.37 171.66 406.66 172.65 382.11 158.64"/><polygon class="cls-14" points="386.69 156.09 388.41 155.09 412.96 169.11 411.25 170.09 386.69 156.09"/><polygon class="cls-14" points="391.18 153.53 392.89 152.54 417.44 166.55 415.73 167.54 391.18 153.53"/><polygon class="cls-14" points="395.57 150.91 397.28 149.91 421.83 163.93 420.12 164.91 395.57 150.91"/></g><path class="cls-12" d="M369.24,197.71l-.1-.06-29.67-17.13,.17-.32,57.87-33.44,.1,.06,29.68,17.14v.23l-58.06,33.52Zm-29.2-17.31l29.2,16.86,57.48-33.19-29.2-16.86-57.48,33.19Z"/><path class="cls-12" d="M422.72,164.11l-.29-.17h0l-24.93-14.4-.1-.06-8.94,5.18-.03-.02-2.5,1.45,.03,.02-1.96,1.14-.07-.04-2.5,1.45,.07,.04-1.96,1.13-.06-.03-2.5,1.45,.06,.03-10.8,6.26h-.01l-2.5,1.44h.01l-19.85,11.52,24.95,14.2,.34,.19h0l.1,.06,53.43-30.85Zm-76.9,17.02l1.21-1.79,24.08,14.12-1.82,1.05-23.47-13.38Zm20.43-13.13l24.62,14.05-1.71,.99-24.62-14.05,1.72-1Zm13.3-7.71l24.65,14.07-1.71,.99-24.65-14.06,1.72-1Zm1.38,.31l.96-1.66h0l24.66,14.06-1.97,1.14-.04-.02v-.02l-23.62-13.49Zm3.08-2.89l24.65,14.08-1.71,.99-24.66-14.07,1.72-1Zm1.42,.33l.96-1.67,24.63,14.05-1.97,1.14h0v-.03l-23.62-13.49Zm3.03-2.91l24.66,14.08-1.71,.99-24.67-14.07,1.72-1Zm29.11,11.51l-1.71,.99-24.66-14.07,1.72-1,24.65,14.07Zm-23.16-13.69l.96-1.67,24.54,14-1.94,1.12-23.56-13.45Zm1.28-1.94l1.72-1,24.53,14.09-1.63,.94-24.61-14.04Zm19.77,16.83l-1.94,1.12-23.61-13.48,.96-1.67,24.59,14.03Zm-20.14,11.63l-1.71,.99-24.61-14.04,1.72-1,24.6,14.04Zm-23.11-13.66l.96-1.67,24.49,13.97-1.94,1.12-23.51-13.42Zm1.28-1.94l1.72-1,.74,.42v.02l23.79,13.59-1.69,.97-24.56-14.01Zm2.99-.72l.95-1.65,24.64,14.06-1.92,1.11-23.67-13.52Zm16.73,17.52l-1.94,1.12-23.56-13.45,.96-1.67,24.54,14Zm-43.56-1.88l23.43,13.5-1.61,.93-24.14-14.15,1.39-.79,.92,.52Zm.39-.22l.89-1.59,24.48,13.97-1.84,1.06-23.53-13.44Zm1.21-1.86l1.72-1,24.55,14.02-1.71,.99-24.56-14.01Zm3.21-.61l.97-1.67,24.44,13.94-1.94,1.12-23.46-13.39Zm1.28-1.94l1.72-1,24.53,13.98-1.73,1-24.51-13.98Zm3.07-.7l.96-1.67,24.54,14-1.94,1.12-23.56-13.45Zm1.28-1.94l1.72-1,.87,.5h0l23.73,13.56-1.7,.98-24.61-14.04Zm3.12-.64l.96-1.66,24.57,14.01-1.93,1.11-23.59-13.47Z"/><polygon class="cls-14" points="345.7 211.85 366.68 199.64 366.68 223.93 345.7 211.85"/><polygon class="cls-14" points="342.4 211.96 343.72 211.17 366.68 224.37 366.68 225.98 342.4 211.96"/><path class="cls-10" d="M341.83,184.09v27.57h0l.2,.11h0l25.04,14.46v-27.57l-25.24-14.57Zm1.69,1.43v24.89l-.76,.46-.54,.33v-26.44l1.3,.75Zm-1.12,26.03l.53-.32,.79-.48,22.96,13.21v1.6l-24.27-14.01Zm3.29-.11l20.98-12.21v24.28l-20.98-12.07Z"/><g><polygon class="cls-11" points="384.88 165.43 384.88 163.34 394.83 169.15 394.63 171.1 384.88 165.43"/><g><polygon class="cls-11" points="404.39 163.34 394.63 168.97 384.88 163.34 394.63 157.71 404.39 163.34"/><polygon class="cls-11" points="401.11 163.34 394.63 167.08 388.15 163.34 394.63 159.6 401.11 163.34"/><path class="cls-1" d="M394.63,158.39l-9.17,5.29,9.69,5.67,9.23-5.33-9.76-5.63Zm0,8.69l-5.53-3.4,5.53-3.95,6.38,3.55-6.38,3.8Z"/><path class="cls-12" d="M404.58,163.23h0l-.19-.11-9.76-5.63-9.76,5.63h0l-.19,.11h0v2.38l9.76,5.64,.19,.11h0l.2-.11,9.76-5.57v-2.45h0Zm-10.14,7.57l-9.37-5.42v-1.7l9.37,5.41v1.71Zm.19-2.05l-9.37-5.41,9.37-5.41,9.37,5.41-9.37,5.41Z"/><path class="cls-12" d="M401.21,163.51l.29-.17-6.68-3.85-.19-.11-6.87,3.97,6.87,3.97,5.93-3.42,.65-.38h0Zm-6.38-3.57l5.9,3.4-1.01,.58-4.88-2.76v-1.23Zm-4.88,4.22l4.69-2.65,4.69,2.65-4.69,2.71-4.69-2.71Z"/></g></g><g><g><polygon class="cls-11" points="352.93 205.05 352.93 200.56 356.69 202.8 356.69 207.24 352.93 205.05"/><polygon class="cls-1" points="352.93 200.56 356.13 198.66 358.45 200 358.45 201.77 356.69 202.8 352.93 200.56"/><path class="cls-12" d="M356.13,198.51l-3.19,1.89-.13,.08v4.64l3.76,2.19,.13,.07h0l.13-.07,1.76-1.01v-6.38l-2.45-1.41Zm0,.3l2.19,1.26v1.62l-1.63,.96-2.8-1.67-.71-.42,2.94-1.74Zm-3.07,6.17v-4.2l.72,.43,2.79,1.67v4.14l-3.5-2.04Z"/></g><g><polygon class="cls-13" points="358.47 206.45 358.47 199.64 364.17 203.05 364.17 209.76 358.47 206.45"/><polygon class="cls-5" points="358.47 199.64 363.31 196.78 366.82 198.8 366.82 201.48 364.17 203.05 358.47 199.64"/><path class="cls-12" d="M363.31,196.55l-4.83,2.87-.19,.12v7.03l5.69,3.31,.19,.11h0l.2-.11,2.66-1.53v-9.66l-3.71-2.14Zm0,.45l3.32,1.91v2.45l-2.46,1.46-4.24-2.54-1.07-.64,4.46-2.64Zm-4.64,9.34v-6.35l1.09,.65,4.22,2.52v6.27l-5.31-3.09Z"/></g><g><polygon class="cls-11" points="361.28 213.49 361.28 208.99 365.03 211.24 365.03 215.67 361.28 213.49"/><polygon class="cls-1" points="361.28 208.99 364.47 207.1 366.79 208.44 366.79 210.2 365.03 211.24 361.28 208.99"/><path class="cls-12" d="M364.47,206.95l-3.19,1.89-.13,.08v4.64l3.76,2.19,.13,.07h0l.13-.07,1.76-1.01v-6.38l-2.45-1.41Zm0,.3l2.19,1.26v1.62l-1.63,.96-2.8-1.67-.71-.42,2.94-1.74Zm-3.07,6.17v-4.2l.72,.43,2.79,1.67v4.14l-3.5-2.04Z"/></g></g></g><g><path class="cls-8" d="M465.09,87.83l-154.3,88.59c-11.13,6.4-49.63,16.53-62.45,9.09h0c-12.83-7.44,4.88-29.62,16.01-36.02l147.14-84.27c4.43-2.54,9.88-2.53,14.31,.01l39.29,22.6Z"/><path class="cls-6" d="M404.11,74.49l-4.02,1.45-13.23-7.67-106.72,61.4-41.54,15.03s-16.75,14.32-14.15,16.47c2.6,2.16,25.34,10.46,25.34,10.46h.02c7.61,2.87,22.02,2.88,34-.33,8.59-2.3,16.83-5.72,24.54-10.16l110.64-63.71c1.13-.65,1.9-1.78,2.1-3.07l5.09-22.61-22.06,2.72Z"/><path class="cls-15" d="M400.09,75.73l-8.16-4.73-2.61,.95-4.58-2.66-104.58,60.17-41.54,15.03s-17.02,14.37-14.43,16.52c1.55,1.29,10.26,4.82,17.05,7.42,7.99,1.69,21.04-.55,31.81-3.43,8.59-2.3,16.83-5.72,24.54-10.16l126.3-72.88,2.3-10.2-22.06,2.51-4.02,1.45Z"/><path class="cls-2" d="M268.22,173.14s-13.27-.8-19.94-6.06c-1.09-.86-1.98-1.68-2.73-2.47-.47,.06-.97,.13-1.53,.21-4.01,.55-9.71,.13-13.18-.21,7.44,3.05,17.8,6.69,17.8,6.69h.02c4.68,1.77,12.4,2.59,20.08,2.11l-.52-.27Z"/><path class="cls-10" d="M404.01,74l-3.89,1.41-8.16-4.73-.23,.08-4.87-2.82-1.95,1.12-.19-.11-104.68,60.24-41.54,15.03-.09,.05c-.61,.51-14.81,12.54-14.8,16.12,0,.36,.13,.65,.38,.85,.19,.16,.49,.35,.86,.56,4.3,2.6,23.96,9.79,24.84,10.12l.12,.03c3.75,1.4,9.06,2.09,14.86,2.09,6.29,0,13.16-.82,19.22-2.44,8.56-2.29,16.84-5.72,24.61-10.19l110.64-63.71c1.22-.7,2.03-1.9,2.24-3.26l2.76-12.28h0l2.37-10.54-22.49,2.38Zm-17.15-5.39l4.15,2.41-1.67,.6-3.84-2.23,1.36-.78Zm-148.32,98.47c-5.67-2.22-11.33-4.58-13.48-5.83-.17-.11-.31-.2-.42-.29-.07-.06-.17-.17-.17-.41-.02-2.74,10.26-12.14,14.28-15.58l41.54-15.04,104.62-60.2,4.37,2.53,2.39-.86,8.39,4.86,4.12-1.49,11.9-1.47-166.2,75.7,11.89,11.89c2.1,2.1,4.35,3.72,6.63,4.97-7.59,1.77-19.39,3.91-27.06,2.3-.91-.35-1.85-.71-2.8-1.08Zm45.19,3.96c-11.59,3.1-26.13,3.24-33.82,.33l-.13-.03h0c-.52-.19-2.87-1.05-5.93-2.21,1.23,.12,2.52,.19,3.86,.19,7.26,0,15.72-1.66,21.47-3.03,7.41,3.79,15.01,3.82,18.79,3.51-1.4,.44-2.81,.87-4.23,1.24Z"/><path class="cls-7" d="M426.17,71.77l-139.26,80.32c-11.13,6.4-49.63,16.52-62.45,9.09h0c-12.83-7.44,4.88-29.62,16.01-36.02L379.72,45.05l46.44,26.71Z"/><polygon class="cls-3" points="418.93 72.89 424.46 72.89 425.17 72.34 397.74 56.56 407.26 66.17 418.93 72.89"/><path class="cls-12" d="M238.04,164.09c-5.62,0-10.48-.77-13.73-2.66-3.07-1.78-4.63-4.48-4.62-8.03,.02-10.01,12.43-23.78,20.63-28.49L379.72,44.72l46.78,26.91-.08,.33-139.37,80.39c-8.33,4.79-32.14,11.75-49.02,11.75ZM379.72,45.39L240.61,125.42c-8.08,4.65-20.32,18.18-20.34,27.99,0,3.32,1.45,5.86,4.33,7.52,12.84,7.44,51.14-2.76,62.16-9.09l138.82-80.07-45.86-26.38Z"/><path class="cls-3" d="M379.82,58.64l-139.12,80.03c-5.31,3.05-11.3,11.59-14.25,18.07l-.07,.15c.55,.7,1.27,1.33,2.18,1.86h0c10.34,5.99,45.4-2.16,54.37-7.32l129.16-74.2-32.29-18.59Z"/><path class="cls-10" d="M419.6,71.79h0l-40.18-23.12-138.89,79.78c-.09,.05-.19,.12-.28,.18-.2,.12-.4,.24-.6,.37-.28,.18-.57,.38-.86,.58-.09,.06-.18,.13-.28,.19-1.11,.79-2.24,1.71-3.36,2.74-.04,.03-.08,.07-.11,.1l.8,8.27c1.36-1.34,2.74-2.46,4.07-3.22L379.02,57.63l31.99,18.42-129.02,74.11c-8.87,5.1-43.73,13.32-54.08,7.32-.91-.53-1.64-1.17-2.19-1.91,2.12-4.62,5.76-10.23,9.59-14.17l-.82-8.28v-.02s-.04,.05-.06,.07c-.15,.14-.3,.29-.44,.43-5.03,4.91-9.77,11.73-10.09,17.28,0,.04,0,.08,0,.11,0,.16-.02,.31-.02,.47,0,.08,.01,.15,.01,.22,0,.15,.01,.3,.02,.45,.01,.18,.02,.36,.05,.53,.01,.11,.04,.21,.06,.32,.13,.76,.37,1.46,.71,2.09h0c.11,.22,.24,.42,.38,.62,.02,.03,.03,.05,.05,.08l.1,.14c.04,.05,.07,.1,.11,.15l.09,.12v-.02c.58,.7,1.3,1.3,2.18,1.82,2.63,1.52,6.8,2.15,11.72,2.15,14.75,0,36.24-5.61,42.95-9.47l136.87-78.62,.44-.25h0Z"/><g><polygon class="cls-11" points="379.02 57.29 379.42 49 419.01 71.79 411.6 76.05 379.02 57.29"/><path class="cls-12" d="M411.6,76.34l-32.83-18.9,.42-8.86,40.33,23.21-7.92,4.55Zm-32.32-19.19l32.32,18.61,6.91-3.97-38.86-22.36-.37,7.72Z"/></g><path class="cls-6" d="M297.42,154.59c-7.73,4.45-15.96,7.86-24.47,10.13-1.21,.32-2.77,.72-4.56,1.14,.26,.14,.52,.28,.78,.41,1.52-.36,2.87-.71,3.93-.99,8.56-2.29,16.84-5.72,24.61-10.19l126.42-72.94,.17-.78-126.88,73.21Z"/><path class="cls-13" d="M358.27,70.06V34.5l51,6.26v35.78c.07,.39-.82,1.32-1.29,1.59l-16.84,9.67c-.92,.54-2.53,.48-3.6-.13l-28.39-16.35c-.62-.35-.92-.82-.88-1.25Z"/><path class="cls-5" d="M391.14,52.01l17.53-10.21c.92-.54,.8-1.47-.27-2.07l-28.39-16.35c-1.07-.61-2.68-.67-3.6-.13l-17.53,10.21c-.92,.54-.8,1.47,.27,2.07l28.39,16.35c1.07,.61,2.68,.67,3.6,.13Z"/><path class="cls-13" d="M358.28,30.94c.06,.37,.35,.74,.87,1.04l28.39,16.35c1.07,.61,2.68,.67,3.6,.13l17.53-10.21c.35-.2,.55-.47,.6-.75v4.19c.07,.39-.13,.77-.6,1.05l-17.53,10.21c-.92,.54-2.53,.48-3.6-.13l-28.39-16.35c-.62-.35-.92-.82-.88-1.25v-4.29h0Z"/><path class="cls-13" d="M362.5,30.05l14.29-8.32c.75-.44,2.07-.39,2.94,.11l25.32,14.57c.87,.5,.97,1.25,.22,1.69l-3.23,1.88-22.08-12.71c-.87-.5-2.19-.55-2.94-.11l-11.06,6.44-3.23-1.86c-.87-.5-.97-1.25-.22-1.69Z"/><path class="cls-5" d="M358.88,30.91l17.53-10.21c.92-.54,2.53-.48,3.6,.13l28.39,16.35c1.07,.61,1.19,1.54,.27,2.07l-17.53,10.21c-.92,.54-2.53,.48-3.6-.13l-28.39-16.35c-1.07-.61-1.19-1.54-.27-2.07Zm3.84,1.78l25.32,14.57c.87,.5,2.19,.55,2.94,.11l14.29-8.32c.75-.44,.65-1.19-.22-1.69l-25.32-14.57c-.87-.5-2.19-.55-2.94-.11l-14.29,8.32c-.75,.44-.65,1.19,.22,1.69Z"/><g><path class="cls-12" d="M385.5,60.66l-3.56-2.12v-5.5l3.56,2.05v5.57Zm-3.06-2.4l2.56,1.52v-4.4l-2.56-1.48v4.35Z"/><path class="cls-12" d="M381.18,58.2l-3.55-2.12v-5.5l3.55,2.05v5.57Zm-3.05-2.4l2.55,1.52v-4.4l-2.55-1.48v4.35Z"/><path class="cls-12" d="M376.86,55.73l-3.56-2.12v-5.5l3.56,2.05v5.57Zm-3.06-2.4l2.56,1.52v-4.4l-2.56-1.48v4.35Z"/><path class="cls-12" d="M372.53,53.27l-3.56-2.12v-5.5l3.56,2.05v5.57Zm-3.06-2.4l2.56,1.52v-4.4l-2.56-1.48v4.35Z"/><path class="cls-12" d="M368.21,50.8l-3.56-2.12v-5.5l3.56,2.05v5.57Zm-3.06-2.4l2.56,1.52v-4.4l-2.56-1.48v4.35Z"/><path class="cls-12" d="M363.89,48.33l-3.56-2.12v-5.5l3.56,2.05v5.57Zm-3.06-2.4l2.56,1.52v-4.4l-2.56-1.48v4.35Z"/><path class="cls-12" d="M385.5,67.15l-3.56-2.12v-5.5l3.56,2.05v5.57Zm-3.06-2.4l2.56,1.52v-4.4l-2.56-1.48v4.35Z"/><path class="cls-12" d="M381.18,64.69l-3.55-2.12v-5.5l3.55,2.05v5.57Zm-3.05-2.4l2.55,1.52v-4.4l-2.55-1.48v4.35Z"/><path class="cls-12" d="M376.86,62.22l-3.56-2.12v-5.5l3.56,2.05v5.57Zm-3.06-2.4l2.56,1.52v-4.4l-2.56-1.48v4.35Z"/><path class="cls-12" d="M372.53,59.75l-3.56-2.12v-5.5l3.56,2.05v5.57Zm-3.06-2.4l2.56,1.52v-4.4l-2.56-1.48v4.35Z"/><path class="cls-12" d="M368.21,57.29l-3.56-2.12v-5.5l3.56,2.05v5.57Zm-3.06-2.4l2.56,1.52v-4.4l-2.56-1.48v4.35Z"/><path class="cls-12" d="M363.89,54.82l-3.56-2.12v-5.5l3.56,2.05v5.57Zm-3.06-2.4l2.56,1.52v-4.4l-2.56-1.48v4.35Z"/></g><g><path class="cls-10" d="M405.19,36.16l-25.32-14.57c-.24-.14-.51-.24-.79-.32s-.58-.12-.87-.13c-.58-.02-1.15,.09-1.57,.34l-14.29,8.32c-.42,.25-.65,.6-.65,.99,0,.11,.02,.23,.06,.33,.12,.33,.4,.63,.81,.87l3.38,1.95h0l21.94,12.63c.52,.3,1.17,.45,1.79,.45,.54,0,1.05-.11,1.44-.34l10.92-6.36h0l3.37-1.96c.42-.24,.65-.6,.65-.99,0-.45-.32-.89-.87-1.21Zm-14.36,10.01c-.66,.38-1.87,.33-2.64-.11l-21.65-12.46,10.63-6.19c.66-.39,1.87-.33,2.65,.11l21.65,12.46-10.63,6.19Zm14.29-8.32l-3.08,1.79-21.94-12.63c-.52-.3-1.17-.45-1.79-.45-.48,0-.98,.14-1.35,.32v-4.92c.13-.08,.29-.14,.46-.18,.02,0,.04-.01,.06-.01,.17-.04,.36-.05,.55-.06,.04,0,.07,0,.11,0,.08,0,.15,0,.23,.01,.05,0,.1,0,.15,.01,.08,.01,.16,.03,.23,.04,.05,0,.1,.02,.14,.03,.08,.02,.16,.05,.24,.07,.04,.01,.08,.02,.12,.04,.11,.04,.22,.09,.33,.15l25.32,14.57c.36,.2,.58,.47,.58,.7,0,.23-.19,.39-.36,.48Z"/><path class="cls-10" d="M409.57,41.7v-4.19s.02-.07,.02-.11c0-.53-.38-1.05-1.03-1.42l-28.39-16.35c-1.17-.67-2.88-.72-3.89-.13l-17.53,10.21c-.5,.29-.77,.7-.76,1.16,0,.02,.01,.05,.01,.07v4.26s0,.03,0,.04v34.85c-.05,.56,.32,1.11,1.02,1.51l28.39,16.35c.63,.36,1.41,.54,2.16,.54,.64,0,1.26-.13,1.73-.41l16.84-9.67c.41-.24,1.55-1.27,1.44-1.84V42.07c0-.18,0-.23,0-.36Zm-22.02,45.67l-28.26-16.27c-.49-.28-.76-.64-.74-.97V36.43c.14,.11,.28,.22,.45,.31l28.39,16.35s.11,.05,.16,.07v34.22Zm0-34.87l-28.25-16.27c-.49-.28-.77-.64-.73-.99v-3.24c.13,.11,.28,.21,.44,.31l28.39,16.35s.11,.05,.16,.07v3.78Zm.83,35.23V53.47c.38,.1,.78,.15,1.17,.15v34.25l.27,.03c-.47,.03-.97-.03-1.43-.17Zm0-34.87v-3.82c.08,.02,.16,.03,.24,.05,.28,.06,.57,.1,.93,.1v3.84c-.39,0-.79-.06-1.17-.17Zm20.61-15.4h0c-.04,.2-.2,.39-.46,.55l-17.53,10.21c-.83,.48-2.34,.42-3.31-.13l-28.39-16.35c-.42-.24-.69-.54-.73-.83h0s0-.02,0-.03c0-.31,.26-.52,.47-.65l17.53-10.21c.37-.22,.89-.32,1.43-.32,.65,0,1.35,.16,1.88,.46l28.39,16.35c.47,.27,.74,.6,.74,.92,0,.02,0,.03,0,.04Z"/></g><g><path class="cls-13" d="M404.11,53.93v-5.57l3.62-2.05v5.5l-3.62,2.11Zm.5-5.28v4.4l2.61-1.53v-4.36l-2.61,1.48Z"/><path class="cls-13" d="M399.8,56.37v-5.57l3.61-2.05v5.5l-3.61,2.11Zm.5-5.28v4.4l2.61-1.53v-4.36l-2.61,1.48Z"/><path class="cls-13" d="M395.43,58.95v-5.57l3.62-2.05v5.5l-3.62,2.11Zm.5-5.27v4.4l2.61-1.53v-4.36l-2.61,1.48Z"/><path class="cls-13" d="M391.06,61.29v-5.57l3.61-2.05v5.5l-3.61,2.11Zm.5-5.27v4.4l2.61-1.53v-4.36l-2.61,1.48Z"/><path class="cls-13" d="M404.11,60.37v-5.57l3.62-2.05v5.5l-3.62,2.11Zm.5-5.28v4.4l2.61-1.53v-4.36l-2.61,1.48Z"/><path class="cls-13" d="M399.8,62.81v-5.57l3.61-2.05v5.5l-3.61,2.11Zm.5-5.28v4.4l2.61-1.53v-4.36l-2.61,1.48Z"/><path class="cls-13" d="M395.43,65.38v-5.57l3.62-2.05v5.5l-3.62,2.11Zm.5-5.27v4.4l2.61-1.53v-4.36l-2.61,1.48Z"/><path class="cls-13" d="M391.06,67.73v-5.57l3.61-2.05v5.5l-3.61,2.11Zm.5-5.27v4.4l2.61-1.53v-4.36l-2.61,1.48Z"/></g><g><path class="cls-12" d="M367.65,76.5l-6.41-3.71v-11.24l6.41,3.93v11.02Zm-6-3.95l5.58,3.23v-10.06l-5.58-3.42v10.25Z"/><polygon class="cls-12" points="362.61 68.97 362.61 64.31 366.14 66.48 366.14 71.02 362.61 68.97"/></g><g><polygon class="cls-6" points="399.25 37.07 393.42 33.7 387.58 37.07 387.58 38.7 393.42 42.06 393.42 40.44 399.25 37.07"/><path class="cls-12" d="M399.25,36.83h0l-5.83-3.37-6.04,3.49v1.88l5.83,3.36h0l.21,.12,6.04-3.48v-1.88l-.21-.12Zm-.42,.24l-5.42,3.13-5.42-3.13,5.42-3.13,5.42,3.13Zm-11.04,1.51v-1.15l2.24,1.3,3.17,1.83v1.14l-5.42-3.12Z"/><polygon class="cls-15" points="396.52 37.43 393.42 39.16 390.31 37.43 393.42 35.64 396.52 37.43"/><path class="cls-12" d="M393.42,39.42l-4.07-2.35,4.07-2.35,4.07,2.35-4.07,2.35Zm-3.23-2.35l3.23,1.87,3.23-1.87-3.23-1.87-3.23,1.87Z"/></g><path class="cls-13" d="M409.57,41.88l-18.58,10.83c-.38,.22-.9,.32-1.44,.32v.59c.65,0,1.26-.13,1.73-.41l18.29-10.66v-.68Z"/><g id="_-5"><g><path class="cls-13" d="M236.36,155.27h0l-2.91-29.33-4.41-2.11v33.11c0,.09,0,.18,.01,.28v.02h0c.06,.27,.28,.55,.66,.77,.83,.49,2.09,.55,2.82,.14l3.39-1.92c.44-.25,.57-.61,.44-.97Z"/><path class="cls-5" d="M233.16,123.37l-2.03,1.15c-.43,.25-1.19,.21-1.69-.08h0c-.5-.29-.55-.73-.11-.98l2.03-1.15c.43-.25,1.19-.21,1.69,.08h0c.5,.29,.55,.73,.11,.98Z"/><path class="cls-12" d="M236.68,155.21l-2.9-29.28h0v-3.94h-.02c-.05-.26-.24-.5-.54-.68-.59-.35-1.47-.39-2-.09l-2.03,1.15c-.29,.16-.45,.42-.46,.69,0,.03,.01,.06,.01,.09h0v3.84h-.01l.03,29.88c-.03,.13-.03,.26,0,.37l.14,.39c.14,.25,.37,.47,.68,.65,.51,.3,1.16,.46,1.78,.46,.5,0,.98-.1,1.36-.31l3.39-1.92c.54-.3,.76-.8,.6-1.3Zm-7.19-32.29l2.03-1.15c.14-.08,.34-.12,.56-.12,.28,0,.59,.07,.82,.2,.17,.1,.25,.21,.25,.28,0,.04-.05,.1-.13,.15l-2.03,1.15c-.33,.19-.97,.15-1.37-.08-.18-.1-.25-.21-.25-.28,0-.04,.05-.1,.14-.15Zm-.13,1c.31,.17,.69,.26,1.05,.26,.13,0,.25-.02,.37-.04v3.22c-.35,.1-.84,.05-1.18-.15-.18-.11-.25-.21-.25-.28v-3.02Zm.52,33.81c-.28-.17-.46-.37-.51-.57v-.03s-.01-.1,0-.2l-.02-29.15c.31,.17,.69,.26,1.06,.26,.13,0,.26-.02,.38-.04l1.27,29.99c-.65,.19-1.56,.1-2.18-.27Z"/><path class="cls-13" d="M233.61,125.83l-2.64,1.49c-.05,.03-.12,.05-.19,.06v.65c.19-.03,.36-.08,.5-.16l2.54-1.43-.05-.82c.01,.07-.11,.18-.16,.21Z"/></g><g><polygon class="cls-15" points="241.26 142.19 252.26 135.72 263.08 142.19 252.48 148.45 241.26 142.19"/><polygon class="cls-2" points="241.26 143.13 252.26 136.66 263.08 143.13 252.48 149.39 241.26 143.13"/><polygon class="cls-6" points="241.26 147.14 241.26 142.19 252.48 148.45 252.31 153.53 241.26 147.14"/><path class="cls-15" d="M252.95,140.77c.88,.1,1.23,.49,1.23,1.01,0,.07,.02,0,0,.07l2.64,1.28c.26-.38,.41-.8,.41-1.24,0-1.63-2.02-2.97-4.59-3.09l.31,1.96Z"/><path class="cls-12" d="M256.99,143.39l-3.17-1.39,.06-.22c0-.17,0-.62-.97-.72l-.22-.02-.28-2.53h.23c2.78,.14,4.87,1.59,4.87,3.39,0,.49-.16,.96-.47,1.4l-.06,.09Zm-2.53-1.73l2.24,1.09c.15-.28,.23-.57,.23-.86,0-1.38-1.71-2.56-3.95-2.77l.22,1.39c.99,.18,1.22,.75,1.26,1.15Z"/><path class="cls-15" d="M253.4,142.65c-.35,.21-.22-.46-.77-.46-.52,0-1.16,.65-1.51,.46l-2.75,1.18c.91,.71,2.31,1.17,3.88,1.17,1.68,0,3.17-.52,4.06-1.32l-2.92-1.02Z"/><path class="cls-12" d="M252.26,145.29c-1.58,0-3.06-.45-4.06-1.23l-.29-.23,3.24-1.5,.12,.07c.08,.02,.33-.12,.48-.2,.27-.14,.58-.3,.89-.3,.43,0,.62,.28,.71,.45h.02l.14,.03,3.29,1.28-.27,.24c-.98,.87-2.57,1.4-4.26,1.4Zm-3.28-1.4c.87,.53,2.04,.82,3.28,.82,1.32,0,2.58-.34,3.46-.93l-2.3-.81c-.08,.02-.16,.03-.23,0-.18-.05-.27-.2-.33-.31-.08-.15-.11-.18-.22-.18-.17,0-.41,.12-.62,.23-.29,.15-.6,.31-.88,.25l-2.16,.92Z"/><path class="cls-15" d="M250.35,141.78c-.03-.08,0,.09,0,0,0-.53,.36-1.15,1.24-1.25l.3-1.73c-2.57,.12-4.59,1.46-4.59,3.09,0,.51,.2,.98,.54,1.4l2.51-1.52Z"/><path class="cls-12" d="M247.7,143.59l-.09-.11c-.4-.49-.61-1.04-.61-1.59,0-1.8,2.09-3.25,4.87-3.38h.23l-.27,2.29-.22,.02c-.69,.08-.95,.52-.98,.9l.07,.17-.07,.04v.1l-.24,.05-2.7,1.5Zm3.84-4.47c-2.24,.21-3.95,1.39-3.95,2.77,0,.35,.11,.69,.33,1.02l2.09-1.27,.07-.09h0c.09-.55,.49-1.1,1.26-1.27l.2-1.16Z"/><path class="cls-6" d="M254.19,141.78c0,.6-.86,1.08-1.91,1.08s-1.91-.49-1.91-1.08c0-.44,.51-1.57,1.16-1.74,.24-.06,.46,.66,.75,.66s.49-.73,.74-.66c.64,.17,1.17,1.31,1.17,1.74Z"/><path class="cls-12" d="M252.28,143.16c-1.24,0-2.21-.6-2.21-1.38,0-.49,.54-1.8,1.38-2.02,.32-.08,.52,.21,.67,.42,.04,.06,.1,.15,.15,.2,.05-.05,.1-.14,.14-.2,.15-.22,.35-.51,.67-.42,.79,.22,1.39,1.48,1.39,2.03,0,.77-.97,1.38-2.21,1.38Zm-.75-2.81c-.47,.2-.87,1.11-.87,1.43,0,.37,.67,.79,1.62,.79s1.62-.42,1.62-.79c0-.31-.42-1.22-.88-1.43-.03,.04-.08,.11-.11,.16-.14,.22-.33,.49-.63,.49s-.48-.26-.63-.47c-.04-.05-.09-.12-.12-.17Z"/><ellipse class="cls-15" cx="252.28" cy="140.66" rx="1.33" ry=".75"/><ellipse class="cls-2" cx="252.28" cy="141.23" rx="1.33" ry=".75"/><path class="cls-12" d="M252.28,141.71c-.92,0-1.62-.45-1.62-1.04s.7-1.04,1.62-1.04,1.62,.46,1.62,1.04-.71,1.04-1.62,1.04Zm0-1.5c-.63,0-1.04,.27-1.04,.46s.4,.46,1.04,.46,1.04-.27,1.04-.46-.4-.46-1.04-.46Z"/><path class="cls-12" d="M263.08,141.85h0l-10.82-6.47-11,6.47-.29,.18v5.27l11.34,6.56,11.06-6.44v-5.4l-.29-.18Zm-10.82-5.79l10.25,6.13-8.21,4.85-1.82,1.07-10.63-5.93,10.41-6.12Zm-10.73,6.62l1.98,1.1,8.67,4.84-.02,4.51-10.61-6.15-.02-4.3Z"/></g></g><g id="_-6"><polygon class="cls-13" points="361.29 82.85 372.29 76.38 383.11 82.85 372.51 89.11 361.29 82.85"/><polygon class="cls-5" points="361.29 83.8 372.29 77.33 383.11 83.8 372.51 90.06 361.29 83.8"/><polygon class="cls-13" points="361.29 87.8 361.29 82.85 372.52 89.11 372.34 94.19 361.29 87.8"/><path class="cls-13" d="M372.98,81.43c.88,.1,1.23,.49,1.23,1.01,0,.07,.02,0,0,.07l2.64,1.28c.26-.38,.41-.8,.41-1.24,0-1.63-2.02-2.97-4.59-3.09l.31,1.96Z"/><path class="cls-12" d="M377.02,84.06l-3.17-1.39,.06-.22c0-.17,0-.62-.97-.72l-.22-.02-.28-2.53h.23c2.78,.14,4.87,1.59,4.87,3.39,0,.49-.16,.96-.47,1.4l-.06,.09Zm-2.53-1.73l2.24,1.09c.15-.28,.23-.57,.23-.86,0-1.38-1.71-2.56-3.95-2.77l.22,1.39c.99,.18,1.22,.75,1.26,1.15Z"/><path class="cls-13" d="M373.44,83.31c-.35,.21-.22-.46-.77-.46-.52,0-1.16,.65-1.51,.46l-2.75,1.18c.91,.71,2.31,1.17,3.88,1.17,1.68,0,3.17-.52,4.06-1.32l-2.92-1.02Z"/><path class="cls-12" d="M372.3,85.95c-1.58,0-3.06-.45-4.06-1.23l-.29-.23,3.24-1.5,.12,.07c.08,.02,.33-.12,.48-.2,.27-.14,.58-.3,.89-.3,.43,0,.62,.28,.71,.45h.02l.14,.03,3.29,1.28-.27,.24c-.98,.87-2.57,1.4-4.26,1.4Zm-3.28-1.4c.87,.53,2.04,.82,3.28,.82,1.32,0,2.58-.34,3.46-.93l-2.3-.81c-.08,.02-.16,.03-.23,0-.18-.05-.27-.2-.33-.31-.08-.15-.11-.18-.22-.18-.17,0-.41,.13-.62,.24-.29,.15-.6,.31-.88,.25l-2.16,.92Z"/><path class="cls-13" d="M370.38,82.45c-.03-.08,0,.09,0,0,0-.53,.36-1.15,1.24-1.25l.3-1.73c-2.57,.12-4.59,1.46-4.59,3.09,0,.51,.2,.98,.54,1.4l2.51-1.52Z"/><path class="cls-12" d="M367.74,84.26l-.09-.11c-.4-.49-.61-1.04-.61-1.59,0-1.8,2.09-3.25,4.87-3.38h.23l-.27,2.29-.22,.02c-.69,.08-.95,.52-.98,.9l.07,.17-.07,.04v.1l-.24,.05-2.7,1.5Zm3.84-4.47c-2.24,.21-3.95,1.39-3.95,2.77,0,.35,.11,.69,.33,1.02l2.09-1.27,.07-.09h0c.09-.55,.49-1.1,1.26-1.27l.2-1.16Z"/><path class="cls-13" d="M374.22,82.45c0,.6-.86,1.08-1.91,1.08s-1.91-.49-1.91-1.08c0-.44,.51-1.57,1.16-1.74,.24-.06,.46,.66,.75,.66s.49-.73,.74-.66c.64,.17,1.17,1.31,1.17,1.74Z"/><path class="cls-12" d="M372.31,83.82c-1.24,0-2.21-.6-2.21-1.38,0-.49,.54-1.8,1.38-2.02,.32-.08,.52,.21,.67,.42,.04,.06,.1,.15,.15,.2,.05-.05,.1-.14,.14-.2,.15-.22,.35-.51,.67-.42,.79,.22,1.39,1.48,1.39,2.03,0,.77-.97,1.38-2.21,1.38Zm-.75-2.81c-.47,.2-.87,1.11-.87,1.43,0,.37,.67,.79,1.62,.79s1.62-.42,1.62-.79c0-.31-.42-1.22-.88-1.43-.03,.04-.08,.11-.11,.16-.14,.22-.33,.49-.63,.49s-.48-.26-.63-.47c-.04-.05-.09-.12-.12-.17Z"/><path class="cls-13" d="M373.64,81.33c0,.42-.6,.75-1.33,.75s-1.33-.34-1.33-.75,.6-.75,1.33-.75,1.33,.34,1.33,.75Z"/><ellipse class="cls-5" cx="372.31" cy="81.9" rx="1.33" ry=".75"/><path class="cls-12" d="M372.31,82.37c-.92,0-1.62-.45-1.62-1.04s.7-1.04,1.62-1.04,1.62,.46,1.62,1.04-.71,1.04-1.62,1.04Zm0-1.51c-.63,0-1.04,.27-1.04,.46s.4,.46,1.04,.46,1.04-.27,1.04-.46-.4-.46-1.04-.46Z"/><path class="cls-10" d="M383.11,82.51h0l-10.82-6.47-11,6.47-.29,.18v5.27l11.34,6.56,11.06-6.44v-5.4l-.29-.18Zm-10.82-5.79l10.25,6.13-8.21,4.85-1.82,1.07-10.63-5.93,10.41-6.12Zm-10.73,6.62l1.98,1.1,8.67,4.84-.02,4.51-10.61-6.15-.02-4.3Z"/></g><g><polygon class="cls-6" points="324.35 89.09 324.35 73.46 354.07 90.62 354.07 106.45 324.35 89.09"/><polygon class="cls-15" points="324.35 73 335.4 66.56 365.1 83.72 354.07 90.06 324.35 73"/><polygon class="cls-6" points="354.23 90.16 354.07 91.54 324.35 74.53 324.35 73.07 354.23 90.16"/><polygon class="cls-2" points="325.46 73.68 335.4 67.89 365.1 85.05 355.18 90.74 325.46 73.68"/><path class="cls-10" d="M335.4,66.22l-11.34,6.61v16.43l30.02,17.53,11.32-6.6v-16.64l-29.99-17.33Zm-10.8,8.74l2.15,1.23v13.96l-2.12-1.24-.04-13.96Zm24.23,13.86l2.29,1.31v14.25l-2.31-1.35h.01v-14.21Zm-.42,13.98l-2.29-1.34v-14.19l2.29,1.31v14.22Zm-2.71-15.73v14.15l-2.29-1.34v-14.16l2.35,1.35h-.06Zm-2.71,12.57l-2.29-1.34v-14.13l2.29,1.31v14.15Zm-2.71-1.58l-2.29-1.34v-14.1l2.29,1.31v14.12Zm-2.71-1.58l-2.26-1.32v-14.06l2.26,1.3v14.09Zm-2.68-1.57l-2.29-1.34v-14.03l2.29,1.31v14.06Zm-2.71-1.58l-2.29-1.34v-14l2.29,1.31v14.03Zm-2.71-1.58l-2.29-1.34v-13.97l2.29,1.31v14Zm24.32,14.2l-2.24-1.31v-14.25l2.24,1.28v14.28Zm0-15.55v.69l-29.18-16.7v-.97l29.18,16.81v.16Zm.29-.67l-29.14-16.72,10.47-6.1,29.12,16.82-10.44,6Z"/><polygon class="cls-15" points="365.39 84.95 365.39 84.41 353.82 91.1 353.82 91.64 359.66 88.26 359.66 103.53 360.08 103.29 360.08 88.02 365.39 84.95"/><path class="cls-15" d="M357.39,99.22c-.12,0-.24-.03-.35-.1l-.17-.1c-.09-.05-.12-.16-.07-.24h0c.05-.09,.16-.12,.24-.07l.17,.1c.11,.06,.24,.06,.36,0l1.13-.62-.18-.11c-.08-.05-.11-.16-.06-.25h0c.05-.09,.16-.12,.25-.07l.18,.1c.12,.07,.18,.19,.18,.32,0,.13-.07,.25-.19,.32l-1.13,.62c-.11,.06-.23,.09-.36,.09Z"/><path class="cls-15" d="M361.33,97.01c-.12,0-.24-.03-.35-.1l-.17-.1c-.09-.05-.12-.16-.07-.24h0c.05-.09,.16-.12,.24-.07l.17,.1c.11,.06,.25,.06,.36,0l1.13-.62-.18-.11c-.08-.05-.11-.16-.06-.25h0c.05-.09,.16-.12,.25-.07l.18,.1c.12,.07,.18,.19,.18,.32,0,.13-.07,.25-.19,.32l-1.13,.62c-.11,.06-.23,.09-.36,.09Z"/></g><g><polygon class="cls-3" points="312.32 96.13 312.32 80.5 342.05 97.66 342.05 113.49 312.32 96.13"/><polygon class="cls-8" points="312.32 80.04 323.37 73.6 353.07 90.75 342.05 97.09 312.32 80.04"/><polygon class="cls-11" points="342.2 97.2 342.05 98.57 312.32 81.57 312.32 80.11 342.2 97.2"/><polygon class="cls-14" points="313.43 80.72 323.37 74.93 353.07 92.09 343.15 97.78 313.43 80.72"/><path class="cls-10" d="M323.37,73.26l-11.34,6.61v16.43l30.02,17.53,11.32-6.6v-16.64l-29.99-17.33Zm-10.8,8.74l2.15,1.23v13.96l-2.12-1.24-.04-13.96Zm24.23,13.86l2.29,1.31v14.25l-2.31-1.35h.01v-14.21Zm-.42,13.98l-2.29-1.34v-14.19l2.29,1.31v14.22Zm-2.71-15.73v14.15l-2.29-1.34v-14.16l2.35,1.35h-.06Zm-2.71,12.57l-2.29-1.34v-14.13l2.29,1.31v14.15Zm-2.71-1.58l-2.29-1.34v-14.1l2.29,1.31v14.12Zm-2.71-1.58l-2.26-1.32v-14.06l2.26,1.3v14.09Zm-2.68-1.57l-2.29-1.34v-14.03l2.29,1.31v14.06Zm-2.71-1.58l-2.29-1.34v-14l2.29,1.31v14.03Zm-2.71-1.58l-2.29-1.34v-13.97l2.29,1.31v14Zm24.32,14.2l-2.24-1.31v-14.25l2.24,1.28v14.28Zm0-15.55v.69l-29.18-16.7v-.97l29.18,16.81v.16Zm.29-.67l-29.14-16.72,10.47-6.1,29.12,16.82-10.44,6Z"/><polygon class="cls-3" points="353.37 91.99 353.37 91.45 341.8 98.14 341.8 98.68 347.64 95.3 347.64 110.57 348.05 110.32 348.05 95.06 353.37 91.99"/><path class="cls-3" d="M345.36,106.26c-.12,0-.24-.03-.35-.1l-.17-.1c-.09-.05-.12-.16-.07-.24h0c.05-.09,.16-.12,.24-.07l.17,.1c.11,.06,.24,.06,.36,0l1.13-.62-.18-.11c-.08-.05-.11-.16-.06-.25h0c.05-.09,.16-.12,.25-.07l.18,.1c.12,.07,.18,.19,.18,.32,0,.13-.07,.25-.19,.32l-1.13,.62c-.11,.06-.23,.09-.36,.09Z"/><path class="cls-3" d="M349.3,104.05c-.12,0-.24-.03-.35-.1l-.17-.1c-.09-.05-.12-.16-.07-.24h0c.05-.09,.16-.12,.24-.07l.17,.1c.11,.06,.24,.06,.36,0l1.13-.62-.18-.11c-.08-.05-.11-.16-.06-.25h0c.05-.09,.16-.12,.25-.07l.18,.1c.12,.07,.18,.19,.18,.32,0,.13-.07,.25-.19,.32l-1.13,.62c-.11,.06-.23,.09-.36,.09Z"/></g><g><polygon class="cls-6" points="300.3 103.16 300.3 87.53 330.02 104.69 330.02 120.52 300.3 103.16"/><polygon class="cls-8" points="300.3 87.07 311.35 80.63 341.05 97.78 330.02 104.12 300.3 87.07"/><polygon class="cls-6" points="330.18 104.23 330.02 105.6 300.3 88.6 300.3 87.14 330.18 104.23"/><polygon class="cls-14" points="301.4 87.75 311.35 81.96 341.05 99.12 331.13 104.81 301.4 87.75"/><path class="cls-10" d="M311.35,80.29l-11.34,6.61v16.43l30.02,17.53,11.32-6.6v-16.64l-29.99-17.33Zm-10.8,8.74l2.15,1.23v13.96l-2.12-1.24-.04-13.96Zm24.23,13.86l2.29,1.31v14.25l-2.31-1.35h.01v-14.21Zm-.42,13.98l-2.29-1.34v-14.19l2.29,1.31v14.22Zm-2.71-15.73v14.15l-2.29-1.34v-14.16l2.35,1.35h-.06Zm-2.71,12.57l-2.29-1.34v-14.13l2.29,1.31v14.15Zm-2.71-1.58l-2.29-1.34v-14.1l2.29,1.31v14.12Zm-2.71-1.58l-2.26-1.32v-14.06l2.26,1.3v14.09Zm-2.68-1.57l-2.29-1.34v-14.03l2.29,1.31v14.06Zm-2.71-1.58l-2.29-1.34v-14l2.29,1.31v14.03Zm-2.71-1.58l-2.29-1.34v-13.97l2.29,1.31v14Zm24.32,14.2l-2.24-1.31v-14.25l2.24,1.28v14.28Zm0-15.55v.69l-29.18-16.7v-.97l29.18,16.81v.16Zm.29-.67l-29.14-16.72,10.47-6.1,29.12,16.82-10.44,6Z"/><polygon class="cls-15" points="341.34 99.02 341.34 98.48 329.77 105.17 329.77 105.71 335.61 102.33 335.61 117.6 336.03 117.35 336.03 102.09 341.34 99.02"/><path class="cls-15" d="M333.34,113.29c-.12,0-.24-.03-.35-.1l-.17-.1c-.09-.05-.12-.16-.07-.24h0c.05-.09,.16-.12,.24-.07l.17,.1c.11,.06,.24,.06,.36,0l1.13-.62-.18-.11c-.08-.05-.11-.16-.06-.25h0c.05-.09,.16-.12,.25-.07l.18,.1c.12,.07,.18,.19,.18,.32,0,.13-.07,.25-.19,.32l-1.13,.62c-.11,.06-.23,.09-.36,.09Z"/><path class="cls-15" d="M337.27,111.08c-.12,0-.24-.03-.35-.1l-.17-.1c-.09-.05-.12-.16-.07-.24h0c.05-.09,.16-.12,.24-.07l.17,.1c.11,.06,.24,.06,.36,0l1.13-.62-.18-.11c-.08-.05-.11-.16-.06-.25h0c.05-.09,.16-.12,.25-.07l.18,.1c.12,.07,.18,.19,.18,.32,0,.13-.07,.25-.19,.32l-1.13,.62c-.11,.06-.23,.09-.36,.09Z"/></g><polygon class="cls-3" points="288.27 110.2 288.27 94.57 317.99 111.73 317.99 127.55 288.27 110.2"/><polygon class="cls-8" points="288.27 94.11 299.32 87.66 329.02 104.82 317.99 111.16 288.27 94.11"/><polygon class="cls-11" points="318.15 111.27 317.99 112.64 288.27 95.64 288.27 94.18 318.15 111.27"/><polygon class="cls-14" points="289.38 94.79 299.32 89 329.02 106.16 319.1 111.85 289.38 94.79"/><path class="cls-10" d="M299.32,87.33l-11.34,6.61v16.43l30.02,17.53,11.32-6.6v-16.64l-29.99-17.33Zm-10.8,8.74l2.15,1.23v13.96l-2.12-1.24-.04-13.96Zm24.23,13.86l2.29,1.31v14.25l-2.31-1.35h.01v-14.21Zm-.42,13.98l-2.29-1.34v-14.19l2.29,1.31v14.22Zm-2.71-15.73v14.15l-2.29-1.34v-14.16l2.35,1.35h-.06Zm-2.71,12.57l-2.29-1.34v-14.13l2.29,1.31v14.15Zm-2.71-1.58l-2.29-1.34v-14.1l2.29,1.31v14.12Zm-2.71-1.58l-2.26-1.32v-14.06l2.26,1.3v14.09Zm-2.68-1.57l-2.29-1.34v-14.03l2.29,1.31v14.06Zm-2.71-1.58l-2.29-1.34v-14l2.29,1.31v14.03Zm-2.71-1.58l-2.29-1.34v-13.97l2.29,1.31v14Zm24.32,14.2l-2.24-1.31v-14.25l2.24,1.28v14.28Zm0-15.55v.69l-29.18-16.7v-.97l29.18,16.81v.16Zm.29-.67l-29.14-16.72,10.47-6.1,29.12,16.82-10.44,6Z"/><polygon class="cls-3" points="329.31 106.06 329.31 105.52 317.74 112.21 317.74 112.75 323.58 109.37 323.58 124.64 324 124.39 324 109.13 329.31 106.06"/><path class="cls-3" d="M321.31,120.32c-.12,0-.24-.03-.35-.1l-.17-.1c-.09-.05-.12-.16-.07-.24h0c.05-.09,.16-.12,.24-.07l.17,.1c.11,.06,.24,.06,.36,0l1.13-.62-.18-.11c-.08-.05-.11-.16-.06-.25h0c.05-.09,.16-.12,.25-.07l.18,.1c.12,.07,.18,.19,.18,.32,0,.13-.07,.25-.19,.32l-1.13,.62c-.11,.06-.23,.09-.36,.09Z"/><path class="cls-3" d="M325.25,118.12c-.12,0-.24-.03-.35-.1l-.17-.1c-.09-.05-.12-.16-.07-.24h0c.05-.09,.16-.12,.24-.07l.17,.1c.11,.06,.24,.06,.36,0l1.13-.62-.18-.11c-.08-.05-.11-.16-.06-.25h0c.05-.09,.16-.12,.25-.07l.18,.1c.12,.07,.18,.19,.18,.32,0,.13-.07,.25-.19,.32l-1.13,.62c-.11,.06-.23,.09-.36,.09Z"/><g><polygon class="cls-3" points="276.24 117.24 276.24 101.61 305.97 118.77 305.97 134.59 276.24 117.24"/><polygon class="cls-8" points="276.24 101.14 287.29 94.7 316.99 111.86 305.97 118.2 276.24 101.14"/><polygon class="cls-11" points="306.12 118.31 305.97 119.68 276.24 102.67 276.24 101.22 306.12 118.31"/><polygon class="cls-14" points="277.35 101.83 287.29 96.04 316.99 113.2 307.07 118.89 277.35 101.83"/><path class="cls-10" d="M287.29,94.37l-11.34,6.61v16.43l30.02,17.53,11.32-6.6v-16.64l-29.99-17.33Zm-10.8,8.74l2.15,1.23v13.96l-2.12-1.24-.04-13.96Zm24.23,13.86l2.29,1.31v14.25l-2.31-1.35h.01v-14.21Zm-.42,13.98l-2.29-1.34v-14.19l2.29,1.31v14.22Zm-2.71-15.73v14.15l-2.29-1.34v-14.16l2.35,1.35h-.06Zm-2.71,12.57l-2.29-1.34v-14.13l2.29,1.31v14.15Zm-2.71-1.58l-2.29-1.34v-14.1l2.29,1.31v14.12Zm-2.71-1.58l-2.26-1.32v-14.06l2.26,1.3v14.09Zm-2.68-1.57l-2.29-1.34v-14.03l2.29,1.31v14.06Zm-2.71-1.58l-2.29-1.34v-14l2.29,1.31v14.03Zm-2.71-1.58l-2.29-1.34v-13.97l2.29,1.31v14Zm24.32,14.2l-2.24-1.31v-14.25l2.24,1.28v14.28Zm0-15.55v.69l-29.18-16.7v-.97l29.18,16.81v.16Zm.29-.67l-29.14-16.72,10.47-6.1,29.12,16.82-10.44,6Z"/><polygon class="cls-3" points="317.29 113.09 317.28 112.56 305.71 119.25 305.72 119.78 311.55 116.41 311.55 131.68 311.97 131.43 311.97 116.17 317.29 113.09"/><path class="cls-3" d="M309.28,127.36c-.12,0-.24-.03-.35-.1l-.17-.1c-.09-.05-.12-.16-.07-.24h0c.05-.09,.16-.12,.24-.07l.17,.1c.11,.06,.24,.06,.36,0l1.13-.62-.18-.11c-.08-.05-.11-.16-.06-.25h0c.05-.09,.16-.12,.25-.07l.18,.1c.12,.07,.18,.19,.18,.32,0,.13-.07,.25-.19,.32l-1.13,.62c-.11,.06-.23,.09-.36,.09Z"/><path class="cls-3" d="M313.22,125.16c-.12,0-.24-.03-.35-.1l-.17-.1c-.09-.05-.12-.16-.07-.24h0c.05-.09,.16-.12,.24-.07l.17,.1c.11,.06,.24,.06,.36,0l1.13-.62-.18-.11c-.08-.05-.11-.16-.06-.25h0c.05-.09,.16-.12,.25-.07l.18,.1c.12,.07,.18,.19,.18,.32,0,.13-.07,.25-.19,.32l-1.13,.62c-.11,.06-.23,.09-.36,.09Z"/></g><g><g><polygon class="cls-6" points="312.36 79.95 312.36 64.32 342.09 81.48 342.09 97.31 312.36 79.95"/><polygon class="cls-15" points="312.36 63.86 323.41 57.42 353.11 74.57 342.09 80.91 312.36 63.86"/><polygon class="cls-6" points="342.24 81.02 342.09 82.39 312.36 65.39 312.36 63.93 342.24 81.02"/><polygon class="cls-2" points="313.47 64.54 323.41 58.75 353.11 75.91 343.19 81.6 313.47 64.54"/><path class="cls-10" d="M323.41,57.08l-11.34,6.61v16.43l30.02,17.53,11.32-6.6v-16.64l-29.99-17.33Zm-10.8,8.74l2.15,1.23v13.96l-2.12-1.24-.04-13.96Zm24.23,13.86l2.29,1.31v14.25l-2.31-1.35h.01v-14.21Zm-.42,13.98l-2.29-1.34v-14.19l2.29,1.31v14.22Zm-2.71-15.73v14.15l-2.29-1.34v-14.16l2.35,1.35h-.06Zm-2.71,12.57l-2.29-1.34v-14.13l2.29,1.31v14.15Zm-2.71-1.58l-2.29-1.34v-14.1l2.29,1.31v14.12Zm-2.71-1.58l-2.26-1.32v-14.06l2.26,1.3v14.09Zm-2.68-1.57l-2.29-1.34v-14.03l2.29,1.31v14.06Zm-2.71-1.58l-2.29-1.34v-14l2.29,1.31v14.03Zm-2.71-1.58l-2.29-1.34v-13.97l2.29,1.31v14Zm24.32,14.2l-2.24-1.31v-14.25l2.24,1.28v14.28Zm0-15.55v.69l-29.18-16.7v-.97l29.18,16.81v.16Zm.29-.67l-29.14-16.72,10.47-6.1,29.12,16.82-10.44,6Z"/><polygon class="cls-15" points="353.41 75.81 353.41 75.27 341.84 81.96 341.84 82.5 347.68 79.12 347.68 94.39 348.09 94.14 348.09 78.88 353.41 75.81"/><path class="cls-15" d="M345.41,90.08c-.12,0-.24-.03-.35-.1l-.17-.1c-.09-.05-.12-.16-.07-.24h0c.05-.09,.16-.12,.24-.07l.17,.1c.11,.06,.24,.06,.36,0l1.13-.62-.18-.11c-.08-.05-.11-.16-.06-.25h0c.05-.09,.16-.12,.25-.07l.18,.1c.12,.07,.18,.19,.18,.32,0,.13-.07,.25-.19,.32l-1.13,.62c-.11,.06-.23,.09-.36,.09Z"/><path class="cls-15" d="M349.34,87.87c-.12,0-.24-.03-.35-.1l-.17-.1c-.09-.05-.12-.16-.07-.24h0c.05-.09,.16-.12,.24-.07l.17,.1c.11,.06,.24,.06,.36,0l1.13-.62-.18-.11c-.08-.05-.11-.16-.06-.25h0c.05-.09,.16-.12,.25-.07l.18,.1c.12,.07,.18,.19,.18,.32,0,.13-.07,.25-.19,.32l-1.13,.62c-.11,.06-.23,.09-.36,.09Z"/></g><g><polygon class="cls-13" points="345.12 72.6 339.29 69.23 333.46 72.6 333.46 74.24 339.29 77.59 339.29 75.97 345.12 72.6"/><path class="cls-12" d="M345.12,72.36h0l-5.83-3.37-6.04,3.49v1.88l5.83,3.36h0l.21,.12,6.04-3.48v-1.88l-.21-.12Zm-.42,.24l-5.42,3.13-5.42-3.13,5.42-3.13,5.42,3.13Zm-11.04,1.51v-1.15l2.24,1.3,3.17,1.83v1.14l-5.42-3.12Z"/><polygon class="cls-5" points="342.39 72.96 339.29 74.7 336.19 72.96 339.29 71.17 342.39 72.96"/><path class="cls-12" d="M339.29,74.95l-4.07-2.35,4.07-2.35,4.07,2.35-4.07,2.35Zm-3.23-2.35l3.23,1.87,3.23-1.87-3.23-1.87-3.23,1.87Z"/></g></g><g><g><polygon class="cls-6" points="264.19 124.28 264.19 108.65 293.92 125.81 293.92 141.63 264.19 124.28"/><polygon class="cls-15" points="264.19 108.18 275.25 101.74 304.95 118.9 293.92 125.24 264.19 108.18"/><polygon class="cls-6" points="294.08 125.34 293.92 126.72 264.19 109.71 264.19 108.26 294.08 125.34"/><polygon class="cls-2" points="265.3 108.87 275.25 103.08 304.95 120.24 295.03 125.92 265.3 108.87"/><path class="cls-10" d="M275.24,101.4l-11.34,6.61v16.43l30.02,17.53,11.32-6.6v-16.64l-29.99-17.33Zm-10.8,8.74l2.15,1.23v13.96l-2.12-1.24-.04-13.96Zm24.23,13.86l2.29,1.31v14.25l-2.31-1.35h.01v-14.21Zm-.42,13.98l-2.29-1.34v-14.19l2.29,1.31v14.22Zm-2.71-15.73v14.15l-2.29-1.34v-14.16l2.35,1.35h-.06Zm-2.71,12.57l-2.29-1.34v-14.13l2.29,1.31v14.15Zm-2.71-1.58l-2.29-1.34v-14.1l2.29,1.31v14.12Zm-2.71-1.58l-2.26-1.32v-14.06l2.26,1.3v14.09Zm-2.68-1.57l-2.29-1.34v-14.03l2.29,1.31v14.06Zm-2.71-1.58l-2.29-1.34v-14l2.29,1.31v14.03Zm-2.71-1.58l-2.29-1.34v-13.97l2.29,1.31v14Zm24.32,14.2l-2.24-1.31v-14.25l2.24,1.28v14.28Zm0-15.55v.69l-29.18-16.7v-.97l29.18,16.81v.16Zm.29-.67l-29.14-16.72,10.47-6.1,29.12,16.82-10.44,6Z"/><polygon class="cls-15" points="305.24 120.13 305.24 119.6 293.67 126.29 293.67 126.82 299.51 123.45 299.51 138.71 299.93 138.47 299.93 123.21 305.24 120.13"/><path class="cls-15" d="M297.24,134.4c-.12,0-.24-.03-.35-.1l-.17-.1c-.09-.05-.12-.16-.07-.24h0c.05-.09,.16-.12,.24-.07l.17,.1c.11,.06,.24,.06,.36,0l1.13-.62-.18-.11c-.08-.05-.11-.16-.06-.25h0c.05-.09,.16-.12,.25-.07l.18,.1c.12,.07,.18,.19,.18,.32,0,.13-.07,.25-.19,.32l-1.13,.62c-.11,.06-.23,.09-.36,.09Z"/><path class="cls-15" d="M301.17,132.2c-.12,0-.24-.03-.35-.1l-.17-.1c-.09-.05-.12-.16-.07-.24h0c.05-.09,.16-.12,.24-.07l.17,.1c.11,.06,.24,.06,.36,0l1.13-.62-.18-.11c-.08-.05-.11-.16-.06-.25h0c.05-.09,.16-.12,.25-.07l.18,.1c.12,.07,.18,.19,.18,.32,0,.13-.07,.25-.19,.32l-1.13,.62c-.11,.06-.23,.09-.36,.09Z"/></g><g><polygon class="cls-13" points="281.06 107.52 275.23 104.15 269.4 107.52 269.4 109.15 275.23 112.51 275.23 110.88 281.06 107.52"/><path class="cls-12" d="M281.06,107.28h0l-5.83-3.37-6.04,3.49v1.88l5.83,3.36h0l.21,.12,6.04-3.48v-1.88l-.21-.12Zm-.42,.24l-5.42,3.13-5.42-3.13,5.42-3.13,5.42,3.13Zm-11.04,1.51v-1.15l2.24,1.3,3.17,1.83v1.14l-5.42-3.12Z"/><polygon class="cls-5" points="278.33 107.88 275.23 109.61 272.13 107.88 275.23 106.09 278.33 107.88"/><path class="cls-12" d="M275.23,109.87l-4.07-2.35,4.07-2.35,4.07,2.35-4.07,2.35Zm-3.23-2.35l3.23,1.87,3.23-1.87-3.23-1.87-3.23,1.87Z"/></g></g><g><polygon class="cls-6" points="252.17 131.32 252.17 115.69 281.89 132.85 281.89 148.67 252.17 131.32"/><polygon class="cls-15" points="252.17 115.22 263.22 108.78 292.92 125.94 281.89 132.28 252.17 115.22"/><polygon class="cls-6" points="282.05 132.38 281.89 133.76 252.17 116.75 252.17 115.3 282.05 132.38"/><polygon class="cls-2" points="253.27 115.9 263.22 110.12 292.92 127.28 283 132.96 253.27 115.9"/><path class="cls-10" d="M263.22,108.44l-11.34,6.61v16.43l30.02,17.53,11.32-6.6v-16.64l-29.99-17.33Zm-10.8,8.74l2.15,1.23v13.96l-2.12-1.24-.04-13.96Zm24.23,13.86l2.29,1.31v14.25l-2.31-1.35h.01v-14.21Zm-.42,13.98l-2.29-1.34v-14.19l2.29,1.31v14.22Zm-2.71-15.73v14.15l-2.29-1.34v-14.16l2.35,1.35h-.06Zm-2.71,12.57l-2.29-1.34v-14.13l2.29,1.31v14.15Zm-2.71-1.58l-2.29-1.34v-14.1l2.29,1.31v14.12Zm-2.71-1.58l-2.26-1.32v-14.06l2.26,1.3v14.09Zm-2.68-1.57l-2.29-1.34v-14.03l2.29,1.31v14.06Zm-2.71-1.58l-2.29-1.34v-14l2.29,1.31v14.03Zm-2.71-1.58l-2.29-1.34v-13.97l2.29,1.31v14Zm24.32,14.2l-2.24-1.31v-14.25l2.24,1.28v14.28Zm0-15.55v.69l-29.18-16.7v-.97l29.18,16.81v.16Zm.29-.67l-29.14-16.72,10.47-6.1,29.12,16.82-10.44,6Z"/><polygon class="cls-15" points="293.21 127.17 293.21 126.64 281.64 133.33 281.64 133.86 287.48 130.49 287.48 145.75 287.9 145.51 287.9 130.25 293.21 127.17"/><path class="cls-15" d="M285.21,141.44c-.12,0-.24-.03-.35-.1l-.17-.1c-.09-.05-.12-.16-.07-.24h0c.05-.09,.16-.12,.24-.07l.17,.1c.11,.06,.24,.06,.36,0l1.13-.62-.18-.11c-.08-.05-.11-.16-.06-.25h0c.05-.09,.16-.12,.25-.07l.18,.1c.12,.07,.18,.19,.18,.32,0,.13-.07,.25-.19,.32l-1.13,.62c-.11,.06-.23,.09-.36,.09Z"/><path class="cls-15" d="M289.14,139.24c-.12,0-.24-.03-.35-.1l-.17-.1c-.09-.05-.12-.16-.07-.24h0c.05-.09,.16-.12,.24-.07l.17,.1c.11,.06,.24,.06,.36,0l1.13-.62-.18-.11c-.08-.05-.11-.16-.06-.25h0c.05-.09,.16-.12,.25-.07l.18,.1c.12,.07,.18,.19,.18,.32,0,.13-.07,.25-.19,.32l-1.13,.62c-.11,.06-.23,.09-.36,.09Z"/></g><g><g><polygon class="cls-3" points="300.34 86.99 300.34 71.36 330.06 88.52 330.06 104.34 300.34 86.99"/><polygon class="cls-7" points="300.34 70.89 311.39 64.45 341.09 81.61 330.06 87.95 300.34 70.89"/><polygon class="cls-11" points="330.22 88.06 330.06 89.43 300.34 72.43 300.34 70.97 330.22 88.06"/><polygon class="cls-3" points="301.44 71.58 311.39 65.79 341.09 82.95 331.17 88.64 301.44 71.58"/><path class="cls-10" d="M311.39,64.12l-11.34,6.61v16.43l30.02,17.53,11.32-6.6v-16.64l-29.99-17.33Zm-10.8,8.74l2.15,1.23v13.96l-2.12-1.24-.04-13.96Zm24.23,13.86l2.29,1.31v14.25l-2.31-1.35h.01v-14.21Zm-.42,13.98l-2.29-1.34v-14.19l2.29,1.31v14.22Zm-2.71-15.73v14.15l-2.29-1.34v-14.16l2.35,1.35h-.06Zm-2.71,12.57l-2.29-1.34v-14.13l2.29,1.31v14.15Zm-2.71-1.58l-2.29-1.34v-14.1l2.29,1.31v14.12Zm-2.71-1.58l-2.26-1.32v-14.06l2.26,1.3v14.09Zm-2.68-1.57l-2.29-1.34v-14.03l2.29,1.31v14.06Zm-2.71-1.58l-2.29-1.34v-14l2.29,1.31v14.03Zm-2.71-1.58l-2.29-1.34v-13.97l2.29,1.31v14Zm24.32,14.2l-2.24-1.31v-14.25l2.24,1.28v14.28Zm0-15.55v.69l-29.18-16.7v-.97l29.18,16.81v.16Zm.29-.67l-29.14-16.72,10.47-6.1,29.12,16.82-10.44,6Z"/><polygon class="cls-3" points="341.38 82.85 341.38 82.31 329.81 89 329.81 89.54 335.65 86.16 335.65 101.43 336.07 101.18 336.07 85.92 341.38 82.85"/><path class="cls-3" d="M333.38,97.11c-.12,0-.24-.03-.35-.1l-.17-.1c-.09-.05-.12-.16-.07-.24h0c.05-.09,.16-.12,.24-.07l.17,.1c.11,.06,.24,.06,.36,0l1.13-.62-.18-.11c-.08-.05-.11-.16-.06-.25h0c.05-.09,.16-.12,.25-.07l.18,.1c.12,.07,.18,.19,.18,.32,0,.13-.07,.25-.19,.32l-1.13,.62c-.11,.06-.23,.09-.36,.09Z"/><path class="cls-3" d="M337.31,94.91c-.12,0-.24-.03-.35-.1l-.17-.1c-.09-.05-.12-.16-.07-.24h0c.05-.09,.16-.12,.24-.07l.17,.1c.11,.06,.24,.06,.36,0l1.13-.62-.18-.11c-.08-.05-.11-.16-.06-.25h0c.05-.09,.16-.12,.25-.07l.18,.1c.12,.07,.18,.19,.18,.32,0,.13-.07,.25-.19,.32l-1.13,.62c-.11,.06-.23,.09-.36,.09Z"/></g><g><polygon class="cls-13" points="317.21 70.16 311.37 66.79 305.54 70.16 305.54 71.79 311.37 75.15 311.37 73.53 317.21 70.16"/><path class="cls-12" d="M317.21,69.92h0l-5.83-3.37-6.04,3.49v1.88l5.83,3.36h0l.21,.12,6.04-3.48v-1.88l-.21-.12Zm-.42,.24l-5.42,3.13-5.42-3.13,5.42-3.13,5.42,3.13Zm-11.04,1.51v-1.15l2.24,1.3,3.17,1.83v1.14l-5.42-3.12Z"/><polygon class="cls-5" points="314.47 70.52 311.37 72.25 308.27 70.52 311.37 68.73 314.47 70.52"/><path class="cls-12" d="M311.37,72.51l-4.07-2.35,4.07-2.35,4.07,2.35-4.07,2.35Zm-3.23-2.35l3.23,1.87,3.23-1.87-3.23-1.87-3.23,1.87Z"/></g></g><g><polygon class="cls-6" points="288.31 94.03 288.31 78.4 318.03 95.56 318.03 111.38 288.31 94.03"/><polygon class="cls-15" points="288.31 77.93 299.36 71.49 329.06 88.65 318.03 94.99 288.31 77.93"/><polygon class="cls-6" points="318.19 95.09 318.03 96.47 288.31 79.46 288.31 78.01 318.19 95.09"/><polygon class="cls-2" points="289.41 78.62 299.36 72.83 329.06 89.99 319.14 95.67 289.41 78.62"/><path class="cls-10" d="M299.36,71.16l-11.34,6.61v16.43l30.02,17.53,11.32-6.6v-16.64l-29.99-17.33Zm-10.8,8.74l2.15,1.23v13.96l-2.12-1.24-.04-13.96Zm24.23,13.86l2.29,1.31v14.25l-2.31-1.35h.01v-14.21Zm-.42,13.98l-2.29-1.34v-14.19l2.29,1.31v14.22Zm-2.71-15.73v14.15l-2.29-1.34v-14.16l2.35,1.35h-.06Zm-2.71,12.57l-2.29-1.34v-14.13l2.29,1.31v14.15Zm-2.71-1.58l-2.29-1.34v-14.1l2.29,1.31v14.12Zm-2.71-1.58l-2.26-1.32v-14.06l2.26,1.3v14.09Zm-2.68-1.57l-2.29-1.34v-14.03l2.29,1.31v14.06Zm-2.71-1.58l-2.29-1.34v-14l2.29,1.31v14.03Zm-2.71-1.58l-2.29-1.34v-13.97l2.29,1.31v14Zm24.32,14.2l-2.24-1.31v-14.25l2.24,1.28v14.28Zm0-15.55v.69l-29.18-16.7v-.97l29.18,16.81v.16Zm.29-.67l-29.14-16.72,10.47-6.1,29.12,16.82-10.44,6Z"/><polygon class="cls-15" points="329.35 89.88 329.35 89.35 317.78 96.04 317.78 96.57 323.62 93.2 323.62 108.46 324.04 108.22 324.04 92.96 329.35 89.88"/><path class="cls-15" d="M321.35,104.15c-.12,0-.24-.03-.35-.1l-.17-.1c-.09-.05-.12-.16-.07-.24h0c.05-.09,.16-.12,.24-.07l.17,.1c.11,.06,.24,.06,.36,0l1.13-.62-.18-.11c-.08-.05-.11-.16-.06-.25h0c.05-.09,.16-.12,.25-.07l.18,.1c.12,.07,.18,.19,.18,.32,0,.13-.07,.25-.19,.32l-1.13,.62c-.11,.06-.23,.09-.36,.09Z"/><path class="cls-15" d="M325.29,101.95c-.12,0-.24-.03-.35-.1l-.17-.1c-.09-.05-.12-.16-.07-.24h0c.05-.09,.16-.12,.24-.07l.17,.1c.11,.06,.24,.06,.36,0l1.13-.62-.18-.11c-.08-.05-.11-.16-.06-.25h0c.05-.09,.16-.12,.25-.07l.18,.1c.12,.07,.18,.19,.18,.32,0,.13-.07,.25-.19,.32l-1.13,.62c-.11,.06-.23,.09-.36,.09Z"/></g><g><g><polygon class="cls-13" points="276.26 101.07 276.26 85.44 305.99 102.6 305.99 118.42 276.26 101.07"/><polygon class="cls-13" points="276.26 84.97 287.31 78.53 317.01 95.69 305.99 102.03 276.26 84.97"/><polygon class="cls-5" points="306.14 102.13 305.99 103.51 276.26 86.5 276.26 85.05 306.14 102.13"/><polygon class="cls-5" points="277.3 85.61 287.31 79.87 317.01 97.03 307.09 102.71 277.3 85.61"/><path class="cls-10" d="M287.31,78.19l-11.34,6.61v16.43l30.02,17.53,11.32-6.6v-16.64l-29.99-17.33Zm-10.8,8.74l2.15,1.23v13.96l-2.12-1.24-.04-13.96Zm24.23,13.86l2.29,1.31v14.25l-2.31-1.35h.01v-14.21Zm-.42,13.98l-2.29-1.34v-14.19l2.29,1.31v14.22Zm-2.71-15.73v14.15l-2.29-1.34v-14.16l2.35,1.35h-.06Zm-2.71,12.57l-2.29-1.34v-14.13l2.29,1.31v14.15Zm-2.71-1.58l-2.29-1.34v-14.1l2.29,1.31v14.12Zm-2.71-1.58l-2.26-1.32v-14.06l2.26,1.3v14.09Zm-2.68-1.57l-2.29-1.34v-14.03l2.29,1.31v14.06Zm-2.71-1.58l-2.29-1.34v-14l2.29,1.31v14.03Zm-2.71-1.58l-2.29-1.34v-13.97l2.29,1.31v14Zm24.32,14.2l-2.24-1.31v-14.25l2.24,1.28v14.28Zm0-15.55v.69l-29.18-16.7v-.97l29.18,16.81v.16Zm.29-.67l-29.14-16.72,10.47-6.1,29.12,16.82-10.44,6Z"/><polygon class="cls-13" points="317.31 96.92 317.3 96.39 305.73 103.08 305.74 103.61 311.57 100.24 311.57 115.5 311.99 115.26 311.99 100 317.31 96.92"/><path class="cls-13" d="M309.3,111.19c-.12,0-.24-.03-.35-.1l-.17-.1c-.09-.05-.12-.16-.07-.24h0c.05-.09,.16-.12,.24-.07l.17,.1c.11,.06,.24,.06,.36,0l1.13-.62-.18-.11c-.08-.05-.11-.16-.06-.25h0c.05-.09,.16-.12,.25-.07l.18,.1c.12,.07,.18,.19,.18,.32,0,.13-.07,.25-.19,.32l-1.13,.62c-.11,.06-.23,.09-.36,.09Z"/><path class="cls-13" d="M313.24,108.99c-.12,0-.24-.03-.35-.1l-.17-.1c-.09-.05-.12-.16-.07-.24h0c.05-.09,.16-.12,.24-.07l.17,.1c.11,.06,.24,.06,.36,0l1.13-.62-.18-.11c-.08-.05-.11-.16-.06-.25h0c.05-.09,.16-.12,.25-.07l.18,.1c.12,.07,.18,.19,.18,.32,0,.13-.07,.25-.19,.32l-1.13,.62c-.11,.06-.23,.09-.36,.09Z"/></g><g><polygon class="cls-13" points="309.37 93.83 303.53 90.46 297.7 93.83 297.7 95.47 303.53 98.82 303.53 97.2 309.37 93.83"/><path class="cls-12" d="M309.37,93.59h0l-5.83-3.37-6.04,3.49v1.88l5.83,3.36h0l.21,.12,6.04-3.48v-1.88l-.21-.12Zm-.42,.24l-5.42,3.13-5.42-3.13,5.42-3.13,5.42,3.13Zm-11.04,1.51v-1.15l2.24,1.3,3.17,1.83v1.14l-5.42-3.12Z"/><polygon class="cls-5" points="306.64 94.19 303.53 95.93 300.43 94.19 303.53 92.4 306.64 94.19"/><path class="cls-12" d="M303.53,96.18l-4.07-2.35,4.07-2.35,4.07,2.35-4.07,2.35Zm-3.23-2.35l3.23,1.87,3.23-1.87-3.23-1.87-3.23,1.87Z"/></g></g><rect class="cls-9" x="105.57" y="-17.31" width="416.74" height="270.83"/></g></svg>